{"glyphs":{"0":{"ha":886,"x_min":0,"x_max":0,"o":"m 406 -14 b 853 476 638 -14 814 203 b 532 986 893 756 774 986 b 78 501 301 986 117 775 b 406 -14 38 222 164 -14 z m 429 90 b 333 636 300 97 289 421 b 500 882 364 785 415 888 b 593 336 632 875 638 553 b 429 90 564 189 513 85 z "},"1":{"ha":544,"x_min":0,"x_max":0,"o":"m 489 939 b 460 986 492 969 485 986 b 190 894 436 986 286 936 b 133 850 150 878 136 871 b 168 807 131 831 139 818 b 225 697 229 783 233 764 l 149 167 b 54 36 138 88 54 94 b 122 1 54 11 78 1 l 383 1 b 449 35 425 1 449 8 b 379 167 449 83 368 88 z "},"2":{"ha":825,"x_min":0,"x_max":0,"o":"m 771 738 b 513 986 793 893 671 986 b 150 767 326 986 190 851 b 189 726 129 722 156 694 b 407 826 261 793 331 826 b 525 697 489 826 536 775 b 42 103 506 551 371 396 b 4 32 19 85 4 56 b 49 -10 4 10 19 -10 b 214 74 104 -10 131 74 b 536 -6 325 74 394 -6 b 761 250 664 -6 756 100 b 738 296 761 276 756 296 b 581 207 701 296 694 207 b 353 257 501 207 439 244 b 771 738 618 429 753 611 z "},"3":{"ha":814,"x_min":0,"x_max":0,"o":"m 801 894 b 779 960 821 918 822 960 b 672 911 742 960 708 911 b 325 978 558 911 442 978 b 139 771 214 978 168 897 b 154 676 124 711 129 676 b 221 726 176 676 189 697 b 326 763 253 754 289 763 b 515 729 407 763 463 738 b 299 550 453 668 383 614 b 303 474 274 531 261 479 b 510 288 468 447 524 385 b 314 129 496 183 407 129 b 90 224 218 129 146 168 b 29 183 63 251 22 226 b 363 -26 46 96 158 -26 b 757 279 596 -26 735 119 b 483 582 785 474 643 560 b 801 894 586 671 703 782 z "},"4":{"ha":843,"x_min":0,"x_max":0,"o":"m 475 -42 b 618 -6 501 -42 571 -31 b 665 57 647 10 661 31 l 678 143 l 704 143 b 792 233 736 143 772 154 b 788 343 811 310 813 343 b 704 329 767 343 747 329 l 790 940 b 738 992 794 979 775 992 b 533 865 657 992 624 954 b 290 611 475 810 383 714 b 21 236 163 471 33 333 b 76 157 11 174 28 157 l 447 157 l 426 4 b 475 -42 422 -26 438 -42 z m 224 329 b 221 393 188 328 188 353 b 529 731 297 482 381 579 l 474 333 z "},"5":{"ha":821,"x_min":0,"x_max":0,"o":"m 363 -14 b 764 306 615 -14 740 139 b 313 678 790 493 657 633 l 367 796 b 649 793 460 789 556 789 b 779 868 736 797 756 817 b 811 960 797 910 807 935 b 793 1011 817 988 815 1011 b 600 972 749 1011 736 979 b 385 972 510 968 447 968 b 319 929 349 975 335 963 l 175 586 b 207 522 157 543 163 529 b 514 292 403 494 535 435 b 319 139 500 193 419 139 b 78 236 206 139 132 181 b 15 194 49 264 8 238 b 363 -14 33 108 144 -14 z "},"6":{"ha":822,"x_min":0,"x_max":0,"o":"m 386 -15 b 782 356 604 -15 751 144 b 549 683 807 538 713 683 b 340 606 461 683 383 647 b 579 869 374 810 497 869 b 726 835 639 869 671 861 b 771 894 754 821 790 853 b 568 986 750 938 675 988 b 69 440 317 986 106 721 b 386 -15 33 147 169 -15 z m 415 90 b 290 294 322 92 288 193 b 447 553 293 414 349 554 b 565 351 536 553 569 450 b 415 90 563 228 515 90 z "},"7":{"ha":740,"x_min":0,"x_max":0,"o":"m 767 982 b 650 928 728 982 711 928 b 285 985 529 928 417 985 b 104 725 133 985 104 822 b 132 679 104 699 113 679 b 286 772 171 679 192 772 b 569 735 364 772 463 722 b 118 86 400 543 149 300 b 147 22 115 60 122 38 b 300 -17 189 -4 265 -15 b 340 31 329 -17 336 0 b 796 906 381 319 617 633 b 767 982 826 956 808 982 z "},"8":{"ha":836,"x_min":0,"x_max":0,"o":"m 807 761 b 529 982 831 928 656 982 b 139 724 358 982 164 906 b 242 506 125 629 175 563 b 40 261 164 465 60 390 b 363 -17 11 53 208 -17 b 775 271 547 -17 746 61 b 625 540 793 396 719 474 b 807 761 703 581 792 651 z m 538 596 b 374 779 446 654 364 706 b 500 882 383 843 438 882 b 611 738 582 882 622 825 b 546 592 603 682 579 631 z m 546 215 b 399 85 539 161 496 85 b 244 290 292 85 226 168 b 317 451 254 365 288 417 b 369 417 333 439 351 428 b 546 215 475 351 557 294 z "},"9":{"ha":828,"x_min":0,"x_max":0,"o":"m 306 -15 b 800 531 560 -15 764 250 b 500 986 836 825 714 986 b 89 614 306 986 118 826 b 322 289 63 433 158 289 b 531 365 410 289 486 324 b 290 101 496 163 372 101 b 144 136 231 101 199 110 b 99 78 115 150 81 118 b 306 -15 119 33 194 -17 z m 438 418 b 311 721 332 418 290 579 b 442 881 321 793 353 881 b 574 590 547 881 593 729 b 438 418 563 511 529 418 z "},"A":{"ha":1015,"x_min":0,"x_max":0,"o":"m 175 0 b 249 40 214 0 244 7 b 233 183 257 94 176 78 l 260 231 b 446 268 281 268 281 268 b 624 224 613 268 613 268 l 632 192 b 560 44 660 82 568 103 b 625 0 554 11 575 0 l 879 0 b 963 44 936 0 957 11 b 881 192 971 101 910 78 l 690 932 b 636 972 682 960 665 972 l 464 972 b 411 931 436 972 415 960 b 436 783 403 874 488 878 l 110 183 b -31 40 56 85 -22 94 b 44 0 -35 8 -6 0 z m 461 369 b 358 415 333 369 333 369 l 507 690 l 578 407 b 461 369 588 369 586 369 z "},"Á":{"ha":1015,"x_min":0,"x_max":0,"o":"m 563 1047 b 782 1185 646 1044 781 1097 b 711 1265 783 1228 747 1264 b 592 1197 676 1267 638 1236 b 494 1076 560 1168 496 1104 b 563 1047 494 1054 532 1047 z m 175 0 b 249 40 214 0 244 7 b 233 183 257 94 176 78 l 260 231 b 446 268 281 268 281 268 b 624 224 613 268 613 268 l 632 192 b 560 44 660 82 568 103 b 625 0 554 11 575 0 l 879 0 b 963 44 936 0 957 11 b 881 192 971 101 910 78 l 690 932 b 636 972 682 960 665 972 l 464 972 b 411 931 436 972 415 960 b 436 783 403 874 488 878 l 110 183 b -31 40 56 85 -22 94 b 44 0 -35 8 -6 0 z m 461 369 b 358 415 333 369 333 369 l 507 690 l 578 407 b 461 369 588 369 586 369 z "},"Ă":{"ha":1015,"x_min":0,"x_max":0,"o":"m 579 1047 b 814 1238 700 1047 799 1126 b 794 1283 818 1265 811 1283 b 761 1263 785 1283 776 1278 b 600 1188 710 1208 667 1188 b 457 1263 532 1188 493 1208 b 428 1283 447 1278 439 1283 b 397 1238 413 1283 400 1265 b 579 1047 382 1131 454 1047 z m 175 0 b 249 40 214 0 244 7 b 233 183 257 94 176 78 l 260 231 b 446 268 281 268 281 268 b 624 224 613 268 613 268 l 632 192 b 560 44 660 82 568 103 b 625 0 554 11 575 0 l 879 0 b 963 44 936 0 957 11 b 881 192 971 101 910 78 l 690 932 b 636 972 682 960 665 972 l 464 972 b 411 931 436 972 415 960 b 436 783 403 874 488 878 l 110 183 b -31 40 56 85 -22 94 b 44 0 -35 8 -6 0 z m 461 369 b 358 415 333 369 333 369 l 507 690 l 578 407 b 461 369 588 369 586 369 z "},"Â":{"ha":1015,"x_min":0,"x_max":0,"o":"m 397 1040 b 590 1110 442 1040 533 1075 b 764 1040 638 1075 718 1040 b 792 1064 781 1042 790 1050 b 725 1158 796 1081 768 1108 b 610 1242 671 1218 671 1242 b 464 1154 549 1242 533 1214 b 374 1064 404 1103 376 1079 b 397 1040 374 1050 379 1042 z m 175 0 b 249 40 214 0 244 7 b 233 183 257 94 176 78 l 260 231 b 446 268 281 268 281 268 b 624 224 613 268 613 268 l 632 192 b 560 44 660 82 568 103 b 625 0 554 11 575 0 l 879 0 b 963 44 936 0 957 11 b 881 192 971 101 910 78 l 690 932 b 636 972 682 960 665 972 l 464 972 b 411 931 436 972 415 960 b 436 783 403 874 488 878 l 110 183 b -31 40 56 85 -22 94 b 44 0 -35 8 -6 0 z m 461 369 b 358 415 333 369 333 369 l 507 690 l 578 407 b 461 369 588 369 586 369 z "},"Ä":{"ha":1015,"x_min":0,"x_max":0,"o":"m 474 1057 b 588 1160 535 1057 588 1099 b 504 1242 588 1210 554 1242 b 397 1131 442 1242 397 1188 b 474 1057 397 1086 432 1057 z m 717 1057 b 829 1160 776 1057 829 1099 b 744 1242 829 1210 794 1242 b 638 1131 685 1242 638 1188 b 717 1057 638 1086 672 1057 z m 175 0 b 249 40 214 0 244 7 b 233 183 257 94 176 78 l 260 231 b 446 268 281 268 281 268 b 624 224 613 268 613 268 l 632 192 b 560 44 660 82 568 103 b 625 0 554 11 575 0 l 879 0 b 963 44 936 0 957 11 b 881 192 971 101 910 78 l 690 932 b 636 972 682 960 665 972 l 464 972 b 411 931 436 972 415 960 b 436 783 403 874 488 878 l 110 183 b -31 40 56 85 -22 94 b 44 0 -35 8 -6 0 z m 461 369 b 358 415 333 369 333 369 l 507 690 l 578 407 b 461 369 588 369 586 369 z "},"À":{"ha":1015,"x_min":0,"x_max":0,"o":"m 606 1047 b 674 1076 636 1047 674 1054 b 576 1197 674 1104 610 1168 b 457 1265 532 1236 493 1267 b 386 1185 421 1264 385 1228 b 606 1047 389 1097 522 1044 z m 175 0 b 249 40 214 0 244 7 b 233 183 257 94 176 78 l 260 231 b 446 268 281 268 281 268 b 624 224 613 268 613 268 l 632 192 b 560 44 660 82 568 103 b 625 0 554 11 575 0 l 879 0 b 963 44 936 0 957 11 b 881 192 971 101 910 78 l 690 932 b 636 972 682 960 665 972 l 464 972 b 411 931 436 972 415 960 b 436 783 403 874 488 878 l 110 183 b -31 40 56 85 -22 94 b 44 0 -35 8 -6 0 z m 461 369 b 358 415 333 369 333 369 l 507 690 l 578 407 b 461 369 588 369 586 369 z "},"Ā":{"ha":1015,"x_min":0,"x_max":0,"o":"m 713 1069 b 794 1125 782 1069 789 1075 b 728 1171 801 1163 792 1171 l 415 1171 b 340 1115 354 1171 349 1164 b 400 1069 335 1076 343 1069 z m 175 0 b 249 40 214 0 244 7 b 233 183 257 94 176 78 l 260 231 b 446 268 281 268 281 268 b 624 224 613 268 613 268 l 632 192 b 560 44 660 82 568 103 b 625 0 554 11 575 0 l 879 0 b 963 44 936 0 957 11 b 881 192 971 101 910 78 l 690 932 b 636 972 682 960 665 972 l 464 972 b 411 931 436 972 415 960 b 436 783 403 874 488 878 l 110 183 b -31 40 56 85 -22 94 b 44 0 -35 8 -6 0 z m 461 369 b 358 415 333 369 333 369 l 507 690 l 578 407 b 461 369 588 369 586 369 z "},"Ą":{"ha":1015,"x_min":0,"x_max":0,"o":"m 957 -169 b 908 -182 939 -178 922 -182 b 843 -115 864 -182 843 -151 b 894 0 843 -85 856 -47 b 963 44 940 3 957 14 b 881 192 971 101 910 78 l 690 932 b 636 972 682 960 665 972 l 464 972 b 411 931 436 972 415 960 b 436 783 403 874 488 878 l 110 183 b -31 40 56 85 -22 94 b 44 0 -35 8 -6 0 l 175 0 b 249 40 214 0 244 7 b 233 183 257 94 176 78 l 260 231 b 446 268 281 268 281 268 b 624 224 613 268 613 268 l 632 192 b 560 44 660 82 568 103 b 625 0 554 11 575 0 l 811 0 b 715 -143 746 -40 715 -92 b 856 -264 715 -214 771 -264 b 983 -211 908 -264 956 -242 b 957 -169 1006 -186 994 -151 z m 461 369 b 358 415 333 369 333 369 l 507 690 l 578 407 b 461 369 588 369 586 369 z "},"Å":{"ha":1015,"x_min":0,"x_max":0,"o":"m 575 1024 b 754 1174 663 1024 742 1082 b 622 1319 767 1263 707 1319 b 443 1169 533 1319 454 1260 b 575 1024 431 1082 489 1024 z m 593 1110 b 538 1172 558 1110 538 1135 b 606 1238 540 1211 567 1238 b 660 1176 640 1238 660 1213 b 593 1110 657 1139 632 1110 z m 175 0 b 249 40 214 0 244 7 b 233 183 257 94 176 78 l 260 231 b 446 268 281 268 281 268 b 624 224 613 268 613 268 l 632 192 b 560 44 660 82 568 103 b 625 0 554 11 575 0 l 879 0 b 963 44 936 0 957 11 b 881 192 971 101 910 78 l 690 932 b 636 972 682 960 665 972 l 464 972 b 411 931 436 972 415 960 b 436 783 403 874 488 878 l 110 183 b -31 40 56 85 -22 94 b 44 0 -35 8 -6 0 z m 461 369 b 358 415 333 369 333 369 l 507 690 l 578 407 b 461 369 588 369 586 369 z "},"Ã":{"ha":1015,"x_min":0,"x_max":0,"o":"m 693 1043 b 821 1146 775 1043 814 1099 b 772 1199 831 1214 778 1233 b 717 1157 768 1164 744 1157 b 488 1215 674 1157 563 1215 b 358 1111 404 1215 365 1158 b 408 1060 349 1044 403 1024 b 463 1101 411 1093 436 1101 b 693 1043 546 1101 621 1043 z m 175 0 b 249 40 214 0 244 7 b 233 183 257 94 176 78 l 260 231 b 446 268 281 268 281 268 b 624 224 613 268 613 268 l 632 192 b 560 44 660 82 568 103 b 625 0 554 11 575 0 l 879 0 b 963 44 936 0 957 11 b 881 192 971 101 910 78 l 690 932 b 636 972 682 960 665 972 l 464 972 b 411 931 436 972 415 960 b 436 783 403 874 488 878 l 110 183 b -31 40 56 85 -22 94 b 44 0 -35 8 -6 0 z m 461 369 b 358 415 333 369 333 369 l 507 690 l 578 407 b 461 369 588 369 586 369 z "},"Æ":{"ha":1335,"x_min":0,"x_max":0,"o":"m 211 0 b 251 32 242 0 249 8 b 229 65 254 53 243 58 b 214 156 171 97 197 133 l 250 203 b 411 244 275 238 290 244 l 583 244 l 572 196 b 461 44 549 93 469 110 b 535 0 456 13 475 0 l 1099 0 b 1226 63 1182 0 1207 18 b 1274 242 1243 103 1258 160 b 1250 314 1281 285 1282 306 b 1175 261 1226 319 1206 308 b 963 101 1111 160 1072 101 l 901 100 b 793 164 803 100 788 119 l 832 443 b 932 511 839 499 869 511 b 1117 372 1053 510 1040 357 b 1154 440 1146 379 1157 392 l 1143 618 b 1104 658 1142 640 1135 658 b 946 610 1053 658 1049 610 b 865 678 885 610 858 624 l 883 808 b 999 872 889 853 913 872 l 1057 872 b 1243 740 1147 872 1199 828 b 1310 703 1264 704 1282 693 b 1343 779 1338 711 1344 738 b 1326 921 1340 836 1335 883 b 1211 972 1317 964 1293 972 l 604 972 b 565 940 574 972 567 964 b 585 899 563 924 574 910 b 581 821 601 878 606 853 l 74 156 b -39 65 47 122 21 96 b -69 32 -53 58 -68 53 b -37 0 -72 8 -68 0 z m 474 349 b 392 397 383 349 372 371 l 651 749 l 597 349 z "},"B":{"ha":981,"x_min":0,"x_max":0,"o":"m 457 0 b 925 322 731 0 899 142 b 733 583 942 449 878 550 b 882 763 819 617 872 681 b 544 972 903 924 749 972 l 232 972 b 143 928 172 972 149 961 b 215 783 135 863 214 879 b 210 714 215 764 214 747 l 144 258 b 132 189 140 225 138 208 b 21 44 104 94 29 110 b 96 0 15 11 36 0 z m 494 621 b 431 653 469 621 425 618 l 457 833 b 508 872 460 863 483 872 b 653 731 611 872 665 806 b 494 621 643 657 588 621 z m 467 100 b 367 197 369 100 357 129 l 407 475 b 460 515 411 506 422 515 b 669 278 618 515 688 404 b 467 100 651 157 588 100 z "},"":{"ha":981,"x_min":0,"x_max":0,"o":"m 457 0 b 925 322 731 0 899 142 b 733 583 942 449 878 550 b 882 763 819 617 872 681 b 544 972 903 924 749 972 l 232 972 b 143 928 172 972 149 961 b 215 783 135 863 214 879 b 210 714 215 764 214 747 l 144 258 b 132 189 140 225 138 208 b 21 44 104 94 29 110 b 96 0 15 11 36 0 z m 494 621 b 431 653 469 621 425 618 l 457 833 b 508 872 460 863 483 872 b 653 731 611 872 665 806 b 494 621 643 657 588 621 z m 467 100 b 367 197 369 100 357 129 l 407 475 b 460 515 411 506 422 515 b 669 278 618 515 688 404 b 467 100 651 157 588 100 z "},"C":{"ha":983,"x_min":0,"x_max":0,"o":"m 499 -14 b 914 207 672 -14 839 79 b 867 256 943 253 908 294 b 594 126 776 174 692 126 b 322 569 382 126 290 338 b 631 885 347 753 467 885 b 856 710 753 885 804 801 b 926 643 882 663 894 643 b 972 713 963 643 971 669 b 965 913 972 797 969 858 b 915 985 961 972 940 985 b 839 961 885 985 875 961 b 664 986 808 961 753 986 b 74 497 371 986 114 781 b 499 -14 32 197 218 -14 z "},"Ć":{"ha":983,"x_min":0,"x_max":0,"o":"m 592 1047 b 811 1185 675 1044 810 1097 b 740 1265 813 1228 776 1264 b 621 1197 706 1267 667 1236 b 524 1076 589 1168 525 1104 b 592 1047 524 1054 561 1047 z m 499 -14 b 914 207 672 -14 839 79 b 867 256 943 253 908 294 b 594 126 776 174 692 126 b 322 569 382 126 290 338 b 631 885 347 753 467 885 b 856 710 753 885 804 801 b 926 643 882 663 894 643 b 972 713 963 643 971 669 b 965 913 972 797 969 858 b 915 985 961 972 940 985 b 839 961 885 985 875 961 b 664 986 808 961 753 986 b 74 497 371 986 114 781 b 499 -14 32 197 218 -14 z "},"Č":{"ha":983,"x_min":0,"x_max":0,"o":"m 611 1050 b 751 1133 672 1050 679 1072 b 844 1228 807 1183 844 1211 b 822 1250 846 1242 840 1250 b 631 1182 778 1250 686 1217 b 457 1250 582 1217 501 1250 b 426 1228 439 1250 429 1242 b 490 1138 424 1213 444 1188 b 611 1050 543 1076 550 1050 z m 499 -14 b 914 207 672 -14 839 79 b 867 256 943 253 908 294 b 594 126 776 174 692 126 b 322 569 382 126 290 338 b 631 885 347 753 467 885 b 856 710 753 885 804 801 b 926 643 882 663 894 643 b 972 713 963 643 971 669 b 965 913 972 797 969 858 b 915 985 961 972 940 985 b 839 961 885 985 875 961 b 664 986 808 961 753 986 b 74 497 371 986 114 781 b 499 -14 32 197 218 -14 z "},"Ç":{"ha":983,"x_min":0,"x_max":0,"o":"m 965 913 b 915 985 961 972 940 985 b 839 961 885 985 875 961 b 664 986 808 961 753 986 b 74 497 371 986 114 781 b 428 -10 36 224 188 24 l 383 -93 b 400 -121 375 -108 386 -118 b 489 -187 438 -129 489 -142 b 432 -237 489 -214 469 -237 b 378 -221 411 -237 393 -231 b 343 -251 346 -201 325 -229 b 464 -300 363 -276 404 -300 b 604 -181 543 -300 604 -251 b 474 -69 604 -111 543 -81 l 504 -14 b 914 207 675 -12 840 81 b 867 256 943 253 908 294 b 594 126 776 174 692 126 b 322 569 382 126 290 338 b 631 885 347 753 467 885 b 856 710 753 885 804 801 b 926 643 882 663 894 643 b 972 713 963 643 971 669 b 965 913 972 797 969 858 z "},"Ċ":{"ha":983,"x_min":0,"x_max":0,"o":"m 578 1049 b 742 1193 658 1049 740 1115 b 642 1288 742 1247 697 1288 b 483 1140 563 1289 483 1213 b 578 1049 482 1092 517 1049 z m 499 -14 b 914 207 672 -14 839 79 b 867 256 943 253 908 294 b 594 126 776 174 692 126 b 322 569 382 126 290 338 b 631 885 347 753 467 885 b 856 710 753 885 804 801 b 926 643 882 663 894 643 b 972 713 963 643 971 669 b 965 913 972 797 969 858 b 915 985 961 972 940 985 b 839 961 885 985 875 961 b 664 986 808 961 753 986 b 74 497 371 986 114 781 b 499 -14 32 197 218 -14 z "},"D":{"ha":1079,"x_min":0,"x_max":0,"o":"m 482 0 b 1063 504 799 0 1022 222 b 586 972 1096 740 965 972 l 232 972 b 143 928 172 972 149 961 b 215 783 135 863 214 879 b 210 714 215 764 214 747 l 144 258 b 132 189 140 225 138 208 b 21 44 104 94 29 110 b 96 0 15 11 36 0 z m 479 93 b 365 179 367 93 357 128 l 454 821 b 536 882 463 872 483 882 b 811 418 731 882 849 681 b 479 93 783 218 672 93 z "},"Ď":{"ha":1079,"x_min":0,"x_max":0,"o":"m 560 1050 b 700 1133 621 1050 628 1072 b 793 1228 756 1183 793 1211 b 771 1250 794 1242 789 1250 b 579 1182 726 1250 635 1217 b 406 1250 531 1217 450 1250 b 375 1228 388 1250 378 1242 b 439 1138 372 1213 393 1188 b 560 1050 492 1076 499 1050 z m 482 0 b 1063 504 799 0 1022 222 b 586 972 1096 740 965 972 l 232 972 b 143 928 172 972 149 961 b 215 783 135 863 214 879 b 210 714 215 764 214 747 l 144 258 b 132 189 140 225 138 208 b 21 44 104 94 29 110 b 96 0 15 11 36 0 z m 479 93 b 365 179 367 93 357 128 l 454 821 b 536 882 463 872 483 882 b 811 418 731 882 849 681 b 479 93 783 218 672 93 z "},"Đ":{"ha":1079,"x_min":0,"x_max":0,"o":"m 232 972 b 143 928 172 972 149 961 b 215 783 135 863 214 879 b 210 714 215 764 214 747 l 185 536 l 147 536 b 100 496 119 536 103 521 b 132 435 94 456 94 435 l 169 435 l 144 258 b 132 189 140 225 138 208 b 21 44 104 94 29 110 b 96 0 15 11 36 0 l 482 0 b 1063 504 799 0 1022 222 b 586 972 1096 740 965 972 z m 811 418 b 479 93 783 218 672 93 b 365 179 367 93 357 128 l 400 435 l 485 435 b 535 496 519 435 528 451 b 499 536 538 521 526 536 l 415 536 l 454 821 b 536 882 463 872 483 882 b 811 418 731 882 849 681 z "},"Ð":{"ha":1079,"x_min":0,"x_max":0,"o":"m 232 972 b 143 928 172 972 149 961 b 215 783 135 863 214 879 b 210 714 215 764 214 747 l 185 536 l 147 536 b 100 496 119 536 103 521 b 132 435 94 456 94 435 l 169 435 l 144 258 b 132 189 140 225 138 208 b 21 44 104 94 29 110 b 96 0 15 11 36 0 l 482 0 b 1063 504 799 0 1022 222 b 586 972 1096 740 965 972 z m 811 418 b 479 93 783 218 672 93 b 365 179 367 93 357 128 l 400 435 l 485 435 b 535 496 519 435 528 451 b 499 536 538 521 526 536 l 415 536 l 454 821 b 536 882 463 872 483 882 b 811 418 731 882 849 681 z "},"E":{"ha":904,"x_min":0,"x_max":0,"o":"m 668 0 b 796 63 750 0 776 18 b 843 242 813 103 828 160 b 819 314 850 285 851 306 b 744 261 796 319 774 308 b 556 101 681 160 640 101 l 471 100 b 363 164 372 100 356 119 l 401 443 b 501 511 408 499 439 511 b 686 372 622 510 610 357 b 722 440 715 379 728 392 l 713 618 b 674 658 710 640 704 658 b 515 610 622 658 617 610 b 435 678 454 610 426 624 l 453 808 b 568 872 460 853 482 872 l 626 872 b 813 740 717 872 768 828 b 878 703 833 704 851 693 b 913 779 907 711 914 738 b 894 921 910 836 903 883 b 781 972 886 964 863 972 l 232 972 b 144 928 174 972 149 961 b 210 714 133 844 236 906 l 144 258 b 19 44 118 67 31 128 b 94 0 15 11 35 0 z "},"":{"ha":904,"x_min":0,"x_max":0,"o":"m 668 0 b 796 63 750 0 776 18 b 843 242 813 103 828 160 b 819 314 850 285 851 306 b 744 261 796 319 774 308 b 556 101 681 160 640 101 l 471 100 b 363 164 372 100 356 119 l 401 443 b 501 511 408 499 439 511 b 686 372 622 510 610 357 b 722 440 715 379 728 392 l 713 618 b 674 658 710 640 704 658 b 515 610 622 658 617 610 b 435 678 454 610 426 624 l 453 808 b 568 872 460 853 482 872 l 626 872 b 813 740 717 872 768 828 b 878 703 833 704 851 693 b 913 779 907 711 914 738 b 894 921 910 836 903 883 b 781 972 886 964 863 972 l 232 972 b 144 928 174 972 149 961 b 210 714 133 844 236 906 l 144 258 b 19 44 118 67 31 128 b 94 0 15 11 35 0 z "},"É":{"ha":904,"x_min":0,"x_max":0,"o":"m 511 1047 b 731 1185 594 1044 729 1097 b 660 1265 732 1228 696 1264 b 540 1197 625 1267 586 1236 b 443 1076 508 1168 444 1104 b 511 1047 443 1054 481 1047 z m 668 0 b 796 63 750 0 776 18 b 843 242 813 103 828 160 b 819 314 850 285 851 306 b 744 261 796 319 774 308 b 556 101 681 160 640 101 l 471 100 b 363 164 372 100 356 119 l 401 443 b 501 511 408 499 439 511 b 686 372 622 510 610 357 b 722 440 715 379 728 392 l 713 618 b 674 658 710 640 704 658 b 515 610 622 658 617 610 b 435 678 454 610 426 624 l 453 808 b 568 872 460 853 482 872 l 626 872 b 813 740 717 872 768 828 b 878 703 833 704 851 693 b 913 779 907 711 914 738 b 894 921 910 836 903 883 b 781 972 886 964 863 972 l 232 972 b 144 928 174 972 149 961 b 210 714 133 844 236 906 l 144 258 b 19 44 118 67 31 128 b 94 0 15 11 35 0 z "},"Ě":{"ha":904,"x_min":0,"x_max":0,"o":"m 544 1050 b 685 1133 606 1050 613 1072 b 778 1228 740 1183 778 1211 b 756 1250 779 1242 774 1250 b 564 1182 711 1250 619 1217 b 390 1250 515 1217 435 1250 b 360 1228 372 1250 363 1242 b 424 1138 357 1213 378 1188 b 544 1050 476 1076 483 1050 z m 668 0 b 796 63 750 0 776 18 b 843 242 813 103 828 160 b 819 314 850 285 851 306 b 744 261 796 319 774 308 b 556 101 681 160 640 101 l 471 100 b 363 164 372 100 356 119 l 401 443 b 501 511 408 499 439 511 b 686 372 622 510 610 357 b 722 440 715 379 728 392 l 713 618 b 674 658 710 640 704 658 b 515 610 622 658 617 610 b 435 678 454 610 426 624 l 453 808 b 568 872 460 853 482 872 l 626 872 b 813 740 717 872 768 828 b 878 703 833 704 851 693 b 913 779 907 711 914 738 b 894 921 910 836 903 883 b 781 972 886 964 863 972 l 232 972 b 144 928 174 972 149 961 b 210 714 133 844 236 906 l 144 258 b 19 44 118 67 31 128 b 94 0 15 11 35 0 z "},"Ê":{"ha":904,"x_min":0,"x_max":0,"o":"m 344 1040 b 538 1110 389 1040 481 1075 b 711 1040 585 1075 665 1040 b 739 1064 728 1042 738 1050 b 672 1158 743 1081 715 1108 b 557 1242 618 1218 618 1242 b 411 1154 496 1242 481 1214 b 321 1064 351 1103 324 1079 b 344 1040 321 1050 326 1042 z m 668 0 b 796 63 750 0 776 18 b 843 242 813 103 828 160 b 819 314 850 285 851 306 b 744 261 796 319 774 308 b 556 101 681 160 640 101 l 471 100 b 363 164 372 100 356 119 l 401 443 b 501 511 408 499 439 511 b 686 372 622 510 610 357 b 722 440 715 379 728 392 l 713 618 b 674 658 710 640 704 658 b 515 610 622 658 617 610 b 435 678 454 610 426 624 l 453 808 b 568 872 460 853 482 872 l 626 872 b 813 740 717 872 768 828 b 878 703 833 704 851 693 b 913 779 907 711 914 738 b 894 921 910 836 903 883 b 781 972 886 964 863 972 l 232 972 b 144 928 174 972 149 961 b 210 714 133 844 236 906 l 144 258 b 19 44 118 67 31 128 b 94 0 15 11 35 0 z "},"Ë":{"ha":904,"x_min":0,"x_max":0,"o":"m 422 1057 b 536 1160 483 1057 536 1099 b 453 1242 536 1210 503 1242 b 346 1131 390 1242 346 1188 b 422 1057 346 1086 381 1057 z m 665 1057 b 778 1160 725 1057 778 1099 b 693 1242 778 1210 743 1242 b 586 1131 633 1242 586 1188 b 665 1057 586 1086 621 1057 z m 668 0 b 796 63 750 0 776 18 b 843 242 813 103 828 160 b 819 314 850 285 851 306 b 744 261 796 319 774 308 b 556 101 681 160 640 101 l 471 100 b 363 164 372 100 356 119 l 401 443 b 501 511 408 499 439 511 b 686 372 622 510 610 357 b 722 440 715 379 728 392 l 713 618 b 674 658 710 640 704 658 b 515 610 622 658 617 610 b 435 678 454 610 426 624 l 453 808 b 568 872 460 853 482 872 l 626 872 b 813 740 717 872 768 828 b 878 703 833 704 851 693 b 913 779 907 711 914 738 b 894 921 910 836 903 883 b 781 972 886 964 863 972 l 232 972 b 144 928 174 972 149 961 b 210 714 133 844 236 906 l 144 258 b 19 44 118 67 31 128 b 94 0 15 11 35 0 z "},"Ė":{"ha":904,"x_min":0,"x_max":0,"o":"m 546 1049 b 710 1193 626 1049 708 1115 b 610 1288 710 1247 665 1288 b 451 1140 531 1289 451 1213 b 546 1049 450 1092 485 1049 z m 668 0 b 796 63 750 0 776 18 b 843 242 813 103 828 160 b 819 314 850 285 851 306 b 744 261 796 319 774 308 b 556 101 681 160 640 101 l 471 100 b 363 164 372 100 356 119 l 401 443 b 501 511 408 499 439 511 b 686 372 622 510 610 357 b 722 440 715 379 728 392 l 713 618 b 674 658 710 640 704 658 b 515 610 622 658 617 610 b 435 678 454 610 426 624 l 453 808 b 568 872 460 853 482 872 l 626 872 b 813 740 717 872 768 828 b 878 703 833 704 851 693 b 913 779 907 711 914 738 b 894 921 910 836 903 883 b 781 972 886 964 863 972 l 232 972 b 144 928 174 972 149 961 b 210 714 133 844 236 906 l 144 258 b 19 44 118 67 31 128 b 94 0 15 11 35 0 z "},"È":{"ha":904,"x_min":0,"x_max":0,"o":"m 554 1047 b 622 1076 585 1047 622 1054 b 525 1197 622 1104 558 1168 b 406 1265 481 1236 442 1267 b 335 1185 369 1264 333 1228 b 554 1047 338 1097 471 1044 z m 668 0 b 796 63 750 0 776 18 b 843 242 813 103 828 160 b 819 314 850 285 851 306 b 744 261 796 319 774 308 b 556 101 681 160 640 101 l 471 100 b 363 164 372 100 356 119 l 401 443 b 501 511 408 499 439 511 b 686 372 622 510 610 357 b 722 440 715 379 728 392 l 713 618 b 674 658 710 640 704 658 b 515 610 622 658 617 610 b 435 678 454 610 426 624 l 453 808 b 568 872 460 853 482 872 l 626 872 b 813 740 717 872 768 828 b 878 703 833 704 851 693 b 913 779 907 711 914 738 b 894 921 910 836 903 883 b 781 972 886 964 863 972 l 232 972 b 144 928 174 972 149 961 b 210 714 133 844 236 906 l 144 258 b 19 44 118 67 31 128 b 94 0 15 11 35 0 z "},"Ē":{"ha":904,"x_min":0,"x_max":0,"o":"m 661 1069 b 743 1125 731 1069 738 1075 b 676 1171 750 1163 740 1171 l 364 1171 b 289 1115 303 1171 297 1164 b 349 1069 283 1076 292 1069 z m 668 0 b 796 63 750 0 776 18 b 843 242 813 103 828 160 b 819 314 850 285 851 306 b 744 261 796 319 774 308 b 556 101 681 160 640 101 l 471 100 b 363 164 372 100 356 119 l 401 443 b 501 511 408 499 439 511 b 686 372 622 510 610 357 b 722 440 715 379 728 392 l 713 618 b 674 658 710 640 704 658 b 515 610 622 658 617 610 b 435 678 454 610 426 624 l 453 808 b 568 872 460 853 482 872 l 626 872 b 813 740 717 872 768 828 b 878 703 833 704 851 693 b 913 779 907 711 914 738 b 894 921 910 836 903 883 b 781 972 886 964 863 972 l 232 972 b 144 928 174 972 149 961 b 210 714 133 844 236 906 l 144 258 b 19 44 118 67 31 128 b 94 0 15 11 35 0 z "},"Ę":{"ha":904,"x_min":0,"x_max":0,"o":"m 913 779 b 894 921 910 836 903 883 b 781 972 886 964 863 972 l 232 972 b 144 928 174 972 149 961 b 210 714 133 844 236 906 l 144 258 b 19 44 118 67 31 128 b 94 0 15 11 35 0 l 617 0 b 521 -143 551 -40 521 -92 b 661 -264 521 -214 576 -264 b 789 -211 714 -264 761 -242 b 763 -169 811 -186 800 -151 b 714 -182 744 -178 728 -182 b 649 -115 669 -182 649 -151 b 700 1 649 -85 661 -47 b 796 63 757 6 779 25 b 843 242 813 103 828 160 b 819 314 850 285 851 306 b 744 261 796 319 774 308 b 556 101 681 160 640 101 l 471 100 b 363 164 372 100 356 119 l 401 443 b 501 511 408 499 439 511 b 686 372 622 510 610 357 b 722 440 715 379 728 392 l 713 618 b 674 658 710 640 704 658 b 515 610 622 658 617 610 b 435 678 454 610 426 624 l 453 808 b 568 872 460 853 482 872 l 626 872 b 813 740 717 872 768 828 b 878 703 833 704 851 693 b 913 779 907 711 914 738 z "},"F":{"ha":904,"x_min":0,"x_max":0,"o":"m 915 779 b 899 921 913 836 907 883 b 783 972 889 964 865 972 l 232 972 b 144 928 174 972 149 961 b 210 714 133 844 236 906 l 144 247 b 19 44 119 78 29 119 b 94 0 15 11 35 0 l 349 0 b 438 44 411 0 433 11 b 374 247 447 119 349 78 l 400 431 b 497 499 407 488 439 499 l 517 499 b 701 360 639 499 626 343 b 739 428 732 367 743 379 l 728 606 b 689 646 726 626 719 646 b 531 597 638 646 633 597 l 510 597 b 432 665 453 597 425 610 l 454 814 b 568 872 460 853 482 872 l 632 872 b 815 740 719 872 771 828 b 882 703 836 704 854 693 b 915 779 910 711 917 738 z "},"G":{"ha":1064,"x_min":0,"x_max":0,"o":"m 493 -14 b 946 201 740 -14 933 99 l 961 308 b 1039 472 978 435 1032 415 b 975 517 1043 506 1024 517 l 701 514 b 614 468 640 514 619 501 b 731 307 606 399 751 442 l 714 190 b 561 100 704 126 617 100 b 318 568 364 100 279 297 b 613 886 343 747 449 886 b 851 711 746 885 808 801 b 915 644 874 663 886 643 b 958 713 946 644 954 669 b 958 913 965 797 963 858 b 908 985 956 972 933 985 b 832 961 878 985 868 961 b 638 986 803 961 747 986 b 69 468 356 986 110 753 b 493 -14 29 178 204 -14 z "},"Ğ":{"ha":1064,"x_min":0,"x_max":0,"o":"m 643 1047 b 878 1238 764 1047 863 1126 b 858 1283 882 1265 875 1283 b 825 1263 849 1283 840 1278 b 664 1188 774 1208 731 1188 b 521 1263 596 1188 557 1208 b 492 1283 511 1278 503 1283 b 461 1238 476 1283 464 1265 b 643 1047 446 1131 518 1047 z m 493 -14 b 946 201 740 -14 933 99 l 961 308 b 1039 472 978 435 1032 415 b 975 517 1043 506 1024 517 l 701 514 b 614 468 640 514 619 501 b 731 307 606 399 751 442 l 714 190 b 561 100 704 126 617 100 b 318 568 364 100 279 297 b 613 886 343 747 449 886 b 851 711 746 885 808 801 b 915 644 874 663 886 643 b 958 713 946 644 954 669 b 958 913 965 797 963 858 b 908 985 956 972 933 985 b 832 961 878 985 868 961 b 638 986 803 961 747 986 b 69 468 356 986 110 753 b 493 -14 29 178 204 -14 z "},"Ġ":{"ha":1064,"x_min":0,"x_max":0,"o":"m 613 1049 b 776 1193 693 1049 775 1115 b 676 1288 776 1247 732 1288 b 518 1140 597 1289 518 1213 b 613 1049 517 1092 551 1049 z m 493 -14 b 946 201 740 -14 933 99 l 961 308 b 1039 472 978 435 1032 415 b 975 517 1043 506 1024 517 l 701 514 b 614 468 640 514 619 501 b 731 307 606 399 751 442 l 714 190 b 561 100 704 126 617 100 b 318 568 364 100 279 297 b 613 886 343 747 449 886 b 851 711 746 885 808 801 b 915 644 874 663 886 643 b 958 713 946 644 954 669 b 958 913 965 797 963 858 b 908 985 956 972 933 985 b 832 961 878 985 868 961 b 638 986 803 961 747 986 b 69 468 356 986 110 753 b 493 -14 29 178 204 -14 z "},"H":{"ha":1183,"x_min":0,"x_max":0,"o":"m 349 0 b 438 44 411 0 432 11 b 368 189 446 117 368 85 b 372 244 368 208 369 225 l 394 397 b 608 465 403 465 403 465 b 806 397 815 465 815 465 l 785 244 b 772 189 782 225 778 208 b 661 44 746 94 671 110 b 736 0 657 11 678 0 l 992 0 b 1079 44 1053 0 1074 11 b 1011 189 1089 117 1010 85 b 1015 244 1011 208 1013 225 l 1082 728 b 1094 783 1085 747 1089 764 b 1206 928 1121 879 1196 863 b 1131 972 1210 961 1189 972 l 875 972 b 788 928 814 972 793 961 b 856 783 778 856 857 888 b 851 728 856 764 854 747 l 839 635 b 624 567 829 567 829 567 b 426 635 417 567 417 567 l 440 728 b 451 783 442 747 446 764 b 563 928 479 879 554 863 b 488 972 568 961 547 972 l 233 972 b 146 928 171 972 150 961 b 214 783 136 856 214 888 b 210 728 214 764 213 747 l 143 244 b 131 189 140 225 136 208 b 19 44 103 94 28 110 b 94 0 14 11 35 0 z "},"Ħ":{"ha":1183,"x_min":0,"x_max":0,"o":"m 875 972 b 788 928 814 972 793 961 b 856 783 778 856 857 888 l 856 772 l 449 772 b 451 783 449 776 450 779 b 563 928 479 879 554 863 b 488 972 568 961 547 972 l 233 972 b 146 928 171 972 150 961 b 214 783 136 856 214 888 l 214 772 l 176 772 b 138 732 151 772 138 757 l 138 711 b 176 671 138 686 151 671 l 201 671 l 143 244 b 131 189 140 225 136 208 b 19 44 103 94 28 110 b 94 0 14 11 35 0 l 349 0 b 438 44 411 0 432 11 b 368 189 446 117 368 85 b 372 244 368 208 369 225 l 394 397 b 608 465 403 465 403 465 b 806 397 815 465 815 465 l 785 244 b 772 189 782 225 778 208 b 661 44 746 94 671 110 b 736 0 657 11 678 0 l 992 0 b 1079 44 1053 0 1074 11 b 1011 189 1089 117 1010 85 b 1015 244 1011 208 1013 225 l 1074 671 l 1138 671 b 1176 711 1163 671 1176 686 l 1176 732 b 1138 772 1176 757 1163 772 l 1092 772 b 1094 783 1092 776 1093 779 b 1206 928 1121 879 1196 863 b 1131 972 1210 961 1189 972 z m 839 635 b 624 567 829 567 829 567 b 426 635 417 567 417 567 l 432 671 l 843 671 z "},"I":{"ha":540,"x_min":0,"x_max":0,"o":"m 349 0 b 438 44 411 0 432 11 b 368 189 446 117 368 85 b 372 244 368 208 369 225 l 440 728 b 451 783 442 747 446 764 b 563 928 479 879 554 863 b 488 972 568 961 547 972 l 233 972 b 146 928 171 972 150 961 b 214 783 136 856 214 888 b 210 728 214 764 213 747 l 143 244 b 131 189 140 225 136 208 b 19 44 103 94 28 110 b 94 0 14 11 35 0 z "},"Í":{"ha":540,"x_min":0,"x_max":0,"o":"m 358 1047 b 578 1185 442 1044 576 1097 b 507 1265 579 1228 543 1264 b 388 1197 472 1267 433 1236 b 290 1076 356 1168 292 1104 b 358 1047 290 1054 328 1047 z m 349 0 b 438 44 411 0 432 11 b 368 189 446 117 368 85 b 372 244 368 208 369 225 l 440 728 b 451 783 442 747 446 764 b 563 928 479 879 554 863 b 488 972 568 961 547 972 l 233 972 b 146 928 171 972 150 961 b 214 783 136 856 214 888 b 210 728 214 764 213 747 l 143 244 b 131 189 140 225 136 208 b 19 44 103 94 28 110 b 94 0 14 11 35 0 z "},"Î":{"ha":540,"x_min":0,"x_max":0,"o":"m 193 1040 b 386 1110 238 1040 329 1075 b 560 1040 433 1075 514 1040 b 588 1064 576 1042 586 1050 b 521 1158 592 1081 564 1108 b 406 1242 467 1218 467 1242 b 260 1154 344 1242 329 1214 b 169 1064 200 1103 172 1079 b 193 1040 169 1050 175 1042 z m 349 0 b 438 44 411 0 432 11 b 368 189 446 117 368 85 b 372 244 368 208 369 225 l 440 728 b 451 783 442 747 446 764 b 563 928 479 879 554 863 b 488 972 568 961 547 972 l 233 972 b 146 928 171 972 150 961 b 214 783 136 856 214 888 b 210 728 214 764 213 747 l 143 244 b 131 189 140 225 136 208 b 19 44 103 94 28 110 b 94 0 14 11 35 0 z "},"Ï":{"ha":540,"x_min":0,"x_max":0,"o":"m 269 1057 b 383 1160 331 1057 383 1099 b 300 1242 383 1210 350 1242 b 193 1131 238 1242 193 1188 b 269 1057 193 1086 228 1057 z m 513 1057 b 625 1160 572 1057 625 1099 b 540 1242 625 1210 590 1242 b 433 1131 481 1242 433 1188 b 513 1057 433 1086 468 1057 z m 349 0 b 438 44 411 0 432 11 b 368 189 446 117 368 85 b 372 244 368 208 369 225 l 440 728 b 451 783 442 747 446 764 b 563 928 479 879 554 863 b 488 972 568 961 547 972 l 233 972 b 146 928 171 972 150 961 b 214 783 136 856 214 888 b 210 728 214 764 213 747 l 143 244 b 131 189 140 225 136 208 b 19 44 103 94 28 110 b 94 0 14 11 35 0 z "},"İ":{"ha":540,"x_min":0,"x_max":0,"o":"m 368 1049 b 532 1193 449 1049 531 1115 b 432 1288 532 1247 488 1288 b 274 1140 353 1289 274 1213 b 368 1049 272 1092 307 1049 z m 349 0 b 438 44 411 0 432 11 b 368 189 446 117 368 85 b 372 244 368 208 369 225 l 440 728 b 451 783 442 747 446 764 b 563 928 479 879 554 863 b 488 972 568 961 547 972 l 233 972 b 146 928 171 972 150 961 b 214 783 136 856 214 888 b 210 728 214 764 213 747 l 143 244 b 131 189 140 225 136 208 b 19 44 103 94 28 110 b 94 0 14 11 35 0 z "},"Ì":{"ha":540,"x_min":0,"x_max":0,"o":"m 401 1047 b 469 1076 432 1047 469 1054 b 372 1197 469 1104 406 1168 b 253 1265 328 1236 289 1267 b 182 1185 217 1264 181 1228 b 401 1047 185 1097 318 1044 z m 349 0 b 438 44 411 0 432 11 b 368 189 446 117 368 85 b 372 244 368 208 369 225 l 440 728 b 451 783 442 747 446 764 b 563 928 479 879 554 863 b 488 972 568 961 547 972 l 233 972 b 146 928 171 972 150 961 b 214 783 136 856 214 888 b 210 728 214 764 213 747 l 143 244 b 131 189 140 225 136 208 b 19 44 103 94 28 110 b 94 0 14 11 35 0 z "},"Ī":{"ha":540,"x_min":0,"x_max":0,"o":"m 508 1069 b 590 1125 578 1069 585 1075 b 524 1171 597 1163 588 1171 l 211 1171 b 136 1115 150 1171 144 1164 b 196 1069 131 1076 139 1069 z m 349 0 b 438 44 411 0 432 11 b 368 189 446 117 368 85 b 372 244 368 208 369 225 l 440 728 b 451 783 442 747 446 764 b 563 928 479 879 554 863 b 488 972 568 961 547 972 l 233 972 b 146 928 171 972 150 961 b 214 783 136 856 214 888 b 210 728 214 764 213 747 l 143 244 b 131 189 140 225 136 208 b 19 44 103 94 28 110 b 94 0 14 11 35 0 z "},"Į":{"ha":540,"x_min":0,"x_max":0,"o":"m 233 972 b 146 928 171 972 150 961 b 214 783 136 856 214 888 b 210 728 214 764 213 747 l 143 244 b 131 189 140 225 136 208 b 19 44 103 94 28 110 b 94 0 14 11 35 0 l 294 0 b 199 -143 229 -40 199 -92 b 339 -264 199 -214 254 -264 b 467 -211 392 -264 439 -242 b 440 -169 489 -186 478 -151 b 392 -182 422 -178 406 -182 b 326 -115 347 -182 326 -151 b 378 1 326 -85 339 -47 b 438 44 418 4 433 17 b 368 189 446 117 368 85 b 372 244 368 208 369 225 l 440 728 b 451 783 442 747 446 764 b 563 928 479 879 554 863 b 488 972 568 961 547 972 z "},"J":{"ha":782,"x_min":0,"x_max":0,"o":"m 256 -14 b 657 418 554 -14 625 176 l 697 728 b 710 783 700 747 704 764 b 819 928 736 879 811 863 b 746 972 825 961 804 972 l 490 972 b 403 928 428 972 407 961 b 471 783 392 856 471 888 b 467 728 471 764 469 747 l 408 311 b 285 99 389 172 347 99 b 215 235 229 99 215 150 b 125 332 215 289 189 332 b 8 225 72 332 19 299 b 256 -14 -8 101 69 -14 z "},"K":{"ha":1076,"x_min":0,"x_max":0,"o":"m 803 972 b 733 928 760 972 739 961 b 740 794 726 875 832 871 l 411 525 l 440 728 b 564 928 461 878 553 850 b 488 972 568 961 547 972 l 233 972 b 146 928 171 972 150 961 b 211 728 133 843 233 897 l 142 244 b 19 44 121 94 29 122 b 94 0 14 13 35 0 l 349 0 b 438 44 411 0 432 13 b 372 244 449 129 349 75 l 392 385 l 600 556 l 711 197 b 650 44 739 108 657 99 b 725 0 644 11 665 0 l 968 0 b 1053 44 1028 0 1049 11 b 951 213 1063 114 993 88 l 792 713 l 892 794 b 1074 928 1013 892 1065 863 b 997 972 1079 961 1053 972 z "},"L":{"ha":835,"x_min":0,"x_max":0,"o":"m 615 0 b 742 63 699 0 725 18 b 789 240 758 103 776 160 b 763 308 797 282 792 308 b 703 258 740 308 722 290 b 515 101 639 160 601 101 l 453 100 b 361 163 372 100 356 119 l 440 728 b 451 783 442 747 446 764 b 563 928 479 878 554 863 b 488 972 568 961 547 972 l 233 972 b 144 928 171 972 150 961 b 214 783 135 856 214 888 b 210 728 214 764 213 747 l 144 258 b 131 189 140 225 136 208 b 19 44 103 94 28 110 b 94 0 14 11 35 0 z "},"Ĺ":{"ha":835,"x_min":0,"x_max":0,"o":"m 354 1047 b 574 1185 438 1044 572 1097 b 503 1265 575 1228 539 1264 b 383 1197 468 1267 429 1236 b 286 1076 351 1168 288 1104 b 354 1047 286 1054 324 1047 z m 615 0 b 742 63 699 0 725 18 b 789 240 758 103 776 160 b 763 308 797 282 792 308 b 703 258 740 308 722 290 b 515 101 639 160 601 101 l 453 100 b 361 163 372 100 356 119 l 440 728 b 451 783 442 747 446 764 b 563 928 479 878 554 863 b 488 972 568 961 547 972 l 233 972 b 144 928 171 972 150 961 b 214 783 135 856 214 888 b 210 728 214 764 213 747 l 144 258 b 131 189 140 225 136 208 b 19 44 103 94 28 110 b 94 0 14 11 35 0 z "},"Ľ":{"ha":835,"x_min":0,"x_max":0,"o":"m 583 644 b 765 903 636 644 753 824 b 700 985 772 950 747 985 b 614 903 661 985 631 960 b 561 678 608 882 578 743 b 583 644 556 656 567 644 z m 615 0 b 742 63 699 0 725 18 b 789 240 758 103 776 160 b 763 308 797 282 792 308 b 703 258 740 308 722 290 b 515 101 639 160 601 101 l 453 100 b 361 163 372 100 356 119 l 440 728 b 451 783 442 747 446 764 b 563 928 479 878 554 863 b 488 972 568 961 547 972 l 233 972 b 144 928 171 972 150 961 b 214 783 135 856 214 888 b 210 728 214 764 213 747 l 144 258 b 131 189 140 225 136 208 b 19 44 103 94 28 110 b 94 0 14 11 35 0 z "},"Ł":{"ha":835,"x_min":0,"x_max":0,"o":"m 763 308 b 703 258 740 308 722 290 b 515 101 639 160 601 101 l 453 100 b 361 163 372 100 356 119 l 408 500 l 529 569 b 539 631 558 586 556 604 b 479 656 521 663 501 667 l 426 625 l 440 728 b 451 783 442 747 446 764 b 563 928 479 878 554 863 b 488 972 568 961 547 972 l 233 972 b 144 928 171 972 150 961 b 214 783 135 856 214 888 b 210 728 214 764 213 747 l 175 481 l 85 428 b 76 365 61 415 57 397 b 133 343 93 335 113 331 l 158 357 l 144 258 b 131 189 140 225 136 208 b 19 44 103 94 28 110 b 94 0 14 11 35 0 l 615 0 b 742 63 699 0 725 18 b 789 240 758 103 776 160 b 763 308 797 282 792 308 z "},"M":{"ha":1315,"x_min":0,"x_max":0,"o":"m 217 0 b 288 39 261 0 283 7 b 236 176 294 89 221 89 l 324 685 l 493 82 b 549 56 500 61 515 49 b 611 100 581 63 596 74 l 972 694 l 914 221 b 808 44 899 94 819 122 b 883 0 803 11 824 0 l 1128 0 b 1214 44 1189 0 1208 11 b 1138 221 1226 129 1125 88 l 1197 779 b 1300 928 1208 881 1292 863 b 1233 972 1306 961 1286 972 l 1057 972 b 992 932 1028 972 1008 960 l 653 378 l 492 933 b 436 972 483 960 465 972 l 250 972 b 171 928 197 972 175 961 b 233 779 161 863 253 879 l 121 176 b 17 40 104 89 24 88 b 79 0 13 10 29 0 z "},"N":{"ha":1068,"x_min":0,"x_max":0,"o":"m 186 0 b 257 39 231 0 253 7 b 200 176 264 89 189 89 l 271 693 l 749 140 b 783 47 778 107 789 83 b 821 0 778 10 794 0 l 856 0 b 901 53 882 0 896 15 l 1006 796 b 1101 932 1018 883 1094 886 b 1039 972 1106 963 1089 972 l 901 972 b 831 933 857 972 835 965 b 888 796 824 883 899 883 l 835 415 l 389 933 b 315 972 369 957 350 972 l 179 972 b 92 928 121 972 97 961 b 158 726 81 854 178 897 l 82 176 b -14 40 71 89 -7 88 b 50 0 -18 10 -1 0 z "},"Ń":{"ha":1068,"x_min":0,"x_max":0,"o":"m 596 1047 b 815 1185 679 1044 814 1097 b 744 1265 817 1228 781 1264 b 625 1197 710 1267 671 1236 b 528 1076 593 1168 529 1104 b 596 1047 528 1054 565 1047 z m 186 0 b 257 39 231 0 253 7 b 200 176 264 89 189 89 l 271 693 l 749 140 b 783 47 778 107 789 83 b 821 0 778 10 794 0 l 856 0 b 901 53 882 0 896 15 l 1006 796 b 1101 932 1018 883 1094 886 b 1039 972 1106 963 1089 972 l 901 972 b 831 933 857 972 835 965 b 888 796 824 883 899 883 l 835 415 l 389 933 b 315 972 369 957 350 972 l 179 972 b 92 928 121 972 97 961 b 158 726 81 854 178 897 l 82 176 b -14 40 71 89 -7 88 b 50 0 -18 10 -1 0 z "},"Ň":{"ha":1068,"x_min":0,"x_max":0,"o":"m 615 1050 b 756 1133 676 1050 683 1072 b 849 1228 811 1183 849 1211 b 826 1250 850 1242 844 1250 b 635 1182 782 1250 690 1217 b 461 1250 586 1217 506 1250 b 431 1228 443 1250 433 1242 b 494 1138 428 1213 449 1188 b 615 1050 547 1076 554 1050 z m 186 0 b 257 39 231 0 253 7 b 200 176 264 89 189 89 l 271 693 l 749 140 b 783 47 778 107 789 83 b 821 0 778 10 794 0 l 856 0 b 901 53 882 0 896 15 l 1006 796 b 1101 932 1018 883 1094 886 b 1039 972 1106 963 1089 972 l 901 972 b 831 933 857 972 835 965 b 888 796 824 883 899 883 l 835 415 l 389 933 b 315 972 369 957 350 972 l 179 972 b 92 928 121 972 97 961 b 158 726 81 854 178 897 l 82 176 b -14 40 71 89 -7 88 b 50 0 -18 10 -1 0 z "},"Ñ":{"ha":1068,"x_min":0,"x_max":0,"o":"m 726 1043 b 854 1146 808 1043 847 1099 b 806 1199 864 1214 811 1233 b 750 1157 801 1164 778 1157 b 521 1215 707 1157 596 1215 b 392 1111 438 1215 399 1158 b 442 1060 382 1044 436 1024 b 496 1101 444 1093 469 1101 b 726 1043 579 1101 654 1043 z m 186 0 b 257 39 231 0 253 7 b 200 176 264 89 189 89 l 271 693 l 749 140 b 783 47 778 107 789 83 b 821 0 778 10 794 0 l 856 0 b 901 53 882 0 896 15 l 1006 796 b 1101 932 1018 883 1094 886 b 1039 972 1106 963 1089 972 l 901 972 b 831 933 857 972 835 965 b 888 796 824 883 899 883 l 835 415 l 389 933 b 315 972 369 957 350 972 l 179 972 b 92 928 121 972 97 961 b 158 726 81 854 178 897 l 82 176 b -14 40 71 89 -7 88 b 50 0 -18 10 -1 0 z "},"O":{"ha":1076,"x_min":0,"x_max":0,"o":"m 504 -10 b 1061 556 819 -11 1061 242 b 633 983 1061 797 903 983 b 67 415 315 983 67 721 b 504 -10 67 164 256 -8 z m 547 114 b 310 428 400 114 310 244 b 594 871 310 638 415 871 b 813 547 743 871 813 731 b 547 114 813 343 728 114 z "},"Ó":{"ha":1076,"x_min":0,"x_max":0,"o":"m 625 1047 b 844 1185 708 1044 843 1097 b 774 1265 846 1228 810 1264 b 654 1197 739 1267 700 1236 b 557 1076 622 1168 558 1104 b 625 1047 557 1054 594 1047 z m 504 -10 b 1061 556 819 -11 1061 242 b 633 983 1061 797 903 983 b 67 415 315 983 67 721 b 504 -10 67 164 256 -8 z m 547 114 b 310 428 400 114 310 244 b 594 871 310 638 415 871 b 813 547 743 871 813 731 b 547 114 813 343 728 114 z "},"Ô":{"ha":1076,"x_min":0,"x_max":0,"o":"m 460 1040 b 653 1110 504 1040 596 1075 b 826 1040 700 1075 781 1040 b 854 1064 843 1042 853 1050 b 788 1158 858 1081 831 1108 b 672 1242 733 1218 733 1242 b 526 1154 611 1242 596 1214 b 436 1064 467 1103 439 1079 b 460 1040 436 1050 442 1042 z m 504 -10 b 1061 556 819 -11 1061 242 b 633 983 1061 797 903 983 b 67 415 315 983 67 721 b 504 -10 67 164 256 -8 z m 547 114 b 310 428 400 114 310 244 b 594 871 310 638 415 871 b 813 547 743 871 813 731 b 547 114 813 343 728 114 z "},"Ö":{"ha":1076,"x_min":0,"x_max":0,"o":"m 536 1057 b 650 1160 597 1057 650 1099 b 567 1242 650 1210 617 1242 b 460 1131 504 1242 460 1188 b 536 1057 460 1086 494 1057 z m 779 1057 b 892 1160 839 1057 892 1099 b 807 1242 892 1210 857 1242 b 700 1131 747 1242 700 1188 b 779 1057 700 1086 735 1057 z m 504 -10 b 1061 556 819 -11 1061 242 b 633 983 1061 797 903 983 b 67 415 315 983 67 721 b 504 -10 67 164 256 -8 z m 547 114 b 310 428 400 114 310 244 b 594 871 310 638 415 871 b 813 547 743 871 813 731 b 547 114 813 343 728 114 z "},"Ò":{"ha":1076,"x_min":0,"x_max":0,"o":"m 668 1047 b 736 1076 699 1047 736 1054 b 639 1197 736 1104 672 1168 b 519 1265 594 1236 556 1267 b 449 1185 483 1264 447 1228 b 668 1047 451 1097 585 1044 z m 504 -10 b 1061 556 819 -11 1061 242 b 633 983 1061 797 903 983 b 67 415 315 983 67 721 b 504 -10 67 164 256 -8 z m 547 114 b 310 428 400 114 310 244 b 594 871 310 638 415 871 b 813 547 743 871 813 731 b 547 114 813 343 728 114 z "},"Ő":{"ha":1076,"x_min":0,"x_max":0,"o":"m 449 1051 b 683 1197 533 1051 683 1122 b 608 1263 683 1226 653 1263 b 492 1193 575 1263 536 1232 b 393 1076 460 1165 393 1103 b 449 1051 393 1060 417 1051 z m 725 1049 b 965 1182 810 1044 961 1107 b 896 1251 967 1211 939 1249 b 774 1188 861 1253 821 1224 b 671 1076 740 1163 672 1103 b 725 1049 669 1060 693 1050 z m 504 -10 b 1061 556 819 -11 1061 242 b 633 983 1061 797 903 983 b 67 415 315 983 67 721 b 504 -10 67 164 256 -8 z m 547 114 b 310 428 400 114 310 244 b 594 871 310 638 415 871 b 813 547 743 871 813 731 b 547 114 813 343 728 114 z "},"Ō":{"ha":1076,"x_min":0,"x_max":0,"o":"m 775 1069 b 857 1125 844 1069 851 1075 b 790 1171 864 1163 854 1171 l 478 1171 b 403 1115 417 1171 411 1164 b 463 1069 397 1076 406 1069 z m 504 -10 b 1061 556 819 -11 1061 242 b 633 983 1061 797 903 983 b 67 415 315 983 67 721 b 504 -10 67 164 256 -8 z m 547 114 b 310 428 400 114 310 244 b 594 871 310 638 415 871 b 813 547 743 871 813 731 b 547 114 813 343 728 114 z "},"Ø":{"ha":1076,"x_min":0,"x_max":0,"o":"m 944 1043 b 919 1104 963 1074 950 1086 b 858 1093 890 1122 872 1117 l 782 961 b 633 983 738 976 688 983 b 67 415 315 983 67 721 b 260 57 67 257 142 129 l 192 -61 b 214 -119 181 -82 183 -103 b 278 -111 242 -136 260 -143 l 350 15 b 504 -10 399 -1 450 -10 b 1061 556 819 -11 1061 242 b 874 921 1061 713 994 846 z m 310 428 b 594 871 310 638 415 871 b 708 835 640 871 678 858 l 357 226 b 310 428 326 279 310 349 z m 547 114 b 428 149 501 114 461 126 l 775 749 b 813 547 800 694 813 625 b 547 114 813 343 728 114 z "},"Õ":{"ha":1076,"x_min":0,"x_max":0,"o":"m 756 1043 b 883 1146 838 1043 876 1099 b 835 1199 893 1214 840 1233 b 779 1157 831 1164 807 1157 b 550 1215 736 1157 625 1215 b 421 1111 467 1215 428 1158 b 471 1060 411 1044 465 1024 b 525 1101 474 1093 499 1101 b 756 1043 608 1101 683 1043 z m 504 -10 b 1061 556 819 -11 1061 242 b 633 983 1061 797 903 983 b 67 415 315 983 67 721 b 504 -10 67 164 256 -8 z m 547 114 b 310 428 400 114 310 244 b 594 871 310 638 415 871 b 813 547 743 871 813 731 b 547 114 813 343 728 114 z "},"Œ":{"ha":1557,"x_min":0,"x_max":0,"o":"m 1565 779 b 1547 921 1563 836 1556 883 b 1433 972 1539 964 1515 972 l 951 972 b 899 926 925 972 903 954 l 896 906 b 633 983 828 956 739 983 b 67 415 315 983 67 721 b 504 -10 67 164 256 -8 b 776 58 604 -10 696 15 b 833 0 775 24 800 0 l 1321 0 b 1449 63 1403 0 1429 18 b 1496 242 1465 103 1481 160 b 1472 314 1503 285 1504 306 b 1397 261 1449 319 1426 308 b 1208 101 1333 160 1293 101 l 1124 100 b 1015 164 1025 100 1010 119 l 1054 443 b 1154 511 1061 499 1092 511 b 1339 372 1275 510 1263 357 b 1375 440 1368 379 1379 392 l 1365 618 b 1326 658 1363 640 1357 658 b 1168 610 1275 658 1269 610 b 1088 678 1107 610 1081 624 l 1106 808 b 1221 872 1111 853 1135 872 l 1279 872 b 1465 740 1369 872 1421 828 b 1531 703 1486 704 1504 693 b 1565 779 1560 711 1567 738 z m 547 114 b 310 428 400 114 310 244 b 594 871 310 638 415 871 b 813 547 743 871 813 731 b 547 114 813 343 728 114 z "},"P":{"ha":958,"x_min":0,"x_max":0,"o":"m 350 0 b 438 44 413 0 433 13 b 371 194 447 117 367 86 b 376 261 371 217 372 239 b 408 289 379 286 389 289 l 476 289 b 949 600 754 289 918 389 b 532 972 981 826 825 972 l 232 972 b 143 928 172 972 149 961 b 210 714 132 853 235 903 l 143 246 b 21 44 121 85 31 122 b 96 0 15 13 36 0 z m 476 385 b 400 432 424 385 394 397 l 457 842 b 515 879 461 871 471 879 b 714 581 636 879 742 776 b 476 385 697 460 611 385 z "},"Þ":{"ha":932,"x_min":0,"x_max":0,"o":"m 349 1 b 438 46 411 1 432 13 b 368 190 446 118 367 86 b 400 233 368 215 374 233 l 467 233 b 908 510 722 233 881 308 b 532 817 935 689 821 817 l 453 817 b 539 939 463 889 531 889 b 478 972 542 965 519 972 l 243 972 b 171 938 199 972 174 963 b 219 804 164 892 232 888 l 143 246 b 131 190 140 226 136 210 b 19 46 103 96 28 111 b 94 1 14 13 35 1 z m 465 329 b 390 368 404 329 385 332 l 435 686 b 471 724 439 715 449 724 b 667 503 617 724 683 626 b 465 329 650 390 571 329 z "},"Q":{"ha":1076,"x_min":0,"x_max":0,"o":"m 1007 -31 b 896 -71 976 -31 974 -71 b 543 -12 788 -71 661 -42 b 531 -10 539 -11 535 -10 b 1061 556 833 3 1061 250 b 633 983 1061 797 903 983 b 67 415 315 983 67 721 b 263 56 67 256 143 128 b 167 67 225 63 193 67 b 61 -17 82 67 61 15 b 90 -62 61 -39 72 -62 b 151 -43 107 -62 113 -43 b 415 -132 193 -43 294 -83 b 818 -253 549 -187 700 -253 b 1040 -93 978 -253 1040 -171 b 1007 -31 1040 -49 1024 -31 z m 594 871 b 813 547 743 871 813 731 b 547 114 813 343 728 114 b 310 428 400 114 310 244 b 594 871 310 638 415 871 z "},"R":{"ha":1001,"x_min":0,"x_max":0,"o":"m 349 0 b 438 44 411 0 433 11 b 369 189 447 117 369 85 b 374 244 369 208 371 225 l 388 343 b 476 375 393 383 432 381 b 561 321 526 367 547 357 l 613 197 b 565 44 649 113 572 99 b 625 0 561 11 581 0 l 857 0 b 943 44 917 0 939 11 b 846 190 953 113 888 92 l 756 392 b 957 657 872 439 940 535 b 560 972 981 824 854 972 l 233 972 b 144 928 174 972 149 961 b 215 783 136 863 214 879 b 210 714 215 764 214 747 l 143 244 b 132 189 140 225 138 208 b 19 44 104 94 28 110 b 94 0 15 11 35 0 z m 507 464 b 413 525 451 471 407 485 l 458 842 b 536 879 463 871 472 879 b 722 638 664 879 742 774 b 507 464 710 543 644 444 z "},"Ŕ":{"ha":1001,"x_min":0,"x_max":0,"o":"m 585 1047 b 804 1185 668 1044 803 1097 b 733 1265 806 1228 769 1264 b 614 1197 699 1267 660 1236 b 517 1076 582 1168 518 1104 b 585 1047 517 1054 554 1047 z m 349 0 b 438 44 411 0 433 11 b 369 189 447 117 369 85 b 374 244 369 208 371 225 l 388 343 b 476 375 393 383 432 381 b 561 321 526 367 547 357 l 613 197 b 565 44 649 113 572 99 b 625 0 561 11 581 0 l 857 0 b 943 44 917 0 939 11 b 846 190 953 113 888 92 l 756 392 b 957 657 872 439 940 535 b 560 972 981 824 854 972 l 233 972 b 144 928 174 972 149 961 b 215 783 136 863 214 879 b 210 714 215 764 214 747 l 143 244 b 132 189 140 225 138 208 b 19 44 104 94 28 110 b 94 0 15 11 35 0 z m 507 464 b 413 525 451 471 407 485 l 458 842 b 536 879 463 871 472 879 b 722 638 664 879 742 774 b 507 464 710 543 644 444 z "},"Ř":{"ha":1001,"x_min":0,"x_max":0,"o":"m 604 1050 b 744 1133 665 1050 672 1072 b 838 1228 800 1183 838 1211 b 815 1250 839 1242 833 1250 b 624 1182 771 1250 679 1217 b 450 1250 575 1217 494 1250 b 419 1228 432 1250 422 1242 b 483 1138 417 1213 438 1188 b 604 1050 536 1076 543 1050 z m 349 0 b 438 44 411 0 433 11 b 369 189 447 117 369 85 b 374 244 369 208 371 225 l 388 343 b 476 375 393 383 432 381 b 561 321 526 367 547 357 l 613 197 b 565 44 649 113 572 99 b 625 0 561 11 581 0 l 857 0 b 943 44 917 0 939 11 b 846 190 953 113 888 92 l 756 392 b 957 657 872 439 940 535 b 560 972 981 824 854 972 l 233 972 b 144 928 174 972 149 961 b 215 783 136 863 214 879 b 210 714 215 764 214 747 l 143 244 b 132 189 140 225 138 208 b 19 44 104 94 28 110 b 94 0 15 11 35 0 z m 507 464 b 413 525 451 471 407 485 l 458 842 b 536 879 463 871 472 879 b 722 638 664 879 742 774 b 507 464 710 543 644 444 z "},"S":{"ha":854,"x_min":0,"x_max":0,"o":"m 378 -12 b 796 260 568 -12 771 69 b 547 578 815 411 701 493 b 357 783 408 656 344 703 b 493 888 365 844 417 888 b 690 736 593 888 653 803 b 751 671 715 692 729 671 b 803 740 785 671 799 697 b 803 913 808 799 807 858 b 756 985 799 972 782 985 b 679 964 725 985 715 964 b 508 985 650 964 592 985 b 125 721 321 985 147 883 b 349 399 100 560 203 481 b 546 197 454 339 558 283 b 410 90 538 142 494 89 b 153 271 254 90 185 201 b 96 336 131 318 124 336 b 51 268 68 336 56 311 b 47 61 44 206 46 139 b 90 -14 49 1 65 -14 b 176 17 121 -14 131 17 b 378 -12 210 17 275 -12 z "},"":{"ha":854,"x_min":0,"x_max":0,"o":"m 378 -12 b 796 260 568 -12 771 69 b 547 578 815 411 701 493 b 357 783 408 656 344 703 b 493 888 365 844 417 888 b 690 736 593 888 653 803 b 751 671 715 692 729 671 b 803 740 785 671 799 697 b 803 913 808 799 807 858 b 756 985 799 972 782 985 b 679 964 725 985 715 964 b 508 985 650 964 592 985 b 125 721 321 985 147 883 b 349 399 100 560 203 481 b 546 197 454 339 558 283 b 410 90 538 142 494 89 b 153 271 254 90 185 201 b 96 336 131 318 124 336 b 51 268 68 336 56 311 b 47 61 44 206 46 139 b 90 -14 49 1 65 -14 b 176 17 121 -14 131 17 b 378 -12 210 17 275 -12 z "},"Ś":{"ha":854,"x_min":0,"x_max":0,"o":"m 474 1049 b 693 1186 557 1046 692 1099 b 622 1267 694 1229 658 1265 b 503 1199 588 1268 549 1238 b 406 1078 471 1169 407 1106 b 474 1049 406 1056 443 1049 z m 378 -12 b 796 260 568 -12 771 69 b 547 578 815 411 701 493 b 357 783 408 656 344 703 b 493 888 365 844 417 888 b 690 736 593 888 653 803 b 751 671 715 692 729 671 b 803 740 785 671 799 697 b 803 913 808 799 807 858 b 756 985 799 972 782 985 b 679 964 725 985 715 964 b 508 985 650 964 592 985 b 125 721 321 985 147 883 b 349 399 100 560 203 481 b 546 197 454 339 558 283 b 410 90 538 142 494 89 b 153 271 254 90 185 201 b 96 336 131 318 124 336 b 51 268 68 336 56 311 b 47 61 44 206 46 139 b 90 -14 49 1 65 -14 b 176 17 121 -14 131 17 b 378 -12 210 17 275 -12 z "},"Š":{"ha":854,"x_min":0,"x_max":0,"o":"m 493 1051 b 633 1135 554 1051 561 1074 b 726 1229 689 1185 726 1213 b 704 1251 728 1243 722 1251 b 513 1183 660 1251 568 1218 b 339 1251 464 1218 383 1251 b 308 1229 321 1251 311 1243 b 372 1139 306 1214 326 1189 b 493 1051 425 1078 432 1051 z m 378 -12 b 796 260 568 -12 771 69 b 547 578 815 411 701 493 b 357 783 408 656 344 703 b 493 888 365 844 417 888 b 690 736 593 888 653 803 b 751 671 715 692 729 671 b 803 740 785 671 799 697 b 803 913 808 799 807 858 b 756 985 799 972 782 985 b 679 964 725 985 715 964 b 508 985 650 964 592 985 b 125 721 321 985 147 883 b 349 399 100 560 203 481 b 546 197 454 339 558 283 b 410 90 538 142 494 89 b 153 271 254 90 185 201 b 96 336 131 318 124 336 b 51 268 68 336 56 311 b 47 61 44 206 46 139 b 90 -14 49 1 65 -14 b 176 17 121 -14 131 17 b 378 -12 210 17 275 -12 z "},"Ş":{"ha":854,"x_min":0,"x_max":0,"o":"m 493 888 b 690 736 593 888 653 803 b 751 671 715 692 729 671 b 803 740 785 671 799 697 b 803 913 808 799 807 858 b 756 985 799 972 782 985 b 679 964 725 985 715 964 b 508 985 650 964 592 985 b 125 721 321 985 147 883 b 349 399 100 560 203 481 b 546 197 454 339 558 283 b 410 90 538 142 494 89 b 153 271 254 90 185 201 b 96 336 131 318 124 336 b 51 268 68 336 56 311 b 47 61 44 206 46 139 b 90 -14 49 1 65 -14 b 176 17 121 -14 131 17 b 313 -8 201 17 246 0 l 267 -93 b 283 -121 258 -108 269 -118 b 372 -187 321 -129 372 -142 b 315 -237 372 -214 353 -237 b 261 -221 294 -237 276 -231 b 226 -251 229 -201 208 -229 b 347 -300 246 -276 288 -300 b 488 -181 426 -300 488 -251 b 357 -69 488 -111 426 -81 l 388 -12 b 796 260 575 -10 771 72 b 547 578 815 411 701 493 b 357 783 408 656 344 703 b 493 888 365 844 417 888 z "},"ẞ":{"ha":1708,"x_min":0,"x_max":0,"o":"m 378 -12 b 796 260 568 -12 771 69 b 547 578 815 411 701 493 b 357 783 408 656 344 703 b 493 888 365 844 417 888 b 690 736 593 888 653 803 b 751 671 715 692 729 671 b 803 740 785 671 799 697 b 803 913 808 799 807 858 b 756 985 799 972 782 985 b 679 964 725 985 715 964 b 508 985 650 964 592 985 b 125 721 321 985 147 883 b 349 399 100 560 203 481 b 546 197 454 339 558 283 b 410 90 538 142 494 89 b 153 271 254 90 185 201 b 96 336 131 318 124 336 b 51 268 68 336 56 311 b 47 61 44 206 46 139 b 90 -14 49 1 65 -14 b 176 17 121 -14 131 17 b 378 -12 210 17 275 -12 z m 1232 -12 b 1650 260 1422 -12 1625 69 b 1401 578 1669 411 1556 493 b 1211 783 1263 656 1199 703 b 1347 888 1219 844 1271 888 b 1544 736 1447 888 1507 803 b 1606 671 1569 692 1583 671 b 1657 740 1639 671 1653 697 b 1657 913 1663 799 1661 858 b 1610 985 1653 972 1636 985 b 1533 964 1579 985 1569 964 b 1363 985 1504 964 1446 985 b 979 721 1175 985 1001 883 b 1203 399 954 560 1057 481 b 1400 197 1308 339 1413 283 b 1264 90 1392 142 1349 89 b 1007 271 1108 90 1039 201 b 950 336 985 318 978 336 b 906 268 922 336 910 311 b 901 61 899 206 900 139 b 944 -14 903 1 919 -14 b 1031 17 975 -14 985 17 b 1232 -12 1064 17 1129 -12 z "},"T":{"ha":929,"x_min":0,"x_max":0,"o":"m 544 0 b 633 44 607 0 628 13 b 564 189 642 117 564 86 b 568 244 564 208 565 226 l 647 807 b 711 865 653 844 674 865 b 853 713 794 865 817 813 b 899 663 865 681 876 663 b 946 731 929 663 940 689 b 949 910 954 813 954 869 b 839 972 943 954 922 972 l 269 972 b 143 910 188 972 161 954 b 96 731 126 869 110 813 b 124 663 89 688 93 663 b 183 713 146 663 164 681 b 369 864 249 813 286 864 b 417 807 407 864 422 844 l 339 244 b 326 189 336 226 332 208 b 215 44 299 94 224 110 b 290 0 210 13 231 0 z "},"Ŧ":{"ha":929,"x_min":0,"x_max":0,"o":"m 949 910 b 839 972 943 954 922 972 l 269 972 b 143 910 188 972 161 954 b 96 731 126 869 110 813 b 124 663 89 688 93 663 b 183 713 146 663 164 681 b 369 864 249 813 286 864 b 417 807 407 864 422 844 l 379 538 l 300 538 b 253 494 272 538 256 519 b 285 433 247 454 247 433 l 365 433 l 339 244 b 326 189 336 226 332 208 b 215 44 299 94 224 110 b 290 0 210 13 231 0 l 544 0 b 633 44 607 0 628 13 b 564 189 642 117 564 86 b 568 244 564 208 565 226 l 594 435 l 676 435 b 726 496 711 435 719 451 b 690 536 729 521 718 536 l 610 536 l 647 807 b 711 865 653 844 674 865 b 853 713 794 865 817 813 b 899 663 865 681 876 663 b 946 731 929 663 940 689 b 949 910 954 813 954 869 z "},"Ť":{"ha":929,"x_min":0,"x_max":0,"o":"m 583 1050 b 724 1133 644 1050 651 1072 b 817 1228 779 1183 817 1211 b 794 1250 818 1242 813 1250 b 603 1182 750 1250 658 1217 b 429 1250 554 1217 474 1250 b 399 1228 411 1250 401 1242 b 463 1138 396 1213 417 1188 b 583 1050 515 1076 522 1050 z m 544 0 b 633 44 607 0 628 13 b 564 189 642 117 564 86 b 568 244 564 208 565 226 l 647 807 b 711 865 653 844 674 865 b 853 713 794 865 817 813 b 899 663 865 681 876 663 b 946 731 929 663 940 689 b 949 910 954 813 954 869 b 839 972 943 954 922 972 l 269 972 b 143 910 188 972 161 954 b 96 731 126 869 110 813 b 124 663 89 688 93 663 b 183 713 146 663 164 681 b 369 864 249 813 286 864 b 417 807 407 864 422 844 l 339 244 b 326 189 336 226 332 208 b 215 44 299 94 224 110 b 290 0 210 13 231 0 z "},"U":{"ha":1061,"x_min":0,"x_max":0,"o":"m 494 -14 b 960 456 761 -14 911 115 l 1010 794 b 1104 931 1021 882 1097 885 b 1042 971 1108 963 1093 971 l 904 971 b 835 932 860 971 839 964 b 890 794 828 882 903 882 l 838 417 b 568 114 810 224 711 114 b 383 400 424 114 357 214 l 429 728 b 442 783 432 746 436 764 b 553 928 468 878 543 863 b 478 972 558 960 538 972 l 222 972 b 135 928 161 972 140 960 b 203 783 125 856 204 886 b 199 728 203 764 201 746 l 160 444 b 494 -14 115 129 225 -14 z "},"Ú":{"ha":1061,"x_min":0,"x_max":0,"o":"m 671 1047 b 890 1185 754 1044 889 1097 b 819 1265 892 1228 856 1264 b 700 1197 785 1267 746 1236 b 603 1076 668 1168 604 1104 b 671 1047 603 1054 640 1047 z m 494 -14 b 960 456 761 -14 911 115 l 1010 794 b 1104 931 1021 882 1097 885 b 1042 971 1108 963 1093 971 l 904 971 b 835 932 860 971 839 964 b 890 794 828 882 903 882 l 838 417 b 568 114 810 224 711 114 b 383 400 424 114 357 214 l 429 728 b 442 783 432 746 436 764 b 553 928 468 878 543 863 b 478 972 558 960 538 972 l 222 972 b 135 928 161 972 140 960 b 203 783 125 856 204 886 b 199 728 203 764 201 746 l 160 444 b 494 -14 115 129 225 -14 z "},"Û":{"ha":1061,"x_min":0,"x_max":0,"o":"m 506 1040 b 699 1110 550 1040 642 1075 b 872 1040 746 1075 826 1040 b 900 1064 889 1042 899 1050 b 833 1158 904 1081 876 1108 b 718 1242 779 1218 779 1242 b 572 1154 657 1242 642 1214 b 482 1064 513 1103 485 1079 b 506 1040 482 1050 488 1042 z m 494 -14 b 960 456 761 -14 911 115 l 1010 794 b 1104 931 1021 882 1097 885 b 1042 971 1108 963 1093 971 l 904 971 b 835 932 860 971 839 964 b 890 794 828 882 903 882 l 838 417 b 568 114 810 224 711 114 b 383 400 424 114 357 214 l 429 728 b 442 783 432 746 436 764 b 553 928 468 878 543 863 b 478 972 558 960 538 972 l 222 972 b 135 928 161 972 140 960 b 203 783 125 856 204 886 b 199 728 203 764 201 746 l 160 444 b 494 -14 115 129 225 -14 z "},"Ü":{"ha":1061,"x_min":0,"x_max":0,"o":"m 582 1057 b 696 1160 643 1057 696 1099 b 613 1242 696 1210 663 1242 b 506 1131 550 1242 506 1188 b 582 1057 506 1086 540 1057 z m 825 1057 b 938 1160 885 1057 938 1099 b 853 1242 938 1210 903 1242 b 746 1131 793 1242 746 1188 b 825 1057 746 1086 781 1057 z m 494 -14 b 960 456 761 -14 911 115 l 1010 794 b 1104 931 1021 882 1097 885 b 1042 971 1108 963 1093 971 l 904 971 b 835 932 860 971 839 964 b 890 794 828 882 903 882 l 838 417 b 568 114 810 224 711 114 b 383 400 424 114 357 214 l 429 728 b 442 783 432 746 436 764 b 553 928 468 878 543 863 b 478 972 558 960 538 972 l 222 972 b 135 928 161 972 140 960 b 203 783 125 856 204 886 b 199 728 203 764 201 746 l 160 444 b 494 -14 115 129 225 -14 z "},"Ù":{"ha":1061,"x_min":0,"x_max":0,"o":"m 714 1047 b 782 1076 744 1047 782 1054 b 685 1197 782 1104 718 1168 b 565 1265 640 1236 601 1267 b 494 1185 529 1264 493 1228 b 714 1047 497 1097 631 1044 z m 494 -14 b 960 456 761 -14 911 115 l 1010 794 b 1104 931 1021 882 1097 885 b 1042 971 1108 963 1093 971 l 904 971 b 835 932 860 971 839 964 b 890 794 828 882 903 882 l 838 417 b 568 114 810 224 711 114 b 383 400 424 114 357 214 l 429 728 b 442 783 432 746 436 764 b 553 928 468 878 543 863 b 478 972 558 960 538 972 l 222 972 b 135 928 161 972 140 960 b 203 783 125 856 204 886 b 199 728 203 764 201 746 l 160 444 b 494 -14 115 129 225 -14 z "},"Ű":{"ha":1061,"x_min":0,"x_max":0,"o":"m 494 1051 b 729 1197 579 1051 729 1122 b 654 1263 729 1226 699 1263 b 538 1193 621 1263 582 1232 b 439 1076 506 1165 439 1103 b 494 1051 439 1060 463 1051 z m 771 1049 b 1011 1182 856 1044 1007 1107 b 942 1251 1013 1211 985 1249 b 819 1188 907 1253 867 1224 b 717 1076 786 1163 718 1103 b 771 1049 715 1060 739 1050 z m 494 -14 b 960 456 761 -14 911 115 l 1010 794 b 1104 931 1021 882 1097 885 b 1042 971 1108 963 1093 971 l 904 971 b 835 932 860 971 839 964 b 890 794 828 882 903 882 l 838 417 b 568 114 810 224 711 114 b 383 400 424 114 357 214 l 429 728 b 442 783 432 746 436 764 b 553 928 468 878 543 863 b 478 972 558 960 538 972 l 222 972 b 135 928 161 972 140 960 b 203 783 125 856 204 886 b 199 728 203 764 201 746 l 160 444 b 494 -14 115 129 225 -14 z "},"Ū":{"ha":1061,"x_min":0,"x_max":0,"o":"m 821 1069 b 903 1125 890 1069 897 1075 b 836 1171 910 1163 900 1171 l 524 1171 b 449 1115 463 1171 457 1164 b 508 1069 443 1076 451 1069 z m 494 -14 b 960 456 761 -14 911 115 l 1010 794 b 1104 931 1021 882 1097 885 b 1042 971 1108 963 1093 971 l 904 971 b 835 932 860 971 839 964 b 890 794 828 882 903 882 l 838 417 b 568 114 810 224 711 114 b 383 400 424 114 357 214 l 429 728 b 442 783 432 746 436 764 b 553 928 468 878 543 863 b 478 972 558 960 538 972 l 222 972 b 135 928 161 972 140 960 b 203 783 125 856 204 886 b 199 728 203 764 201 746 l 160 444 b 494 -14 115 129 225 -14 z "},"Ų":{"ha":1061,"x_min":0,"x_max":0,"o":"m 904 971 b 835 932 860 971 839 964 b 890 794 828 882 903 882 l 838 417 b 568 114 810 224 711 114 b 383 400 424 114 357 214 l 429 728 b 442 783 432 746 436 764 b 553 928 468 878 543 863 b 478 972 558 960 538 972 l 222 972 b 135 928 161 972 140 960 b 203 783 125 856 204 886 b 199 728 203 764 201 746 l 160 444 b 494 -14 115 129 225 -14 b 547 -12 513 -14 531 -14 b 469 -143 494 -50 469 -97 b 610 -264 469 -214 525 -264 b 738 -211 663 -264 710 -242 b 711 -169 760 -186 749 -151 b 663 -182 693 -178 676 -182 b 597 -115 618 -182 597 -151 b 653 6 597 -83 611 -44 b 960 456 822 53 922 189 l 1010 794 b 1104 931 1021 882 1097 885 b 1042 971 1108 963 1093 971 z "},"Ů":{"ha":1061,"x_min":0,"x_max":0,"o":"m 683 1024 b 863 1174 771 1024 850 1082 b 731 1319 875 1263 815 1319 b 551 1169 642 1319 563 1260 b 683 1024 539 1082 597 1024 z m 701 1110 b 646 1172 667 1110 646 1135 b 714 1238 649 1211 675 1238 b 768 1176 749 1238 768 1213 b 701 1110 765 1139 740 1110 z m 494 -14 b 960 456 761 -14 911 115 l 1010 794 b 1104 931 1021 882 1097 885 b 1042 971 1108 963 1093 971 l 904 971 b 835 932 860 971 839 964 b 890 794 828 882 903 882 l 838 417 b 568 114 810 224 711 114 b 383 400 424 114 357 214 l 429 728 b 442 783 432 746 436 764 b 553 928 468 878 543 863 b 478 972 558 960 538 972 l 222 972 b 135 928 161 972 140 960 b 203 783 125 856 204 886 b 199 728 203 764 201 746 l 160 444 b 494 -14 115 129 225 -14 z "},"V":{"ha":1024,"x_min":0,"x_max":0,"o":"m 474 -1 b 564 51 538 6 549 21 l 956 788 b 1093 931 1007 886 1085 876 b 1018 971 1097 963 1068 971 l 889 971 b 814 931 850 971 818 964 b 832 788 806 876 886 893 l 560 260 l 429 781 b 501 928 401 890 493 869 b 436 972 506 961 485 972 l 182 972 b 97 928 124 972 103 961 b 181 781 90 871 151 894 l 375 28 b 474 -1 383 -7 397 -11 z "},"W":{"ha":1507,"x_min":0,"x_max":0,"o":"m 439 -3 b 533 47 506 7 522 26 l 782 568 l 888 24 b 990 -3 892 -7 914 -15 b 1085 49 1057 7 1074 28 l 1442 788 b 1576 932 1489 888 1568 878 b 1501 972 1581 964 1551 972 l 1372 972 b 1297 932 1333 972 1301 965 b 1318 788 1289 878 1368 894 l 1071 268 l 986 783 b 1049 931 971 885 1040 876 b 986 972 1051 963 1029 972 l 733 972 b 663 931 692 972 667 965 b 742 785 654 876 722 889 l 751 724 l 521 260 l 425 785 b 485 931 406 885 476 876 b 422 972 489 963 465 972 l 169 972 b 99 931 129 972 103 965 b 181 785 92 876 158 889 l 340 24 b 439 -3 347 -7 369 -12 z "},"Ẃ":{"ha":1507,"x_min":0,"x_max":0,"o":"m 844 1047 b 1064 1185 928 1044 1063 1097 b 993 1265 1065 1228 1029 1264 b 874 1197 958 1267 919 1236 b 776 1076 842 1168 778 1104 b 844 1047 776 1054 814 1047 z m 439 -3 b 533 47 506 7 522 26 l 782 568 l 888 24 b 990 -3 892 -7 914 -15 b 1085 49 1057 7 1074 28 l 1442 788 b 1576 932 1489 888 1568 878 b 1501 972 1581 964 1551 972 l 1372 972 b 1297 932 1333 972 1301 965 b 1318 788 1289 878 1368 894 l 1071 268 l 986 783 b 1049 931 971 885 1040 876 b 986 972 1051 963 1029 972 l 733 972 b 663 931 692 972 667 965 b 742 785 654 876 722 889 l 751 724 l 521 260 l 425 785 b 485 931 406 885 476 876 b 422 972 489 963 465 972 l 169 972 b 99 931 129 972 103 965 b 181 785 92 876 158 889 l 340 24 b 439 -3 347 -7 369 -12 z "},"Ŵ":{"ha":1507,"x_min":0,"x_max":0,"o":"m 678 1040 b 871 1110 722 1040 814 1075 b 1044 1040 918 1075 999 1040 b 1072 1064 1061 1042 1071 1050 b 1006 1158 1076 1081 1049 1108 b 890 1242 951 1218 951 1242 b 744 1154 829 1242 814 1214 b 654 1064 685 1103 657 1079 b 678 1040 654 1050 660 1042 z m 439 -3 b 533 47 506 7 522 26 l 782 568 l 888 24 b 990 -3 892 -7 914 -15 b 1085 49 1057 7 1074 28 l 1442 788 b 1576 932 1489 888 1568 878 b 1501 972 1581 964 1551 972 l 1372 972 b 1297 932 1333 972 1301 965 b 1318 788 1289 878 1368 894 l 1071 268 l 986 783 b 1049 931 971 885 1040 876 b 986 972 1051 963 1029 972 l 733 972 b 663 931 692 972 667 965 b 742 785 654 876 722 889 l 751 724 l 521 260 l 425 785 b 485 931 406 885 476 876 b 422 972 489 963 465 972 l 169 972 b 99 931 129 972 103 965 b 181 785 92 876 158 889 l 340 24 b 439 -3 347 -7 369 -12 z "},"Ẅ":{"ha":1507,"x_min":0,"x_max":0,"o":"m 756 1057 b 869 1160 817 1057 869 1099 b 786 1242 869 1210 836 1242 b 679 1131 724 1242 679 1188 b 756 1057 679 1086 714 1057 z m 999 1057 b 1111 1160 1058 1057 1111 1099 b 1026 1242 1111 1210 1076 1242 b 919 1131 967 1242 919 1188 b 999 1057 919 1086 954 1057 z m 439 -3 b 533 47 506 7 522 26 l 782 568 l 888 24 b 990 -3 892 -7 914 -15 b 1085 49 1057 7 1074 28 l 1442 788 b 1576 932 1489 888 1568 878 b 1501 972 1581 964 1551 972 l 1372 972 b 1297 932 1333 972 1301 965 b 1318 788 1289 878 1368 894 l 1071 268 l 986 783 b 1049 931 971 885 1040 876 b 986 972 1051 963 1029 972 l 733 972 b 663 931 692 972 667 965 b 742 785 654 876 722 889 l 751 724 l 521 260 l 425 785 b 485 931 406 885 476 876 b 422 972 489 963 465 972 l 169 972 b 99 931 129 972 103 965 b 181 785 92 876 158 889 l 340 24 b 439 -3 347 -7 369 -12 z "},"Ẁ":{"ha":1507,"x_min":0,"x_max":0,"o":"m 888 1047 b 956 1076 918 1047 956 1054 b 858 1197 956 1104 892 1168 b 739 1265 814 1236 775 1267 b 668 1185 703 1264 667 1228 b 888 1047 671 1097 804 1044 z m 439 -3 b 533 47 506 7 522 26 l 782 568 l 888 24 b 990 -3 892 -7 914 -15 b 1085 49 1057 7 1074 28 l 1442 788 b 1576 932 1489 888 1568 878 b 1501 972 1581 964 1551 972 l 1372 972 b 1297 932 1333 972 1301 965 b 1318 788 1289 878 1368 894 l 1071 268 l 986 783 b 1049 931 971 885 1040 876 b 986 972 1051 963 1029 972 l 733 972 b 663 931 692 972 667 965 b 742 785 654 876 722 889 l 751 724 l 521 260 l 425 785 b 485 931 406 885 476 876 b 422 972 489 963 465 972 l 169 972 b 99 931 129 972 103 965 b 181 785 92 876 158 889 l 340 24 b 439 -3 347 -7 369 -12 z "},"X":{"ha":1074,"x_min":0,"x_max":0,"o":"m 213 0 b 288 40 251 0 283 7 b 297 175 296 94 211 74 l 478 388 l 606 175 b 575 42 663 81 583 96 b 638 0 571 10 594 0 l 928 0 b 1003 40 969 0 999 7 b 889 175 1010 96 949 76 l 676 526 l 913 797 b 1086 932 993 890 1078 878 b 1013 972 1090 964 1061 972 l 864 972 b 789 932 825 972 793 965 b 778 797 782 878 865 899 l 622 617 l 514 797 b 546 931 457 893 538 876 b 483 972 549 963 526 972 l 192 972 b 118 932 151 972 122 965 b 232 797 110 876 174 896 l 424 478 l 164 175 b -10 40 85 82 -1 94 b 65 0 -14 8 17 0 z "},"Y":{"ha":999,"x_min":0,"x_max":0,"o":"m 828 971 b 754 931 790 971 758 964 b 753 789 746 876 831 896 l 583 554 l 464 794 b 500 931 415 893 492 876 b 438 972 504 963 481 972 l 147 972 b 74 932 107 972 78 965 b 183 796 65 876 131 896 l 378 431 l 353 244 b 340 189 350 225 346 208 b 229 44 314 94 239 110 b 304 0 224 11 244 0 l 560 0 b 647 44 621 0 642 11 b 579 189 656 117 578 85 b 583 244 579 208 581 225 l 610 432 l 883 790 b 1051 931 958 889 1043 876 b 976 971 1056 963 1025 971 z "},"Ý":{"ha":999,"x_min":0,"x_max":0,"o":"m 633 1047 b 853 1185 717 1044 851 1097 b 782 1265 854 1228 818 1264 b 663 1197 747 1267 708 1236 b 565 1076 631 1168 567 1104 b 633 1047 565 1054 603 1047 z m 828 971 b 754 931 790 971 758 964 b 753 789 746 876 831 896 l 583 554 l 464 794 b 500 931 415 893 492 876 b 438 972 504 963 481 972 l 147 972 b 74 932 107 972 78 965 b 183 796 65 876 131 896 l 378 431 l 353 244 b 340 189 350 225 346 208 b 229 44 314 94 239 110 b 304 0 224 11 244 0 l 560 0 b 647 44 621 0 642 11 b 579 189 656 117 578 85 b 583 244 579 208 581 225 l 610 432 l 883 790 b 1051 931 958 889 1043 876 b 976 971 1056 963 1025 971 z "},"Ŷ":{"ha":999,"x_min":0,"x_max":0,"o":"m 467 1040 b 660 1110 511 1040 603 1075 b 833 1040 707 1075 788 1040 b 861 1064 850 1042 860 1050 b 794 1158 865 1081 838 1108 b 679 1242 740 1218 740 1242 b 533 1154 618 1242 603 1214 b 443 1064 474 1103 446 1079 b 467 1040 443 1050 449 1042 z m 828 971 b 754 931 790 971 758 964 b 753 789 746 876 831 896 l 583 554 l 464 794 b 500 931 415 893 492 876 b 438 972 504 963 481 972 l 147 972 b 74 932 107 972 78 965 b 183 796 65 876 131 896 l 378 431 l 353 244 b 340 189 350 225 346 208 b 229 44 314 94 239 110 b 304 0 224 11 244 0 l 560 0 b 647 44 621 0 642 11 b 579 189 656 117 578 85 b 583 244 579 208 581 225 l 610 432 l 883 790 b 1051 931 958 889 1043 876 b 976 971 1056 963 1025 971 z "},"Ÿ":{"ha":999,"x_min":0,"x_max":0,"o":"m 497 1057 b 611 1160 558 1057 611 1099 b 528 1242 611 1210 578 1242 b 421 1131 465 1242 421 1188 b 497 1057 421 1086 456 1057 z m 740 1057 b 853 1160 800 1057 853 1099 b 768 1242 853 1210 818 1242 b 661 1131 708 1242 661 1188 b 740 1057 661 1086 696 1057 z m 828 971 b 754 931 790 971 758 964 b 753 789 746 876 831 896 l 583 554 l 464 794 b 500 931 415 893 492 876 b 438 972 504 963 481 972 l 147 972 b 74 932 107 972 78 965 b 183 796 65 876 131 896 l 378 431 l 353 244 b 340 189 350 225 346 208 b 229 44 314 94 239 110 b 304 0 224 11 244 0 l 560 0 b 647 44 621 0 642 11 b 579 189 656 117 578 85 b 583 244 579 208 581 225 l 610 432 l 883 790 b 1051 931 958 889 1043 876 b 976 971 1056 963 1025 971 z "},"Ỳ":{"ha":999,"x_min":0,"x_max":0,"o":"m 676 1047 b 744 1076 707 1047 744 1054 b 647 1197 744 1104 681 1168 b 528 1265 603 1236 564 1267 b 457 1185 492 1264 456 1228 b 676 1047 460 1097 593 1044 z m 828 971 b 754 931 790 971 758 964 b 753 789 746 876 831 896 l 583 554 l 464 794 b 500 931 415 893 492 876 b 438 972 504 963 481 972 l 147 972 b 74 932 107 972 78 965 b 183 796 65 876 131 896 l 378 431 l 353 244 b 340 189 350 225 346 208 b 229 44 314 94 239 110 b 304 0 224 11 244 0 l 560 0 b 647 44 621 0 642 11 b 579 189 656 117 578 85 b 583 244 579 208 581 225 l 610 432 l 883 790 b 1051 931 958 889 1043 876 b 976 971 1056 963 1025 971 z "},"Z":{"ha":882,"x_min":0,"x_max":0,"o":"m 649 0 b 783 63 743 0 767 19 b 825 214 801 104 817 156 b 806 282 833 257 833 282 b 744 232 786 282 765 265 b 557 101 683 147 640 101 l 318 100 l 914 908 b 890 972 942 946 933 972 l 317 972 b 183 910 224 972 199 953 b 140 758 165 868 150 817 b 161 690 133 715 132 690 b 221 740 179 690 200 707 b 410 872 282 825 325 872 l 624 872 l 24 65 b 49 0 -3 28 6 0 z "},"Ź":{"ha":882,"x_min":0,"x_max":0,"o":"m 518 1047 b 738 1185 601 1044 736 1097 b 667 1265 739 1228 703 1264 b 547 1197 632 1267 593 1236 b 450 1076 515 1168 451 1104 b 518 1047 450 1054 488 1047 z m 649 0 b 783 63 743 0 767 19 b 825 214 801 104 817 156 b 806 282 833 257 833 282 b 744 232 786 282 765 265 b 557 101 683 147 640 101 l 318 100 l 914 908 b 890 972 942 946 933 972 l 317 972 b 183 910 224 972 199 953 b 140 758 165 868 150 817 b 161 690 133 715 132 690 b 221 740 179 690 200 707 b 410 872 282 825 325 872 l 624 872 l 24 65 b 49 0 -3 28 6 0 z "},"Ž":{"ha":882,"x_min":0,"x_max":0,"o":"m 538 1050 b 678 1133 599 1050 606 1072 b 771 1228 733 1183 771 1211 b 749 1250 772 1242 767 1250 b 557 1182 704 1250 613 1217 b 383 1250 508 1217 428 1250 b 353 1228 365 1250 356 1242 b 417 1138 350 1213 371 1188 b 538 1050 469 1076 476 1050 z m 649 0 b 783 63 743 0 767 19 b 825 214 801 104 817 156 b 806 282 833 257 833 282 b 744 232 786 282 765 265 b 557 101 683 147 640 101 l 318 100 l 914 908 b 890 972 942 946 933 972 l 317 972 b 183 910 224 972 199 953 b 140 758 165 868 150 817 b 161 690 133 715 132 690 b 221 740 179 690 200 707 b 410 872 282 825 325 872 l 624 872 l 24 65 b 49 0 -3 28 6 0 z "},"Ż":{"ha":882,"x_min":0,"x_max":0,"o":"m 504 1049 b 668 1193 585 1049 667 1115 b 568 1288 668 1247 624 1288 b 410 1140 489 1289 410 1213 b 504 1049 408 1092 443 1049 z m 649 0 b 783 63 743 0 767 19 b 825 214 801 104 817 156 b 806 282 833 257 833 282 b 744 232 786 282 765 265 b 557 101 683 147 640 101 l 318 100 l 914 908 b 890 972 942 946 933 972 l 317 972 b 183 910 224 972 199 953 b 140 758 165 868 150 817 b 161 690 133 715 132 690 b 221 740 179 690 200 707 b 410 872 282 825 325 872 l 624 872 l 24 65 b 49 0 -3 28 6 0 z "},"Ģ":{"ha":1064,"x_min":0,"x_max":0,"o":"m 493 -14 b 946 201 740 -14 933 99 l 961 308 b 1039 472 978 435 1032 415 b 975 517 1043 506 1024 517 l 701 514 b 614 468 640 514 619 501 b 731 307 606 399 751 442 l 714 190 b 561 100 704 126 617 100 b 318 568 364 100 279 297 b 613 886 343 747 449 886 b 851 711 746 885 808 801 b 915 644 874 663 886 643 b 958 713 946 644 954 669 b 958 913 965 797 963 858 b 908 985 956 972 933 985 b 832 961 878 985 868 961 b 638 986 803 961 747 986 b 69 468 356 986 110 753 b 493 -14 29 178 204 -14 z m 438 -406 b 615 -172 503 -406 615 -294 b 521 -65 615 -103 574 -65 b 418 -168 472 -65 418 -103 b 469 -293 418 -236 469 -247 b 415 -387 469 -342 415 -361 b 438 -406 415 -397 425 -406 z "},"Ķ":{"ha":1076,"x_min":0,"x_max":0,"o":"m 803 972 b 733 928 760 972 739 961 b 740 794 726 875 832 871 l 411 525 l 440 728 b 564 928 461 878 553 850 b 488 972 568 961 547 972 l 233 972 b 146 928 171 972 150 961 b 211 728 133 843 233 897 l 142 244 b 19 44 121 94 29 122 b 94 0 14 13 35 0 l 349 0 b 438 44 411 0 432 13 b 372 244 449 129 349 75 l 392 385 l 600 556 l 711 197 b 650 44 739 108 657 99 b 725 0 644 11 665 0 l 968 0 b 1053 44 1028 0 1049 11 b 951 213 1063 114 993 88 l 792 713 l 892 794 b 1074 928 1013 892 1065 863 b 997 972 1079 961 1053 972 z m 558 -65 b 456 -168 510 -65 456 -103 b 507 -293 456 -236 507 -247 b 453 -387 507 -342 453 -361 b 475 -406 453 -397 463 -406 b 653 -172 540 -406 653 -294 b 558 -65 653 -103 611 -65 z "},"Ļ":{"ha":835,"x_min":0,"x_max":0,"o":"m 615 0 b 742 63 699 0 725 18 b 789 240 758 103 776 160 b 763 308 797 282 792 308 b 703 258 740 308 722 290 b 515 101 639 160 601 101 l 453 100 b 361 163 372 100 356 119 l 440 728 b 451 783 442 747 446 764 b 563 928 479 878 554 863 b 488 972 568 961 547 972 l 233 972 b 144 928 171 972 150 961 b 214 783 135 856 214 888 b 210 728 214 764 213 747 l 144 258 b 131 189 140 225 136 208 b 19 44 103 94 28 110 b 94 0 14 11 35 0 z m 329 -406 b 507 -172 394 -406 507 -294 b 413 -65 507 -103 465 -65 b 310 -168 364 -65 310 -103 b 361 -293 310 -236 361 -247 b 307 -387 361 -342 307 -361 b 329 -406 307 -397 317 -406 z "},"Ņ":{"ha":1068,"x_min":0,"x_max":0,"o":"m 186 0 b 257 39 231 0 253 7 b 200 176 264 89 189 89 l 271 693 l 749 140 b 783 47 778 107 789 83 b 821 0 778 10 794 0 l 856 0 b 901 53 882 0 896 15 l 1006 796 b 1101 932 1018 883 1094 886 b 1039 972 1106 963 1089 972 l 901 972 b 831 933 857 972 835 965 b 888 796 824 883 899 883 l 835 415 l 389 933 b 315 972 369 957 350 972 l 179 972 b 92 928 121 972 97 961 b 158 726 81 854 178 897 l 82 176 b -14 40 71 89 -7 88 b 50 0 -18 10 -1 0 z m 407 -406 b 585 -172 472 -406 585 -294 b 490 -65 585 -103 543 -65 b 388 -168 442 -65 388 -103 b 439 -293 388 -236 439 -247 b 385 -387 439 -342 385 -361 b 407 -406 385 -397 394 -406 z "},"Ŗ":{"ha":1001,"x_min":0,"x_max":0,"o":"m 349 0 b 438 44 411 0 433 11 b 369 189 447 117 369 85 b 374 244 369 208 371 225 l 388 343 b 476 375 393 383 432 381 b 561 321 526 367 547 357 l 613 197 b 565 44 649 113 572 99 b 625 0 561 11 581 0 l 857 0 b 943 44 917 0 939 11 b 846 190 953 113 888 92 l 756 392 b 957 657 872 439 940 535 b 560 972 981 824 854 972 l 233 972 b 144 928 174 972 149 961 b 215 783 136 863 214 879 b 210 714 215 764 214 747 l 143 244 b 132 189 140 225 138 208 b 19 44 104 94 28 110 b 94 0 15 11 35 0 z m 507 464 b 413 525 451 471 407 485 l 458 842 b 536 879 463 871 472 879 b 722 638 664 879 742 774 b 507 464 710 543 644 444 z m 394 -406 b 572 -172 460 -406 572 -294 b 478 -65 572 -103 531 -65 b 375 -168 429 -65 375 -103 b 426 -293 375 -236 426 -247 b 372 -387 426 -342 372 -361 b 394 -406 372 -397 382 -406 z "},"Ţ":{"ha":929,"x_min":0,"x_max":0,"o":"m 949 910 b 839 972 943 954 922 972 l 269 972 b 143 910 188 972 161 954 b 96 731 126 869 110 813 b 124 663 89 688 93 663 b 183 713 146 663 164 681 b 369 864 249 813 286 864 b 417 807 407 864 422 844 l 339 244 b 326 189 336 226 332 208 b 215 44 299 94 224 110 b 290 0 210 13 231 0 l 403 0 l 353 -93 b 369 -121 344 -108 356 -118 b 458 -187 407 -129 458 -142 b 401 -237 458 -214 439 -237 b 347 -221 381 -237 363 -231 b 313 -251 315 -201 294 -229 b 433 -300 332 -276 374 -300 b 574 -181 513 -300 574 -251 b 443 -69 574 -111 513 -81 l 481 0 l 544 0 b 633 44 607 0 628 13 b 564 189 642 117 564 86 b 568 244 564 208 565 226 l 647 807 b 711 865 653 844 674 865 b 853 713 794 865 817 813 b 899 663 865 681 876 663 b 946 731 929 663 940 689 b 949 910 954 813 954 869 z "},"Ș":{"ha":854,"x_min":0,"x_max":0,"o":"m 378 -12 b 796 260 568 -12 771 69 b 547 578 815 411 701 493 b 357 783 408 656 344 703 b 493 888 365 844 417 888 b 690 736 593 888 653 803 b 751 671 715 692 729 671 b 803 740 785 671 799 697 b 803 913 808 799 807 858 b 756 985 799 972 782 985 b 679 964 725 985 715 964 b 508 985 650 964 592 985 b 125 721 321 985 147 883 b 349 399 100 560 203 481 b 546 197 454 339 558 283 b 410 90 538 142 494 89 b 153 271 254 90 185 201 b 96 336 131 318 124 336 b 51 268 68 336 56 311 b 47 61 44 206 46 139 b 90 -14 49 1 65 -14 b 176 17 121 -14 131 17 b 378 -12 210 17 275 -12 z m 271 -406 b 449 -172 336 -406 449 -294 b 354 -65 449 -103 407 -65 b 251 -168 306 -65 251 -103 b 303 -293 251 -236 303 -247 b 249 -387 303 -342 249 -361 b 271 -406 249 -397 258 -406 z "},"Ț":{"ha":929,"x_min":0,"x_max":0,"o":"m 544 0 b 633 44 607 0 628 13 b 564 189 642 117 564 86 b 568 244 564 208 565 226 l 647 807 b 711 865 653 844 674 865 b 853 713 794 865 817 813 b 899 663 865 681 876 663 b 946 731 929 663 940 689 b 949 910 954 813 954 869 b 839 972 943 954 922 972 l 269 972 b 143 910 188 972 161 954 b 96 731 126 869 110 813 b 124 663 89 688 93 663 b 183 713 146 663 164 681 b 369 864 249 813 286 864 b 417 807 407 864 422 844 l 339 244 b 326 189 336 226 332 208 b 215 44 299 94 224 110 b 290 0 210 13 231 0 z m 372 -406 b 550 -172 438 -406 550 -294 b 456 -65 550 -103 508 -65 b 353 -168 407 -65 353 -103 b 404 -293 353 -236 404 -247 b 350 -387 404 -342 350 -361 b 372 -406 350 -397 360 -406 z "},"a":{"ha":896,"x_min":0,"x_max":0,"o":"m 818 175 b 754 136 796 175 781 136 b 728 204 733 136 724 153 l 763 626 b 715 681 765 656 751 681 b 585 651 679 681 619 651 b 431 678 551 651 513 678 b 46 239 232 678 46 486 b 279 -14 46 88 144 -14 b 507 101 361 -14 447 25 b 647 -14 518 17 575 -14 b 842 144 769 -14 842 83 b 818 175 842 168 826 175 z m 365 119 b 276 281 304 119 275 176 b 436 588 278 413 336 588 b 536 460 493 588 540 544 l 533 414 b 365 119 524 279 458 119 z "},"á":{"ha":896,"x_min":0,"x_max":0,"o":"m 443 775 b 704 874 515 749 676 794 b 636 983 724 931 697 983 b 528 926 603 983 565 957 b 424 808 479 885 432 833 b 443 775 418 793 424 782 z m 818 175 b 754 136 796 175 781 136 b 728 204 733 136 724 153 l 763 626 b 715 681 765 656 751 681 b 585 651 679 681 619 651 b 431 678 551 651 513 678 b 46 239 232 678 46 486 b 279 -14 46 88 144 -14 b 507 101 361 -14 447 25 b 647 -14 518 17 575 -14 b 842 144 769 -14 842 83 b 818 175 842 168 826 175 z m 365 119 b 276 281 304 119 275 176 b 436 588 278 413 336 588 b 536 460 493 588 540 544 l 533 414 b 365 119 524 279 458 119 z "},"ă":{"ha":896,"x_min":0,"x_max":0,"o":"m 539 742 b 774 932 660 742 758 821 b 754 978 778 960 771 978 b 721 957 744 978 736 972 b 560 882 669 903 626 882 b 417 957 492 882 453 903 b 388 978 407 972 399 978 b 357 932 372 978 360 960 b 539 742 342 825 414 742 z m 818 175 b 754 136 796 175 781 136 b 728 204 733 136 724 153 l 763 626 b 715 681 765 656 751 681 b 585 651 679 681 619 651 b 431 678 551 651 513 678 b 46 239 232 678 46 486 b 279 -14 46 88 144 -14 b 507 101 361 -14 447 25 b 647 -14 518 17 575 -14 b 842 144 769 -14 842 83 b 818 175 842 168 826 175 z m 365 119 b 276 281 304 119 275 176 b 436 588 278 413 336 588 b 536 460 493 588 540 544 l 533 414 b 365 119 524 279 458 119 z "},"â":{"ha":896,"x_min":0,"x_max":0,"o":"m 392 744 b 574 851 436 743 514 800 b 726 744 621 800 682 743 b 754 767 744 744 753 753 b 700 889 758 789 726 844 b 590 974 660 957 658 974 b 453 883 533 974 511 947 b 369 767 415 840 374 789 b 392 744 368 753 375 744 z m 818 175 b 754 136 796 175 781 136 b 728 204 733 136 724 153 l 763 626 b 715 681 765 656 751 681 b 585 651 679 681 619 651 b 431 678 551 651 513 678 b 46 239 232 678 46 486 b 279 -14 46 88 144 -14 b 507 101 361 -14 447 25 b 647 -14 518 17 575 -14 b 842 144 769 -14 842 83 b 818 175 842 168 826 175 z m 365 119 b 276 281 304 119 275 176 b 436 588 278 413 336 588 b 536 460 493 588 540 544 l 533 414 b 365 119 524 279 458 119 z "},"ä":{"ha":896,"x_min":0,"x_max":0,"o":"m 411 760 b 525 863 471 760 525 803 b 440 944 525 913 490 944 b 333 833 379 944 333 890 b 411 760 333 789 368 760 z m 654 760 b 765 863 713 760 765 803 b 681 944 765 913 732 944 b 574 833 621 944 574 890 b 654 760 574 789 608 760 z m 818 175 b 754 136 796 175 781 136 b 728 204 733 136 724 153 l 763 626 b 715 681 765 656 751 681 b 585 651 679 681 619 651 b 431 678 551 651 513 678 b 46 239 232 678 46 486 b 279 -14 46 88 144 -14 b 507 101 361 -14 447 25 b 647 -14 518 17 575 -14 b 842 144 769 -14 842 83 b 818 175 842 168 826 175 z m 365 119 b 276 281 304 119 275 176 b 436 588 278 413 336 588 b 536 460 493 588 540 544 l 533 414 b 365 119 524 279 458 119 z "},"à":{"ha":896,"x_min":0,"x_max":0,"o":"m 657 775 b 676 808 676 782 682 793 b 574 926 668 833 621 885 b 444 981 528 964 482 994 b 396 874 401 965 378 925 b 657 775 424 794 585 749 z m 818 175 b 754 136 796 175 781 136 b 728 204 733 136 724 153 l 763 626 b 715 681 765 656 751 681 b 585 651 679 681 619 651 b 431 678 551 651 513 678 b 46 239 232 678 46 486 b 279 -14 46 88 144 -14 b 507 101 361 -14 447 25 b 647 -14 518 17 575 -14 b 842 144 769 -14 842 83 b 818 175 842 168 826 175 z m 365 119 b 276 281 304 119 275 176 b 436 588 278 413 336 588 b 536 460 493 588 540 544 l 533 414 b 365 119 524 279 458 119 z "},"ā":{"ha":896,"x_min":0,"x_max":0,"o":"m 686 764 b 776 819 756 764 763 769 b 715 865 788 857 779 865 l 403 865 b 321 810 343 865 335 858 b 374 764 310 771 317 764 z m 818 175 b 754 136 796 175 781 136 b 728 204 733 136 724 153 l 763 626 b 715 681 765 656 751 681 b 585 651 679 681 619 651 b 431 678 551 651 513 678 b 46 239 232 678 46 486 b 279 -14 46 88 144 -14 b 507 101 361 -14 447 25 b 647 -14 518 17 575 -14 b 842 144 769 -14 842 83 b 818 175 842 168 826 175 z m 365 119 b 276 281 304 119 275 176 b 436 588 278 413 336 588 b 536 460 493 588 540 544 l 533 414 b 365 119 524 279 458 119 z "},"ą":{"ha":896,"x_min":0,"x_max":0,"o":"m 788 -167 b 739 -179 769 -175 753 -179 b 674 -112 694 -179 674 -149 b 722 -1 674 -83 686 -47 b 842 144 799 28 842 97 b 818 175 842 168 826 175 b 754 136 796 175 781 136 b 728 204 733 136 724 153 l 763 626 b 715 681 765 656 751 681 b 585 651 679 681 619 651 b 431 678 551 651 513 678 b 46 239 232 678 46 486 b 279 -14 46 88 144 -14 b 507 101 361 -14 447 25 b 619 -12 517 28 561 -6 b 546 -140 569 -50 546 -96 b 686 -261 546 -211 601 -261 b 814 -208 739 -261 786 -239 b 788 -167 836 -183 825 -149 z m 365 119 b 276 281 304 119 275 176 b 436 588 278 413 336 588 b 536 460 493 588 540 544 l 533 414 b 365 119 524 279 458 119 z "},"å":{"ha":896,"x_min":0,"x_max":0,"o":"m 535 718 b 714 868 622 718 701 776 b 582 1014 726 957 667 1014 b 403 864 493 1014 414 954 b 535 718 390 776 449 718 z m 565 932 b 619 871 600 932 619 907 b 553 804 617 833 592 804 b 497 867 518 804 497 829 b 565 932 500 906 526 932 z m 818 175 b 754 136 796 175 781 136 b 728 204 733 136 724 153 l 763 626 b 715 681 765 656 751 681 b 585 651 679 681 619 651 b 431 678 551 651 513 678 b 46 239 232 678 46 486 b 279 -14 46 88 144 -14 b 507 101 361 -14 447 25 b 647 -14 518 17 575 -14 b 842 144 769 -14 842 83 b 818 175 842 168 826 175 z m 365 119 b 276 281 304 119 275 176 b 436 588 278 413 336 588 b 536 460 493 588 540 544 l 533 414 b 365 119 524 279 458 119 z "},"ã":{"ha":896,"x_min":0,"x_max":0,"o":"m 372 754 b 426 796 375 788 400 796 b 657 738 510 796 585 738 b 785 840 739 738 778 793 b 736 893 794 908 742 928 b 681 851 732 858 708 851 b 451 910 638 851 526 910 b 322 806 368 910 329 853 b 372 754 313 739 367 718 z m 818 175 b 754 136 796 175 781 136 b 728 204 733 136 724 153 l 763 626 b 715 681 765 656 751 681 b 585 651 679 681 619 651 b 431 678 551 651 513 678 b 46 239 232 678 46 486 b 279 -14 46 88 144 -14 b 507 101 361 -14 447 25 b 647 -14 518 17 575 -14 b 842 144 769 -14 842 83 b 818 175 842 168 826 175 z m 365 119 b 276 281 304 119 275 176 b 436 588 278 413 336 588 b 536 460 493 588 540 544 l 533 414 b 365 119 524 279 458 119 z "},"æ":{"ha":1228,"x_min":0,"x_max":0,"o":"m 1104 206 b 908 135 1051 167 990 135 b 753 233 839 135 781 172 b 1174 521 922 254 1174 329 b 960 681 1174 626 1075 681 b 683 590 851 681 757 646 b 450 681 618 657 532 681 b 46 242 250 681 46 485 b 281 -14 46 89 144 -14 b 533 169 374 -14 467 38 b 815 -14 568 51 669 -14 b 1144 165 989 -14 1107 85 b 1104 206 1165 210 1139 233 z m 904 589 b 999 496 965 589 999 546 b 760 328 999 375 826 338 b 725 360 738 325 725 335 b 904 589 725 471 792 589 z m 371 113 b 272 283 299 113 271 192 b 450 586 275 418 329 586 b 546 536 492 586 549 560 l 532 414 b 371 113 513 250 464 113 z "},"b":{"ha":835,"x_min":0,"x_max":0,"o":"m 543 681 b 339 601 467 681 394 650 l 394 939 b 357 986 400 972 385 986 b 199 950 318 986 250 968 b 94 871 106 917 94 892 b 150 758 94 821 164 844 l 76 311 b 343 -14 43 107 143 -12 b 790 432 607 -15 790 186 b 543 681 790 571 694 681 z m 390 90 b 294 256 325 90 285 154 b 463 564 308 446 386 564 b 558 442 533 564 556 494 b 390 90 564 268 486 89 z "},"":{"ha":835,"x_min":0,"x_max":0,"o":"m 543 681 b 339 601 467 681 394 650 l 394 939 b 357 986 400 972 385 986 b 199 950 318 986 250 968 b 94 871 106 917 94 892 b 150 758 94 821 164 844 l 76 311 b 343 -14 43 107 143 -12 b 790 432 607 -15 790 186 b 543 681 790 571 694 681 z m 390 90 b 294 256 325 90 285 154 b 463 564 308 446 386 564 b 558 442 533 564 556 494 b 390 90 564 268 486 89 z "},"c":{"ha":751,"x_min":0,"x_max":0,"o":"m 353 -14 b 682 164 526 -14 644 83 b 640 206 701 208 675 232 b 469 142 589 165 539 142 b 272 346 340 142 272 221 b 418 579 272 467 333 579 b 508 431 486 579 510 525 b 586 336 508 386 524 343 b 710 471 657 328 708 390 b 450 681 711 585 604 681 b 50 276 238 681 50 500 b 353 -14 50 114 156 -14 z "},"ć":{"ha":751,"x_min":0,"x_max":0,"o":"m 328 775 b 589 874 400 749 561 794 b 521 983 608 931 582 983 b 413 926 488 983 450 957 b 308 808 364 885 317 833 b 328 775 303 793 308 782 z m 353 -14 b 682 164 526 -14 644 83 b 640 206 701 208 675 232 b 469 142 589 165 539 142 b 272 346 340 142 272 221 b 418 579 272 467 333 579 b 508 431 486 579 510 525 b 586 336 508 386 524 343 b 710 471 657 328 708 390 b 450 681 711 585 604 681 b 50 276 238 681 50 500 b 353 -14 50 114 156 -14 z "},"č":{"ha":751,"x_min":0,"x_max":0,"o":"m 450 800 b 585 885 518 800 525 817 b 672 1007 624 929 669 985 b 651 1029 675 1021 669 1029 b 469 922 607 1029 529 974 b 317 1029 422 974 361 1029 b 288 1007 300 1029 290 1021 b 339 890 286 985 313 933 b 450 800 378 826 393 800 z m 353 -14 b 682 164 526 -14 644 83 b 640 206 701 208 675 232 b 469 142 589 165 539 142 b 272 346 340 142 272 221 b 418 579 272 467 333 579 b 508 431 486 579 510 525 b 586 336 508 386 524 343 b 710 471 657 328 708 390 b 450 681 711 585 604 681 b 50 276 238 681 50 500 b 353 -14 50 114 156 -14 z "},"ç":{"ha":751,"x_min":0,"x_max":0,"o":"m 586 336 b 710 471 657 328 708 390 b 450 681 711 585 604 681 b 50 276 238 681 50 500 b 286 -8 50 133 132 17 l 240 -93 b 257 -121 232 -108 243 -118 b 346 -187 294 -129 346 -142 b 289 -237 346 -214 326 -237 b 235 -221 268 -237 250 -231 b 200 -251 203 -201 182 -229 b 321 -300 219 -276 261 -300 b 461 -181 400 -300 461 -251 b 331 -69 461 -111 400 -81 l 361 -14 b 682 164 531 -11 644 85 b 640 206 701 208 675 232 b 469 142 589 165 539 142 b 272 346 340 142 272 221 b 418 579 272 467 333 579 b 508 431 486 579 510 525 b 586 336 508 386 524 343 z "},"ċ":{"ha":751,"x_min":0,"x_max":0,"o":"m 400 743 b 564 888 481 743 563 810 b 464 982 564 942 519 982 b 306 835 385 983 306 907 b 400 743 304 786 339 743 z m 353 -14 b 682 164 526 -14 644 83 b 640 206 701 208 675 232 b 469 142 589 165 539 142 b 272 346 340 142 272 221 b 418 579 272 467 333 579 b 508 431 486 579 510 525 b 586 336 508 386 524 343 b 710 471 657 328 708 390 b 450 681 711 585 604 681 b 50 276 238 681 50 500 b 353 -14 50 114 156 -14 z "},"d":{"ha":865,"x_min":0,"x_max":0,"o":"m 807 175 b 743 136 785 175 769 136 b 721 204 722 136 713 153 l 828 939 b 790 986 833 972 818 986 b 631 950 751 986 682 968 b 526 871 538 917 526 892 b 582 758 526 824 594 846 l 568 660 b 453 681 536 669 497 681 b 44 236 246 681 44 488 b 281 -14 44 90 129 -14 b 497 97 375 -14 444 31 b 625 -14 504 18 561 -14 b 831 144 758 -14 831 83 b 807 175 832 168 817 175 z m 358 126 b 268 271 294 126 267 192 b 439 586 268 429 331 586 b 526 394 510 586 544 522 b 358 126 507 249 444 126 z "},"ď":{"ha":865,"x_min":0,"x_max":0,"o":"m 807 175 b 743 136 785 175 769 136 b 721 204 722 136 713 153 l 828 939 b 790 986 833 972 818 986 b 631 950 751 986 682 968 b 526 871 538 917 526 892 b 582 758 526 824 594 846 l 568 660 b 453 681 536 669 497 681 b 44 236 246 681 44 488 b 281 -14 44 90 129 -14 b 497 97 375 -14 444 31 b 625 -14 504 18 561 -14 b 831 144 758 -14 831 83 b 807 175 832 168 817 175 z m 1017 985 b 931 903 978 985 946 960 b 878 678 924 882 893 743 b 900 644 872 656 882 644 b 1081 903 951 644 1069 824 b 1017 985 1088 950 1064 985 z m 358 126 b 268 271 294 126 267 192 b 439 586 268 429 331 586 b 526 394 510 586 544 522 b 358 126 507 249 444 126 z "},"đ":{"ha":865,"x_min":0,"x_max":0,"o":"m 807 175 b 743 136 785 175 769 136 b 721 204 722 136 713 153 l 793 697 b 825 742 814 700 825 714 b 804 782 825 763 818 775 l 828 939 b 790 986 833 972 818 986 b 631 950 751 986 682 968 b 526 871 538 917 526 892 b 583 785 526 829 579 842 l 450 785 b 411 742 425 785 411 771 b 450 697 411 711 425 697 l 574 697 l 568 660 b 453 681 536 669 497 681 b 44 236 246 681 44 488 b 281 -14 44 90 129 -14 b 497 97 375 -14 444 31 b 625 -14 504 18 561 -14 b 831 144 758 -14 831 83 b 807 175 832 168 817 175 z m 358 126 b 268 271 294 126 267 192 b 439 586 268 429 331 586 b 526 394 510 586 544 522 b 358 126 507 249 444 126 z "},"ð":{"ha":819,"x_min":0,"x_max":0,"o":"m 706 881 b 735 938 731 890 742 908 b 686 964 729 964 713 974 l 564 922 b 451 1008 526 957 488 988 b 385 990 431 1021 403 1013 b 393 924 368 968 372 943 b 436 878 408 910 422 894 l 356 850 b 326 796 331 842 319 822 b 375 767 333 767 350 758 l 485 804 b 546 644 511 756 532 700 b 407 678 508 667 454 678 b 54 296 194 679 54 489 b 358 -14 54 90 196 -14 b 778 453 589 -14 778 153 b 626 853 778 606 711 747 z m 376 83 b 276 253 310 83 276 154 b 447 585 274 397 335 582 b 544 425 515 585 543 513 b 376 83 547 283 489 86 z "},"e":{"ha":757,"x_min":0,"x_max":0,"o":"m 633 206 b 438 135 581 167 519 135 b 282 233 368 135 310 172 b 704 521 451 254 704 329 b 489 681 704 626 604 681 b 49 268 226 681 49 478 b 346 -14 49 89 161 -14 b 674 165 518 -14 636 85 b 633 206 694 210 668 233 z m 435 589 b 529 496 494 589 529 546 b 290 328 529 375 356 338 b 256 360 267 325 256 335 b 435 589 256 471 321 589 z "},"é":{"ha":757,"x_min":0,"x_max":0,"o":"m 326 758 b 588 857 399 732 560 778 b 519 967 607 914 581 967 b 411 910 486 967 449 940 b 307 792 363 868 315 817 b 326 758 301 776 307 765 z m 633 206 b 438 135 581 167 519 135 b 282 233 368 135 310 172 b 704 521 451 254 704 329 b 489 681 704 626 604 681 b 49 268 226 681 49 478 b 346 -14 49 89 161 -14 b 674 165 518 -14 636 85 b 633 206 694 210 668 233 z m 435 589 b 529 496 494 589 529 546 b 290 328 529 375 356 338 b 256 360 267 325 256 335 b 435 589 256 471 321 589 z "},"ě":{"ha":757,"x_min":0,"x_max":0,"o":"m 449 783 b 583 868 517 783 524 800 b 671 990 622 913 668 968 b 650 1013 674 1004 668 1013 b 468 906 606 1013 528 957 b 315 1013 421 957 360 1013 b 286 990 299 1013 289 1004 b 338 874 285 968 311 917 b 449 783 376 810 392 783 z m 633 206 b 438 135 581 167 519 135 b 282 233 368 135 310 172 b 704 521 451 254 704 329 b 489 681 704 626 604 681 b 49 268 226 681 49 478 b 346 -14 49 89 161 -14 b 674 165 518 -14 636 85 b 633 206 694 210 668 233 z m 435 589 b 529 496 494 589 529 546 b 290 328 529 375 356 338 b 256 360 267 325 256 335 b 435 589 256 471 321 589 z "},"ê":{"ha":757,"x_min":0,"x_max":0,"o":"m 275 728 b 457 835 319 726 397 783 b 610 728 504 783 565 726 b 638 750 628 728 636 736 b 583 872 642 772 610 828 b 474 957 543 940 542 957 b 336 867 417 957 394 931 b 253 750 299 824 257 772 b 275 728 251 736 258 728 z m 633 206 b 438 135 581 167 519 135 b 282 233 368 135 310 172 b 704 521 451 254 704 329 b 489 681 704 626 604 681 b 49 268 226 681 49 478 b 346 -14 49 89 161 -14 b 674 165 518 -14 636 85 b 633 206 694 210 668 233 z m 435 589 b 529 496 494 589 529 546 b 290 328 529 375 356 338 b 256 360 267 325 256 335 b 435 589 256 471 321 589 z "},"ë":{"ha":757,"x_min":0,"x_max":0,"o":"m 294 743 b 408 846 354 743 408 786 b 324 928 408 896 374 928 b 217 817 263 928 217 874 b 294 743 217 772 251 743 z m 538 743 b 649 846 596 743 649 786 b 564 928 649 896 615 928 b 457 817 504 928 457 874 b 538 743 457 772 492 743 z m 633 206 b 438 135 581 167 519 135 b 282 233 368 135 310 172 b 704 521 451 254 704 329 b 489 681 704 626 604 681 b 49 268 226 681 49 478 b 346 -14 49 89 161 -14 b 674 165 518 -14 636 85 b 633 206 694 210 668 233 z m 435 589 b 529 496 494 589 529 546 b 290 328 529 375 356 338 b 256 360 267 325 256 335 b 435 589 256 471 321 589 z "},"ė":{"ha":757,"x_min":0,"x_max":0,"o":"m 399 726 b 563 871 479 726 561 793 b 463 965 563 925 518 965 b 304 818 383 967 304 890 b 399 726 303 769 338 726 z m 633 206 b 438 135 581 167 519 135 b 282 233 368 135 310 172 b 704 521 451 254 704 329 b 489 681 704 626 604 681 b 49 268 226 681 49 478 b 346 -14 49 89 161 -14 b 674 165 518 -14 636 85 b 633 206 694 210 668 233 z m 435 589 b 529 496 494 589 529 546 b 290 328 529 375 356 338 b 256 360 267 325 256 335 b 435 589 256 471 321 589 z "},"è":{"ha":757,"x_min":0,"x_max":0,"o":"m 540 758 b 560 792 560 765 565 776 b 457 910 551 817 504 868 b 328 964 411 947 365 978 b 279 857 285 949 261 908 b 540 758 307 778 468 732 z m 633 206 b 438 135 581 167 519 135 b 282 233 368 135 310 172 b 704 521 451 254 704 329 b 489 681 704 626 604 681 b 49 268 226 681 49 478 b 346 -14 49 89 161 -14 b 674 165 518 -14 636 85 b 633 206 694 210 668 233 z m 435 589 b 529 496 494 589 529 546 b 290 328 529 375 356 338 b 256 360 267 325 256 335 b 435 589 256 471 321 589 z "},"ē":{"ha":757,"x_min":0,"x_max":0,"o":"m 569 747 b 660 803 639 747 646 753 b 599 849 671 840 663 849 l 286 849 b 204 793 226 849 218 842 b 257 747 193 754 200 747 z m 633 206 b 438 135 581 167 519 135 b 282 233 368 135 310 172 b 704 521 451 254 704 329 b 489 681 704 626 604 681 b 49 268 226 681 49 478 b 346 -14 49 89 161 -14 b 674 165 518 -14 636 85 b 633 206 694 210 668 233 z m 435 589 b 529 496 494 589 529 546 b 290 328 529 375 356 338 b 256 360 267 325 256 335 b 435 589 256 471 321 589 z "},"ę":{"ha":757,"x_min":0,"x_max":0,"o":"m 633 206 b 438 135 581 167 519 135 b 282 233 368 135 310 172 b 704 521 451 254 704 329 b 489 681 704 626 604 681 b 49 268 226 681 49 478 b 303 -12 49 103 144 3 b 225 -143 250 -50 225 -97 b 365 -264 225 -214 281 -264 b 493 -211 418 -264 465 -242 b 467 -169 515 -186 504 -151 b 418 -182 449 -178 432 -182 b 353 -115 374 -182 353 -151 b 394 -11 353 -87 364 -53 b 674 165 540 6 640 93 b 633 206 694 210 668 233 z m 435 589 b 529 496 494 589 529 546 b 290 328 529 375 356 338 b 256 360 267 325 256 335 b 435 589 256 471 321 589 z "},"f":{"ha":553,"x_min":0,"x_max":0,"o":"m 494 986 b 181 656 342 986 211 863 l 174 604 l 104 588 b 47 531 74 582 56 565 b 86 489 39 496 56 483 l 158 503 l 94 57 b 64 -90 82 -33 79 -67 b 94 -146 38 -131 57 -156 l 253 -112 b 296 -75 275 -107 292 -100 l 381 529 l 460 543 b 546 611 492 549 521 551 b 510 676 568 667 561 688 l 399 653 b 344 765 339 639 342 733 b 428 878 350 849 390 878 b 489 796 464 878 483 854 b 550 743 492 767 511 743 b 643 833 596 743 635 772 b 494 986 656 919 586 986 z "},"g":{"ha":810,"x_min":0,"x_max":0,"o":"m 757 782 b 690 747 728 782 708 768 b 550 675 629 685 581 675 b 454 679 518 675 503 679 l 453 679 b 85 389 251 679 85 549 b 168 235 85 318 117 268 b 46 101 93 201 56 157 b 115 -21 39 46 65 4 b 14 -128 60 -42 21 -85 b 310 -292 -1 -246 142 -292 b 756 -40 547 -292 733 -194 b 581 113 769 58 707 113 b 332 96 515 113 413 96 b 206 158 271 96 200 108 b 242 204 208 178 224 193 b 374 189 281 194 326 189 b 728 471 574 189 728 304 b 665 614 728 529 706 578 b 813 719 731 621 808 653 b 757 782 815 756 790 782 z m 397 272 b 299 406 331 272 299 331 b 421 594 299 494 342 594 b 518 460 490 594 518 531 b 397 272 518 371 478 272 z m 264 -67 b 493 -60 347 -69 408 -60 b 554 -110 543 -58 558 -81 b 363 -199 549 -161 493 -199 b 183 -118 247 -199 178 -172 b 264 -67 190 -78 229 -65 z "},"ğ":{"ha":810,"x_min":0,"x_max":0,"o":"m 461 740 b 696 931 582 740 681 819 b 676 976 700 958 693 976 b 643 956 667 976 658 971 b 482 881 592 901 549 881 b 339 956 414 881 375 901 b 310 976 329 971 321 976 b 279 931 294 976 282 958 b 461 740 264 824 336 740 z m 757 782 b 690 747 728 782 708 768 b 550 675 629 685 581 675 b 454 679 518 675 503 679 l 453 679 b 85 389 251 679 85 549 b 168 235 85 318 117 268 b 46 101 93 201 56 157 b 115 -21 39 46 65 4 b 14 -128 60 -42 21 -85 b 310 -292 -1 -246 142 -292 b 756 -40 547 -292 733 -194 b 581 113 769 58 707 113 b 332 96 515 113 413 96 b 206 158 271 96 200 108 b 242 204 208 178 224 193 b 374 189 281 194 326 189 b 728 471 574 189 728 304 b 665 614 728 529 706 578 b 813 719 731 621 808 653 b 757 782 815 756 790 782 z m 397 272 b 299 406 331 272 299 331 b 421 594 299 494 342 594 b 518 460 490 594 518 531 b 397 272 518 371 478 272 z m 264 -67 b 493 -60 347 -69 408 -60 b 554 -110 543 -58 558 -81 b 363 -199 549 -161 493 -199 b 183 -118 247 -199 178 -172 b 264 -67 190 -78 229 -65 z "},"ġ":{"ha":810,"x_min":0,"x_max":0,"o":"m 438 742 b 601 886 518 742 600 808 b 501 981 601 940 557 981 b 343 833 422 982 343 906 b 438 742 342 785 376 742 z m 757 782 b 690 747 728 782 708 768 b 550 675 629 685 581 675 b 454 679 518 675 503 679 l 453 679 b 85 389 251 679 85 549 b 168 235 85 318 117 268 b 46 101 93 201 56 157 b 115 -21 39 46 65 4 b 14 -128 60 -42 21 -85 b 310 -292 -1 -246 142 -292 b 756 -40 547 -292 733 -194 b 581 113 769 58 707 113 b 332 96 515 113 413 96 b 206 158 271 96 200 108 b 242 204 208 178 224 193 b 374 189 281 194 326 189 b 728 471 574 189 728 304 b 665 614 728 529 706 578 b 813 719 731 621 808 653 b 757 782 815 756 790 782 z m 397 272 b 299 406 331 272 299 331 b 421 594 299 494 342 594 b 518 460 490 594 518 531 b 397 272 518 371 478 272 z m 264 -67 b 493 -60 347 -69 408 -60 b 554 -110 543 -58 558 -81 b 363 -199 549 -161 493 -199 b 183 -118 247 -199 178 -172 b 264 -67 190 -78 229 -65 z "},"h":{"ha":908,"x_min":0,"x_max":0,"o":"m 836 175 b 772 136 814 175 799 136 b 750 204 751 136 746 153 l 765 406 b 575 681 779 567 732 681 b 340 540 478 681 400 631 l 400 946 b 361 993 406 981 389 993 b 201 957 324 993 257 981 b 96 878 115 921 96 901 b 167 774 96 828 181 858 l 54 28 b 92 -15 50 0 65 -21 l 229 17 b 271 60 251 22 267 35 l 286 153 b 501 551 339 461 446 551 b 554 396 563 551 564 494 l 535 171 b 661 -14 522 42 578 -14 b 861 144 788 -14 860 83 b 836 175 861 168 846 175 z "},"ħ":{"ha":908,"x_min":0,"x_max":0,"o":"m 836 175 b 772 136 814 175 799 136 b 750 204 751 136 746 153 l 765 406 b 575 681 779 567 732 681 b 340 540 478 681 400 631 l 360 675 l 415 675 b 454 719 440 675 454 689 b 415 763 454 749 440 763 l 372 763 l 400 946 b 361 993 406 981 389 993 b 201 957 324 993 257 981 b 96 878 115 921 96 901 b 167 774 96 828 181 858 l 165 763 l 79 763 b 40 719 54 763 40 749 b 79 675 40 689 54 675 l 151 675 l 54 28 b 92 -15 50 0 65 -21 l 229 17 b 271 60 251 22 267 35 l 286 153 b 501 551 339 461 446 551 b 554 396 563 551 564 494 l 535 171 b 661 -14 522 42 578 -14 b 861 144 788 -14 860 83 b 836 175 861 168 846 175 z "},"i":{"ha":461,"x_min":0,"x_max":0,"o":"m 218 743 b 382 888 299 743 381 810 b 282 982 382 942 338 982 b 124 835 203 983 124 907 b 218 743 122 786 157 743 z m 190 -14 b 397 144 324 -14 396 83 b 372 175 397 168 382 175 b 308 136 351 175 335 136 b 283 204 288 136 275 153 l 344 632 b 306 681 350 667 333 681 b 158 643 268 681 210 661 b 54 564 65 610 54 585 b 110 453 54 515 124 539 l 65 167 b 190 -14 46 42 107 -14 z "},"ı":{"ha":461,"x_min":0,"x_max":0,"o":"m 190 -14 b 397 144 324 -14 396 83 b 372 175 397 168 382 175 b 308 136 351 175 335 136 b 283 204 288 136 275 153 l 344 632 b 306 681 350 667 333 681 b 158 643 268 681 210 661 b 54 564 65 610 54 585 b 110 453 54 515 124 539 l 65 167 b 190 -14 46 42 107 -14 z "},"í":{"ha":461,"x_min":0,"x_max":0,"o":"m 146 775 b 407 874 218 749 379 794 b 339 983 426 931 400 983 b 231 926 306 983 268 957 b 126 808 182 885 135 833 b 146 775 121 793 126 782 z m 190 -14 b 397 144 324 -14 396 83 b 372 175 397 168 382 175 b 308 136 351 175 335 136 b 283 204 288 136 275 153 l 344 632 b 306 681 350 667 333 681 b 158 643 268 681 210 661 b 54 564 65 610 54 585 b 110 453 54 515 124 539 l 65 167 b 190 -14 46 42 107 -14 z "},"î":{"ha":461,"x_min":0,"x_max":0,"o":"m 94 744 b 276 851 139 743 217 800 b 429 744 324 800 385 743 b 457 767 447 744 456 753 b 403 889 461 789 429 844 b 293 974 363 957 361 974 b 156 883 236 974 214 947 b 72 767 118 840 76 789 b 94 744 71 753 78 744 z m 190 -14 b 397 144 324 -14 396 83 b 372 175 397 168 382 175 b 308 136 351 175 335 136 b 283 204 288 136 275 153 l 344 632 b 306 681 350 667 333 681 b 158 643 268 681 210 661 b 54 564 65 610 54 585 b 110 453 54 515 124 539 l 65 167 b 190 -14 46 42 107 -14 z "},"ï":{"ha":461,"x_min":0,"x_max":0,"o":"m 114 760 b 228 863 174 760 228 803 b 143 944 228 913 193 944 b 36 833 82 944 36 890 b 114 760 36 789 71 760 z m 357 760 b 468 863 415 760 468 803 b 383 944 468 913 435 944 b 276 833 324 944 276 890 b 357 760 276 789 311 760 z m 190 -14 b 397 144 324 -14 396 83 b 372 175 397 168 382 175 b 308 136 351 175 335 136 b 283 204 288 136 275 153 l 344 632 b 306 681 350 667 333 681 b 158 643 268 681 210 661 b 54 564 65 610 54 585 b 110 453 54 515 124 539 l 65 167 b 190 -14 46 42 107 -14 z "},"ì":{"ha":461,"x_min":0,"x_max":0,"o":"m 360 775 b 379 808 379 782 385 793 b 276 926 371 833 324 885 b 147 981 231 964 185 994 b 99 874 104 965 81 925 b 360 775 126 794 288 749 z m 190 -14 b 397 144 324 -14 396 83 b 372 175 397 168 382 175 b 308 136 351 175 335 136 b 283 204 288 136 275 153 l 344 632 b 306 681 350 667 333 681 b 158 643 268 681 210 661 b 54 564 65 610 54 585 b 110 453 54 515 124 539 l 65 167 b 190 -14 46 42 107 -14 z "},"ī":{"ha":461,"x_min":0,"x_max":0,"o":"m 389 764 b 479 819 458 764 465 769 b 418 865 490 857 482 865 l 106 865 b 24 810 46 865 38 858 b 76 764 13 771 19 764 z m 190 -14 b 397 144 324 -14 396 83 b 372 175 397 168 382 175 b 308 136 351 175 335 136 b 283 204 288 136 275 153 l 344 632 b 306 681 350 667 333 681 b 158 643 268 681 210 661 b 54 564 65 610 54 585 b 110 453 54 515 124 539 l 65 167 b 190 -14 46 42 107 -14 z "},"į":{"ha":461,"x_min":0,"x_max":0,"o":"m 218 743 b 382 888 299 743 381 810 b 282 982 382 942 338 982 b 124 835 203 983 124 907 b 218 743 122 786 157 743 z m 385 -144 b 336 -157 367 -153 350 -157 b 271 -90 292 -157 271 -126 b 322 25 271 -60 283 -22 b 397 144 371 60 396 108 b 372 175 397 168 382 175 b 308 136 351 175 335 136 b 283 204 288 136 275 153 l 344 632 b 306 681 350 667 333 681 b 158 643 268 681 210 661 b 54 564 65 610 54 585 b 110 453 54 515 124 539 l 65 167 b 190 -14 46 42 107 -14 b 143 -118 158 -46 143 -82 b 283 -239 143 -189 199 -239 b 411 -186 336 -239 383 -217 b 385 -144 433 -161 422 -126 z "},"j":{"ha":410,"x_min":0,"x_max":0,"o":"m 240 743 b 404 888 321 743 403 810 b 304 982 404 942 360 982 b 146 835 225 983 146 907 b 240 743 144 786 179 743 z m -17 -292 b 263 -26 186 -292 240 -178 l 361 632 b 322 681 365 667 350 681 b 164 643 283 681 215 661 b 60 564 71 610 60 585 b 90 525 60 547 71 536 b 115 453 111 517 122 501 l 51 14 b -111 -214 31 -137 0 -172 b -17 -292 -165 -235 -149 -292 z "},"ȷ":{"ha":410,"x_min":0,"x_max":0,"o":"m -17 -292 b 263 -26 186 -292 240 -178 l 361 632 b 322 681 365 667 350 681 b 164 643 283 681 215 661 b 60 564 71 610 60 585 b 90 525 60 547 71 536 b 115 453 111 517 122 501 l 51 14 b -111 -214 31 -137 0 -172 b -17 -292 -165 -235 -149 -292 z "},"k":{"ha":803,"x_min":0,"x_max":0,"o":"m 731 163 b 665 126 711 163 697 126 b 511 308 608 126 553 207 b 743 540 638 353 743 428 b 578 681 743 628 665 681 b 351 582 492 681 413 647 l 400 946 b 361 993 404 981 389 993 b 201 957 324 993 257 981 b 96 878 115 921 96 901 b 167 774 96 828 181 858 l 64 29 b 101 -14 60 1 75 -19 l 239 18 b 281 61 261 24 276 36 l 307 260 b 344 265 319 261 332 263 b 572 -14 378 106 439 -14 b 753 129 685 -14 753 68 b 731 163 753 144 749 163 z m 324 382 b 471 558 346 485 407 558 b 550 481 524 558 551 522 b 319 346 547 396 411 347 z "},"l":{"ha":451,"x_min":0,"x_max":0,"o":"m 211 -14 b 404 144 332 -14 403 83 b 379 175 404 168 389 175 b 315 136 358 175 342 136 b 292 204 294 136 286 153 l 396 939 b 358 986 401 972 386 986 b 199 950 319 986 251 968 b 96 871 106 917 96 892 b 154 760 96 824 165 846 l 72 169 b 211 -14 51 31 108 -14 z "},"ĺ":{"ha":451,"x_min":0,"x_max":0,"o":"m 235 1096 b 496 1194 307 1069 468 1115 b 428 1304 515 1251 489 1304 b 319 1247 394 1304 357 1278 b 215 1129 271 1206 224 1154 b 235 1096 210 1114 215 1103 z m 211 -14 b 404 144 332 -14 403 83 b 379 175 404 168 389 175 b 315 136 358 175 342 136 b 292 204 294 136 286 153 l 396 939 b 358 986 401 972 386 986 b 199 950 319 986 251 968 b 96 871 106 917 96 892 b 154 760 96 824 165 846 l 72 169 b 211 -14 51 31 108 -14 z "},"ľ":{"ha":451,"x_min":0,"x_max":0,"o":"m 211 -14 b 404 144 332 -14 403 83 b 379 175 404 168 389 175 b 315 136 358 175 342 136 b 292 204 294 136 286 153 l 396 939 b 358 986 401 972 386 986 b 199 950 319 986 251 968 b 96 871 106 917 96 892 b 154 760 96 824 165 846 l 72 169 b 211 -14 51 31 108 -14 z m 436 642 b 617 900 488 642 606 821 b 553 981 624 946 599 981 b 467 899 514 981 482 957 b 413 675 460 878 429 740 b 436 642 408 653 418 642 z "},"ł":{"ha":451,"x_min":0,"x_max":0,"o":"m 436 585 b 376 610 418 617 399 621 l 347 593 l 396 939 b 358 986 401 972 386 986 b 199 950 319 986 251 968 b 96 871 106 917 96 892 b 154 760 96 824 165 846 l 113 456 l 14 399 b 6 336 -10 386 -14 368 b 63 314 22 306 42 301 l 94 332 l 72 169 b 211 -14 51 31 108 -14 b 404 144 332 -14 403 83 b 379 175 404 168 389 175 b 315 136 358 175 342 136 b 292 204 294 136 286 153 l 329 468 l 426 524 b 436 585 454 540 453 558 z "},"m":{"ha":1303,"x_min":0,"x_max":0,"o":"m 1231 175 b 1167 136 1210 175 1193 136 b 1144 204 1146 136 1142 153 l 1160 406 b 967 681 1174 567 1122 681 b 742 547 894 681 807 639 b 567 681 719 631 658 681 b 317 535 493 681 399 653 l 332 632 b 294 679 338 667 321 679 b 158 642 256 679 210 660 b 56 563 67 608 56 585 b 111 451 56 515 122 538 l 42 28 b 79 -14 38 0 54 -19 l 218 18 b 260 63 240 24 256 38 l 276 153 b 485 551 336 461 426 551 b 519 344 535 551 542 497 l 474 29 b 510 -14 469 0 485 -19 l 649 19 b 690 63 671 24 685 38 l 707 153 b 901 551 767 461 843 551 b 947 396 953 551 956 494 l 929 171 b 1049 -14 919 42 965 -14 b 1256 144 1182 -14 1254 83 b 1231 175 1256 168 1240 175 z "},"n":{"ha":903,"x_min":0,"x_max":0,"o":"m 831 175 b 767 136 808 175 793 136 b 744 204 746 136 740 153 l 760 406 b 569 681 774 567 726 681 b 313 518 464 681 376 622 l 331 632 b 293 679 336 667 319 679 b 158 642 254 679 208 660 b 54 563 65 608 54 585 b 110 451 54 515 122 538 l 49 29 b 86 -14 44 1 60 -19 l 225 19 b 265 63 247 25 261 38 l 281 153 b 496 551 335 461 440 551 b 549 396 557 551 558 494 l 529 171 b 656 -14 517 42 572 -14 b 856 144 782 -14 854 83 b 831 175 856 168 840 175 z "},"ń":{"ha":903,"x_min":0,"x_max":0,"o":"m 393 781 b 654 879 465 754 626 800 b 586 989 674 936 647 989 b 478 932 553 989 515 963 b 374 814 429 890 382 839 b 393 781 368 799 374 788 z m 831 175 b 767 136 808 175 793 136 b 744 204 746 136 740 153 l 760 406 b 569 681 774 567 726 681 b 313 518 464 681 376 622 l 331 632 b 293 679 336 667 319 679 b 158 642 254 679 208 660 b 54 563 65 608 54 585 b 110 451 54 515 122 538 l 49 29 b 86 -14 44 1 60 -19 l 225 19 b 265 63 247 25 261 38 l 281 153 b 496 551 335 461 440 551 b 549 396 557 551 558 494 l 529 171 b 656 -14 517 42 572 -14 b 856 144 782 -14 854 83 b 831 175 856 168 840 175 z "},"ň":{"ha":903,"x_min":0,"x_max":0,"o":"m 515 806 b 650 890 583 806 590 822 b 738 1013 689 935 735 990 b 717 1035 740 1026 735 1035 b 535 928 672 1035 594 979 b 382 1035 488 979 426 1035 b 353 1013 365 1035 356 1026 b 404 896 351 990 378 939 b 515 806 443 832 458 806 z m 831 175 b 767 136 808 175 793 136 b 744 204 746 136 740 153 l 760 406 b 569 681 774 567 726 681 b 313 518 464 681 376 622 l 331 632 b 293 679 336 667 319 679 b 158 642 254 679 208 660 b 54 563 65 608 54 585 b 110 451 54 515 122 538 l 49 29 b 86 -14 44 1 60 -19 l 225 19 b 265 63 247 25 261 38 l 281 153 b 496 551 335 461 440 551 b 549 396 557 551 558 494 l 529 171 b 656 -14 517 42 572 -14 b 856 144 782 -14 854 83 b 831 175 856 168 840 175 z "},"ñ":{"ha":903,"x_min":0,"x_max":0,"o":"m 322 760 b 376 801 325 793 350 801 b 607 743 460 801 535 743 b 735 846 689 743 728 799 b 686 899 744 914 692 933 b 631 857 682 864 658 857 b 401 915 588 857 476 915 b 272 811 318 915 279 858 b 322 760 263 744 317 724 z m 831 175 b 767 136 808 175 793 136 b 744 204 746 136 740 153 l 760 406 b 569 681 774 567 726 681 b 313 518 464 681 376 622 l 331 632 b 293 679 336 667 319 679 b 158 642 254 679 208 660 b 54 563 65 608 54 585 b 110 451 54 515 122 538 l 49 29 b 86 -14 44 1 60 -19 l 225 19 b 265 63 247 25 261 38 l 281 153 b 496 551 335 461 440 551 b 549 396 557 551 558 494 l 529 171 b 656 -14 517 42 572 -14 b 856 144 782 -14 854 83 b 831 175 856 168 840 175 z "},"o":{"ha":831,"x_min":0,"x_max":0,"o":"m 368 -14 b 783 393 601 -14 783 153 b 471 681 783 557 667 681 b 50 281 246 681 50 503 b 368 -14 50 100 171 -14 z m 379 83 b 275 264 308 83 276 160 b 447 585 276 407 336 585 b 546 411 519 585 546 506 b 379 83 546 272 486 83 z "},"ó":{"ha":831,"x_min":0,"x_max":0,"o":"m 376 775 b 638 874 449 749 610 794 b 569 983 657 931 631 983 b 461 926 536 983 499 957 b 357 808 413 885 365 833 b 376 775 351 793 357 782 z m 368 -14 b 783 393 601 -14 783 153 b 471 681 783 557 667 681 b 50 281 246 681 50 503 b 368 -14 50 100 171 -14 z m 379 83 b 275 264 308 83 276 160 b 447 585 276 407 336 585 b 546 411 519 585 546 506 b 379 83 546 272 486 83 z "},"ô":{"ha":831,"x_min":0,"x_max":0,"o":"m 326 744 b 508 851 371 743 449 800 b 661 744 556 800 617 743 b 689 767 679 744 688 753 b 635 889 693 789 661 844 b 525 974 594 957 593 974 b 388 883 468 974 446 947 b 304 767 350 840 308 789 b 326 744 303 753 310 744 z m 368 -14 b 783 393 601 -14 783 153 b 471 681 783 557 667 681 b 50 281 246 681 50 503 b 368 -14 50 100 171 -14 z m 379 83 b 275 264 308 83 276 160 b 447 585 276 407 336 585 b 546 411 519 585 546 506 b 379 83 546 272 486 83 z "},"ö":{"ha":831,"x_min":0,"x_max":0,"o":"m 346 760 b 460 863 406 760 460 803 b 375 944 460 913 425 944 b 268 833 314 944 268 890 b 346 760 268 789 303 760 z m 589 760 b 700 863 647 760 700 803 b 615 944 700 913 667 944 b 508 833 556 944 508 890 b 589 760 508 789 543 760 z m 368 -14 b 783 393 601 -14 783 153 b 471 681 783 557 667 681 b 50 281 246 681 50 503 b 368 -14 50 100 171 -14 z m 379 83 b 275 264 308 83 276 160 b 447 585 276 407 336 585 b 546 411 519 585 546 506 b 379 83 546 272 486 83 z "},"ò":{"ha":831,"x_min":0,"x_max":0,"o":"m 592 775 b 611 808 611 782 617 793 b 508 926 603 833 556 885 b 379 981 463 964 417 994 b 331 874 336 965 313 925 b 592 775 358 794 519 749 z m 368 -14 b 783 393 601 -14 783 153 b 471 681 783 557 667 681 b 50 281 246 681 50 503 b 368 -14 50 100 171 -14 z m 379 83 b 275 264 308 83 276 160 b 447 585 276 407 336 585 b 546 411 519 585 546 506 b 379 83 546 272 486 83 z "},"ő":{"ha":831,"x_min":0,"x_max":0,"o":"m 333 746 b 518 904 401 746 518 832 b 446 978 518 953 486 978 b 358 896 411 978 383 940 b 308 768 332 846 308 790 b 333 746 308 753 317 746 z m 557 744 b 744 899 626 744 744 826 b 676 971 744 944 714 971 b 586 893 642 971 614 935 b 528 765 556 843 528 786 b 557 744 528 753 539 744 z m 368 -14 b 783 393 601 -14 783 153 b 471 681 783 557 667 681 b 50 281 246 681 50 503 b 368 -14 50 100 171 -14 z m 379 83 b 275 264 308 83 276 160 b 447 585 276 407 336 585 b 546 411 519 585 546 506 b 379 83 546 272 486 83 z "},"ō":{"ha":831,"x_min":0,"x_max":0,"o":"m 621 764 b 711 819 690 764 697 769 b 650 865 722 857 714 865 l 338 865 b 256 810 278 865 269 858 b 308 764 244 771 251 764 z m 368 -14 b 783 393 601 -14 783 153 b 471 681 783 557 667 681 b 50 281 246 681 50 503 b 368 -14 50 100 171 -14 z m 379 83 b 275 264 308 83 276 160 b 447 585 276 407 336 585 b 546 411 519 585 546 506 b 379 83 546 272 486 83 z "},"ø":{"ha":831,"x_min":0,"x_max":0,"o":"m 724 769 b 731 793 728 778 731 786 b 689 826 731 814 710 826 b 639 797 671 826 651 821 l 565 669 b 471 681 536 676 504 681 b 50 281 246 681 50 503 b 193 25 50 163 101 72 l 117 -107 b 108 -132 113 -115 108 -125 b 150 -165 108 -153 128 -165 b 201 -135 167 -165 188 -158 l 276 -4 b 368 -14 304 -11 335 -14 b 783 393 601 -14 783 153 b 647 638 783 499 735 588 z m 275 264 b 447 585 276 407 336 585 b 503 563 471 585 489 576 l 283 182 b 275 264 278 207 275 235 z m 379 83 b 335 96 363 83 347 88 l 543 457 b 546 411 544 443 546 428 b 379 83 546 272 486 83 z "},"õ":{"ha":831,"x_min":0,"x_max":0,"o":"m 592 738 b 719 840 674 738 713 793 b 671 893 729 908 676 928 b 615 851 667 858 643 851 b 386 910 572 851 461 910 b 257 806 303 910 264 853 b 307 754 247 739 301 718 b 361 796 310 788 335 796 b 592 738 444 796 519 738 z m 368 -14 b 783 393 601 -14 783 153 b 471 681 783 557 667 681 b 50 281 246 681 50 503 b 368 -14 50 100 171 -14 z m 379 83 b 275 264 308 83 276 160 b 447 585 276 407 336 585 b 546 411 519 585 546 506 b 379 83 546 272 486 83 z "},"œ":{"ha":1286,"x_min":0,"x_max":0,"o":"m 1163 206 b 968 135 1111 167 1049 135 b 813 233 899 135 840 172 b 1233 521 982 256 1233 331 b 1019 681 1233 626 1133 681 b 724 574 900 681 799 639 b 471 681 669 640 583 681 b 50 281 246 681 50 503 b 368 -14 50 100 171 -14 b 640 79 474 -14 568 19 b 875 -14 692 18 772 -14 b 1204 165 1049 -14 1167 85 b 1163 206 1225 210 1197 233 z m 964 589 b 1058 496 1024 589 1058 546 b 819 328 1058 375 885 338 b 785 360 797 325 785 335 b 964 589 785 471 850 589 z m 379 83 b 275 264 308 83 276 160 b 447 585 276 407 336 585 b 546 411 519 585 546 506 b 379 83 546 272 486 83 z "},"p":{"ha":835,"x_min":0,"x_max":0,"o":"m 583 678 b 335 563 483 678 399 635 l 344 633 b 306 681 350 667 333 681 b 160 643 268 681 215 667 b 54 564 72 608 54 588 b 122 444 54 515 135 531 l 44 -112 b -43 -243 33 -193 -37 -197 b 21 -278 -47 -268 -25 -278 l 243 -278 b 313 -244 283 -278 308 -271 b 263 -112 319 -196 253 -193 l 279 17 b 406 -6 319 4 363 -6 b 789 379 582 -6 761 156 b 583 678 811 564 719 678 z m 397 85 b 306 250 331 85 294 149 b 485 546 326 425 408 546 b 571 417 556 546 571 469 b 397 85 571 225 493 83 z "},"þ":{"ha":822,"x_min":0,"x_max":0,"o":"m 583 681 b 338 558 483 681 396 629 l 392 940 b 363 988 396 971 389 988 b 147 919 340 988 208 946 b 97 872 113 904 100 893 b 115 832 94 854 106 843 b 143 750 136 814 149 793 l 25 -111 b -64 -242 13 -192 -57 -196 b 0 -276 -67 -268 -44 -276 l 224 -276 b 292 -243 264 -276 289 -269 b 243 -111 300 -194 231 -192 l 263 24 b 394 -6 318 1 357 -6 b 776 382 571 -6 750 156 b 583 681 800 567 708 681 z m 385 85 b 294 250 319 85 282 149 b 297 268 296 257 296 263 l 299 278 b 474 547 324 449 401 547 b 558 418 543 547 558 472 b 385 85 560 225 481 83 z "},"q":{"ha":843,"x_min":0,"x_max":0,"o":"m 779 626 b 732 685 783 656 768 685 b 606 651 696 685 640 651 b 449 681 571 651 533 681 b 46 238 240 681 46 485 b 283 -14 46 89 131 -14 b 478 60 358 -14 422 10 l 457 -112 b 369 -243 446 -193 375 -197 b 433 -278 365 -268 388 -278 l 656 -278 b 725 -244 696 -278 721 -271 b 675 -112 732 -196 664 -193 z m 372 115 b 271 282 301 115 269 192 b 439 583 272 433 325 583 b 544 536 482 583 547 560 l 525 371 b 372 115 511 250 467 115 z "},"r":{"ha":638,"x_min":0,"x_max":0,"o":"m 524 678 b 321 557 461 678 385 640 l 331 632 b 293 679 336 667 319 679 b 158 642 254 679 208 660 b 54 563 65 608 54 585 b 110 451 54 515 122 538 l 47 28 b 85 -14 43 0 60 -19 l 224 18 b 265 61 246 24 263 36 l 278 164 b 428 521 314 461 382 521 b 539 442 481 521 467 440 b 626 547 582 442 618 479 b 524 678 636 624 597 678 z "},"ŕ":{"ha":638,"x_min":0,"x_max":0,"o":"m 256 760 b 517 858 328 733 489 779 b 449 968 536 915 510 968 b 340 911 415 968 378 942 b 236 793 292 869 244 818 b 256 760 231 778 236 767 z m 524 678 b 321 557 461 678 385 640 l 331 632 b 293 679 336 667 319 679 b 158 642 254 679 208 660 b 54 563 65 608 54 585 b 110 451 54 515 122 538 l 47 28 b 85 -14 43 0 60 -19 l 224 18 b 265 61 246 24 263 36 l 278 164 b 428 521 314 461 382 521 b 539 442 481 521 467 440 b 626 547 582 442 618 479 b 524 678 636 624 597 678 z "},"ř":{"ha":638,"x_min":0,"x_max":0,"o":"m 378 785 b 513 869 446 785 453 801 b 600 992 551 914 597 969 b 579 1014 603 1006 597 1014 b 397 907 535 1014 457 958 b 244 1014 350 958 289 1014 b 215 992 228 1014 218 1006 b 267 875 214 969 240 918 b 378 785 306 811 321 785 z m 524 678 b 321 557 461 678 385 640 l 331 632 b 293 679 336 667 319 679 b 158 642 254 679 208 660 b 54 563 65 608 54 585 b 110 451 54 515 122 538 l 47 28 b 85 -14 43 0 60 -19 l 224 18 b 265 61 246 24 263 36 l 278 164 b 428 521 314 461 382 521 b 539 442 481 521 467 440 b 626 547 582 442 618 479 b 524 678 636 624 597 678 z "},"s":{"ha":694,"x_min":0,"x_max":0,"o":"m 343 -14 b 632 192 485 -14 610 63 b 442 419 650 290 585 349 b 303 539 343 467 296 496 b 379 590 307 563 332 590 b 538 514 438 590 493 551 b 613 471 574 482 588 465 b 633 540 635 476 643 494 b 615 608 626 572 622 588 b 397 681 588 678 442 681 b 89 494 253 681 111 621 b 244 264 68 379 151 310 b 411 126 358 210 419 171 b 340 76 407 99 383 76 b 121 203 243 76 167 151 b 54 249 90 235 79 256 b 29 188 35 243 22 224 b 54 81 38 144 43 115 b 343 -14 79 -1 203 -14 z "},"":{"ha":694,"x_min":0,"x_max":0,"o":"m 343 -14 b 632 192 485 -14 610 63 b 442 419 650 290 585 349 b 303 539 343 467 296 496 b 379 590 307 563 332 590 b 538 514 438 590 493 551 b 613 471 574 482 588 465 b 633 540 635 476 643 494 b 615 608 626 572 622 588 b 397 681 588 678 442 681 b 89 494 253 681 111 621 b 244 264 68 379 151 310 b 411 126 358 210 419 171 b 340 76 407 99 383 76 b 121 203 243 76 167 151 b 54 249 90 235 79 256 b 29 188 35 243 22 224 b 54 81 38 144 43 115 b 343 -14 79 -1 203 -14 z "},"ś":{"ha":694,"x_min":0,"x_max":0,"o":"m 286 775 b 547 874 358 749 519 794 b 479 983 567 931 540 983 b 371 926 446 983 408 957 b 267 808 322 885 275 833 b 286 775 261 793 267 782 z m 343 -14 b 632 192 485 -14 610 63 b 442 419 650 290 585 349 b 303 539 343 467 296 496 b 379 590 307 563 332 590 b 538 514 438 590 493 551 b 613 471 574 482 588 465 b 633 540 635 476 643 494 b 615 608 626 572 622 588 b 397 681 588 678 442 681 b 89 494 253 681 111 621 b 244 264 68 379 151 310 b 411 126 358 210 419 171 b 340 76 407 99 383 76 b 121 203 243 76 167 151 b 54 249 90 235 79 256 b 29 188 35 243 22 224 b 54 81 38 144 43 115 b 343 -14 79 -1 203 -14 z "},"š":{"ha":694,"x_min":0,"x_max":0,"o":"m 408 800 b 543 885 476 800 483 817 b 631 1007 582 929 628 985 b 610 1029 633 1021 628 1029 b 428 922 565 1029 488 974 b 275 1029 381 974 319 1029 b 246 1007 258 1029 249 1021 b 297 890 244 985 271 933 b 408 800 336 826 351 800 z m 343 -14 b 632 192 485 -14 610 63 b 442 419 650 290 585 349 b 303 539 343 467 296 496 b 379 590 307 563 332 590 b 538 514 438 590 493 551 b 613 471 574 482 588 465 b 633 540 635 476 643 494 b 615 608 626 572 622 588 b 397 681 588 678 442 681 b 89 494 253 681 111 621 b 244 264 68 379 151 310 b 411 126 358 210 419 171 b 340 76 407 99 383 76 b 121 203 243 76 167 151 b 54 249 90 235 79 256 b 29 188 35 243 22 224 b 54 81 38 144 43 115 b 343 -14 79 -1 203 -14 z "},"ş":{"ha":694,"x_min":0,"x_max":0,"o":"m 442 419 b 303 539 343 467 296 496 b 379 590 307 563 332 590 b 538 514 438 590 493 551 b 613 471 574 482 588 465 b 633 540 635 476 643 494 b 615 608 626 572 622 588 b 397 681 588 678 442 681 b 89 494 253 681 111 621 b 244 264 68 379 151 310 b 411 126 358 210 419 171 b 340 76 407 99 383 76 b 121 203 243 76 167 151 b 54 249 90 235 79 256 b 29 188 35 243 22 224 b 54 81 38 144 43 115 b 243 -11 74 19 147 -3 l 199 -93 b 215 -121 190 -108 201 -118 b 304 -187 253 -129 304 -142 b 247 -237 304 -214 285 -237 b 193 -221 226 -237 208 -231 b 158 -251 161 -201 140 -229 b 279 -300 178 -276 219 -300 b 419 -181 358 -300 419 -251 b 289 -69 419 -111 358 -81 l 319 -14 l 343 -14 b 632 192 485 -14 610 63 b 442 419 650 290 585 349 z "},"ß":{"ha":851,"x_min":0,"x_max":0,"o":"m 157 -112 b 200 -75 179 -107 196 -100 l 304 667 b 414 892 321 785 332 892 b 469 800 467 892 475 844 b 363 483 457 714 375 567 b 499 283 349 378 414 340 b 621 139 585 225 626 185 b 551 79 615 104 590 79 b 376 196 465 79 406 154 b 338 233 364 215 354 233 b 296 169 314 233 300 203 b 317 50 289 122 294 76 b 506 -15 356 6 443 -15 b 811 217 672 -15 792 85 b 653 461 826 336 736 408 b 492 599 524 542 488 563 b 643 824 500 650 626 710 b 454 988 657 925 581 988 b 86 663 254 988 113 847 l -1 57 b -32 -90 -14 -33 -17 -67 b -1 -146 -58 -131 -39 -156 z "},"t":{"ha":579,"x_min":0,"x_max":0,"o":"m 378 660 b 403 799 386 703 393 749 b 364 842 407 828 390 847 l 228 810 b 186 767 204 804 190 792 l 163 635 l 94 624 b 38 571 63 619 43 604 b 78 518 29 528 46 515 l 144 525 b 96 211 124 408 104 283 b 276 -14 78 67 146 -14 b 504 164 400 -14 504 83 b 458 179 504 189 482 207 b 376 135 436 150 403 135 b 325 296 333 135 308 163 b 358 536 335 371 346 449 l 486 546 b 572 607 518 550 547 549 b 536 679 594 663 588 686 z "},"ŧ":{"ha":579,"x_min":0,"x_max":0,"o":"m 378 660 b 403 799 386 703 393 749 b 364 842 407 828 390 847 l 228 810 b 186 767 204 804 190 792 l 163 635 l 94 624 b 38 571 63 619 43 604 b 78 518 29 528 46 515 l 144 525 b 129 438 139 496 135 467 l 57 438 b 18 394 32 438 18 424 b 57 350 18 364 32 350 l 115 350 b 96 211 107 296 100 247 b 276 -14 78 67 146 -14 b 504 164 400 -14 504 83 b 458 179 504 189 482 207 b 376 135 436 150 403 135 b 325 296 333 135 308 163 b 332 350 328 314 331 332 l 393 350 b 432 394 418 350 432 364 b 393 438 432 424 418 438 l 344 438 b 358 536 349 469 354 503 l 486 546 b 572 607 518 550 547 549 b 536 679 594 663 588 686 z "},"ť":{"ha":579,"x_min":0,"x_max":0,"o":"m 606 1090 b 519 1008 567 1090 535 1067 b 465 785 513 988 482 850 b 489 751 461 763 471 751 b 669 1010 540 751 658 931 b 606 1090 676 1056 651 1090 z m 378 660 b 403 799 386 703 393 749 b 364 842 407 828 390 847 l 228 810 b 186 767 204 804 190 792 l 163 635 l 94 624 b 38 571 63 619 43 604 b 78 518 29 528 46 515 l 144 525 b 96 211 124 408 104 283 b 276 -14 78 67 146 -14 b 504 164 400 -14 504 83 b 458 179 504 189 482 207 b 376 135 436 150 403 135 b 325 296 333 135 308 163 b 358 536 335 371 346 449 l 486 546 b 572 607 518 550 547 549 b 536 679 594 663 588 686 z "},"u":{"ha":901,"x_min":0,"x_max":0,"o":"m 818 175 b 754 136 797 175 781 136 b 732 206 733 136 725 154 l 797 636 b 760 678 801 664 785 685 l 621 646 b 579 603 599 640 583 628 l 563 497 b 350 111 514 188 415 111 b 300 317 278 111 275 172 l 351 632 b 314 679 357 667 340 679 b 158 642 275 679 208 660 b 54 563 65 608 54 585 b 110 451 54 515 122 539 l 79 260 b 282 -14 54 94 110 -14 b 510 106 368 -14 442 25 b 638 -14 514 19 571 -14 b 843 144 769 -14 842 83 b 818 175 843 168 828 175 z "},"ú":{"ha":901,"x_min":0,"x_max":0,"o":"m 417 758 b 678 857 489 732 650 778 b 610 967 697 914 671 967 b 501 910 576 967 539 940 b 397 792 453 868 406 817 b 417 758 392 776 397 765 z m 818 175 b 754 136 797 175 781 136 b 732 206 733 136 725 154 l 797 636 b 760 678 801 664 785 685 l 621 646 b 579 603 599 640 583 628 l 563 497 b 350 111 514 188 415 111 b 300 317 278 111 275 172 l 351 632 b 314 679 357 667 340 679 b 158 642 275 679 208 660 b 54 563 65 608 54 585 b 110 451 54 515 122 539 l 79 260 b 282 -14 54 94 110 -14 b 510 106 368 -14 442 25 b 638 -14 514 19 571 -14 b 843 144 769 -14 842 83 b 818 175 843 168 828 175 z "},"û":{"ha":901,"x_min":0,"x_max":0,"o":"m 365 728 b 547 835 410 726 488 783 b 700 728 594 783 656 726 b 728 750 718 728 726 736 b 674 872 732 772 700 828 b 564 957 633 940 632 957 b 426 867 507 957 485 931 b 343 750 389 824 347 772 b 365 728 342 736 349 728 z m 818 175 b 754 136 797 175 781 136 b 732 206 733 136 725 154 l 797 636 b 760 678 801 664 785 685 l 621 646 b 579 603 599 640 583 628 l 563 497 b 350 111 514 188 415 111 b 300 317 278 111 275 172 l 351 632 b 314 679 357 667 340 679 b 158 642 275 679 208 660 b 54 563 65 608 54 585 b 110 451 54 515 122 539 l 79 260 b 282 -14 54 94 110 -14 b 510 106 368 -14 442 25 b 638 -14 514 19 571 -14 b 843 144 769 -14 842 83 b 818 175 843 168 828 175 z "},"ü":{"ha":901,"x_min":0,"x_max":0,"o":"m 385 743 b 499 846 444 743 499 786 b 414 928 499 896 464 928 b 307 817 353 928 307 874 b 385 743 307 772 342 743 z m 628 743 b 739 846 686 743 739 786 b 654 928 739 896 706 928 b 547 817 594 928 547 874 b 628 743 547 772 582 743 z m 818 175 b 754 136 797 175 781 136 b 732 206 733 136 725 154 l 797 636 b 760 678 801 664 785 685 l 621 646 b 579 603 599 640 583 628 l 563 497 b 350 111 514 188 415 111 b 300 317 278 111 275 172 l 351 632 b 314 679 357 667 340 679 b 158 642 275 679 208 660 b 54 563 65 608 54 585 b 110 451 54 515 122 539 l 79 260 b 282 -14 54 94 110 -14 b 510 106 368 -14 442 25 b 638 -14 514 19 571 -14 b 843 144 769 -14 842 83 b 818 175 843 168 828 175 z "},"ù":{"ha":901,"x_min":0,"x_max":0,"o":"m 631 758 b 650 792 650 765 656 776 b 547 910 642 817 594 868 b 418 964 501 947 456 978 b 369 857 375 949 351 908 b 631 758 397 778 558 732 z m 818 175 b 754 136 797 175 781 136 b 732 206 733 136 725 154 l 797 636 b 760 678 801 664 785 685 l 621 646 b 579 603 599 640 583 628 l 563 497 b 350 111 514 188 415 111 b 300 317 278 111 275 172 l 351 632 b 314 679 357 667 340 679 b 158 642 275 679 208 660 b 54 563 65 608 54 585 b 110 451 54 515 122 539 l 79 260 b 282 -14 54 94 110 -14 b 510 106 368 -14 442 25 b 638 -14 514 19 571 -14 b 843 144 769 -14 842 83 b 818 175 843 168 828 175 z "},"ű":{"ha":901,"x_min":0,"x_max":0,"o":"m 372 729 b 557 888 440 729 557 815 b 485 961 557 936 525 961 b 397 879 450 961 422 924 b 347 751 371 829 347 774 b 372 729 347 736 356 729 z m 596 728 b 783 882 665 728 783 810 b 715 954 783 928 753 954 b 625 876 681 954 653 918 b 567 749 594 826 567 769 b 596 728 567 736 578 728 z m 818 175 b 754 136 797 175 781 136 b 732 206 733 136 725 154 l 797 636 b 760 678 801 664 785 685 l 621 646 b 579 603 599 640 583 628 l 563 497 b 350 111 514 188 415 111 b 300 317 278 111 275 172 l 351 632 b 314 679 357 667 340 679 b 158 642 275 679 208 660 b 54 563 65 608 54 585 b 110 451 54 515 122 539 l 79 260 b 282 -14 54 94 110 -14 b 510 106 368 -14 442 25 b 638 -14 514 19 571 -14 b 843 144 769 -14 842 83 b 818 175 843 168 828 175 z "},"ū":{"ha":901,"x_min":0,"x_max":0,"o":"m 660 747 b 750 803 729 747 736 753 b 689 849 761 840 753 849 l 376 849 b 294 793 317 849 308 842 b 347 747 283 754 290 747 z m 818 175 b 754 136 797 175 781 136 b 732 206 733 136 725 154 l 797 636 b 760 678 801 664 785 685 l 621 646 b 579 603 599 640 583 628 l 563 497 b 350 111 514 188 415 111 b 300 317 278 111 275 172 l 351 632 b 314 679 357 667 340 679 b 158 642 275 679 208 660 b 54 563 65 608 54 585 b 110 451 54 515 122 539 l 79 260 b 282 -14 54 94 110 -14 b 510 106 368 -14 442 25 b 638 -14 514 19 571 -14 b 843 144 769 -14 842 83 b 818 175 843 168 828 175 z "},"ģ":{"ha":810,"x_min":0,"x_max":0,"o":"m 467 728 b 560 810 515 728 553 761 b 522 889 565 849 549 868 b 499 931 504 901 496 914 b 533 981 501 944 511 960 b 476 981 554 1001 522 1018 b 385 826 436 949 394 894 b 467 728 375 760 414 728 z m 757 782 b 690 747 728 782 708 768 b 550 675 629 685 581 675 b 454 679 518 675 503 679 l 453 679 b 85 389 251 679 85 549 b 168 235 85 318 117 268 b 46 101 93 201 56 157 b 115 -21 39 46 65 4 b 14 -128 60 -42 21 -85 b 310 -292 -1 -246 142 -292 b 756 -40 547 -292 733 -194 b 581 113 769 58 707 113 b 332 96 515 113 413 96 b 206 158 271 96 200 108 b 242 204 208 178 224 193 b 374 189 281 194 326 189 b 728 471 574 189 728 304 b 665 614 728 529 706 578 b 813 719 731 621 808 653 b 757 782 815 756 790 782 z m 397 272 b 299 406 331 272 299 331 b 421 594 299 494 342 594 b 518 460 490 594 518 531 b 397 272 518 371 478 272 z m 264 -67 b 493 -60 347 -69 408 -60 b 554 -110 543 -58 558 -81 b 363 -199 549 -161 493 -199 b 183 -118 247 -199 178 -172 b 264 -67 190 -78 229 -65 z "},"ķ":{"ha":803,"x_min":0,"x_max":0,"o":"m 731 163 b 665 126 711 163 697 126 b 511 308 608 126 553 207 b 743 540 638 353 743 428 b 578 681 743 628 665 681 b 351 582 492 681 413 647 l 400 946 b 361 993 404 981 389 993 b 201 957 324 993 257 981 b 96 878 115 921 96 901 b 167 774 96 828 181 858 l 64 29 b 101 -14 60 1 75 -19 l 239 18 b 281 61 261 24 276 36 l 307 260 b 344 265 319 261 332 263 b 572 -14 378 106 439 -14 b 753 129 685 -14 753 68 b 731 163 753 144 749 163 z m 324 382 b 471 558 346 485 407 558 b 550 481 524 558 551 522 b 319 346 547 396 411 347 z m 360 -65 b 257 -168 311 -65 257 -103 b 308 -293 257 -236 308 -247 b 254 -387 308 -342 254 -361 b 276 -406 254 -397 264 -406 b 454 -172 342 -406 454 -294 b 360 -65 454 -103 413 -65 z "},"ļ":{"ha":451,"x_min":0,"x_max":0,"o":"m 211 -14 b 404 144 332 -14 403 83 b 379 175 404 168 389 175 b 315 136 358 175 342 136 b 292 204 294 136 286 153 l 396 939 b 358 986 401 972 386 986 b 199 950 319 986 251 968 b 96 871 106 917 96 892 b 154 760 96 824 165 846 l 72 169 b 211 -14 51 31 108 -14 z m 115 -421 b 293 -187 181 -421 293 -310 b 199 -81 293 -118 251 -81 b 96 -183 150 -81 96 -118 b 147 -308 96 -251 147 -262 b 93 -403 147 -357 93 -376 b 115 -421 93 -412 103 -421 z "},"ņ":{"ha":903,"x_min":0,"x_max":0,"o":"m 831 175 b 767 136 808 175 793 136 b 744 204 746 136 740 153 l 760 406 b 569 681 774 567 726 681 b 313 518 464 681 376 622 l 331 632 b 293 679 336 667 319 679 b 158 642 254 679 208 660 b 54 563 65 608 54 585 b 110 451 54 515 122 538 l 49 29 b 86 -14 44 1 60 -19 l 225 19 b 265 63 247 25 261 38 l 281 153 b 496 551 335 461 440 551 b 549 396 557 551 558 494 l 529 171 b 656 -14 517 42 572 -14 b 856 144 782 -14 854 83 b 831 175 856 168 840 175 z m 400 -65 b 297 -168 351 -65 297 -103 b 349 -293 297 -236 349 -247 b 294 -387 349 -342 294 -361 b 317 -406 294 -397 304 -406 b 494 -172 382 -406 494 -294 b 400 -65 494 -103 453 -65 z "},"ŗ":{"ha":638,"x_min":0,"x_max":0,"o":"m 524 678 b 321 557 461 678 385 640 l 331 632 b 293 679 336 667 319 679 b 158 642 254 679 208 660 b 54 563 65 608 54 585 b 110 451 54 515 122 538 l 47 28 b 85 -14 43 0 60 -19 l 224 18 b 265 61 246 24 263 36 l 278 164 b 428 521 314 461 382 521 b 539 442 481 521 467 440 b 626 547 582 442 618 479 b 524 678 636 624 597 678 z m 125 -65 b 22 -168 76 -65 22 -103 b 74 -293 22 -236 74 -247 b 19 -387 74 -342 19 -361 b 42 -406 19 -397 29 -406 b 219 -172 107 -406 219 -294 b 125 -65 219 -103 178 -65 z "},"ţ":{"ha":579,"x_min":0,"x_max":0,"o":"m 378 660 b 403 799 386 703 393 749 b 364 842 407 828 390 847 l 228 810 b 186 767 204 804 190 792 l 163 635 l 94 624 b 38 571 63 619 43 604 b 78 518 29 528 46 515 l 144 525 b 96 211 124 408 104 283 b 215 -7 81 92 125 15 l 169 -93 b 186 -121 161 -108 172 -118 b 275 -187 224 -129 275 -142 b 218 -237 275 -214 256 -237 b 164 -221 197 -237 179 -231 b 129 -251 132 -201 111 -229 b 250 -300 149 -276 190 -300 b 390 -181 329 -300 390 -251 b 260 -69 390 -111 329 -81 l 290 -14 b 504 164 407 -7 504 86 b 458 179 504 189 482 207 b 376 135 436 150 403 135 b 325 296 333 135 308 163 b 358 536 335 371 346 449 l 486 546 b 572 607 518 550 547 549 b 536 679 594 663 588 686 z "},"ș":{"ha":694,"x_min":0,"x_max":0,"o":"m 343 -14 b 632 192 485 -14 610 63 b 442 419 650 290 585 349 b 303 539 343 467 296 496 b 379 590 307 563 332 590 b 538 514 438 590 493 551 b 613 471 574 482 588 465 b 633 540 635 476 643 494 b 615 608 626 572 622 588 b 397 681 588 678 442 681 b 89 494 253 681 111 621 b 244 264 68 379 151 310 b 411 126 358 210 419 171 b 340 76 407 99 383 76 b 121 203 243 76 167 151 b 54 249 90 235 79 256 b 29 188 35 243 22 224 b 54 81 38 144 43 115 b 343 -14 79 -1 203 -14 z m 218 -406 b 396 -172 283 -406 396 -294 b 301 -65 396 -103 354 -65 b 199 -168 253 -65 199 -103 b 250 -293 199 -236 250 -247 b 196 -387 250 -342 196 -361 b 218 -406 196 -397 206 -406 z "},"ț":{"ha":579,"x_min":0,"x_max":0,"o":"m 378 660 b 403 799 386 703 393 749 b 364 842 407 828 390 847 l 228 810 b 186 767 204 804 190 792 l 163 635 l 94 624 b 38 571 63 619 43 604 b 78 518 29 528 46 515 l 144 525 b 96 211 124 408 104 283 b 276 -14 78 67 146 -14 b 504 164 400 -14 504 83 b 458 179 504 189 482 207 b 376 135 436 150 403 135 b 325 296 333 135 308 163 b 358 536 335 371 346 449 l 486 546 b 572 607 518 550 547 549 b 536 679 594 663 588 686 z m 272 -65 b 169 -168 224 -65 169 -103 b 221 -293 169 -236 221 -247 b 167 -387 221 -342 167 -361 b 189 -406 167 -397 176 -406 b 367 -172 254 -406 367 -294 b 272 -65 367 -103 325 -65 z "},"ų":{"ha":901,"x_min":0,"x_max":0,"o":"m 783 -168 b 735 -181 765 -176 749 -181 b 669 -114 690 -181 669 -150 b 719 0 669 -83 682 -47 b 843 144 799 29 842 97 b 818 175 843 168 828 175 b 754 136 797 175 781 136 b 732 206 733 136 725 154 l 797 636 b 760 678 801 664 785 685 l 621 646 b 579 603 599 640 583 628 l 563 497 b 350 111 514 188 415 111 b 300 317 278 111 275 172 l 351 632 b 314 679 357 667 340 679 b 158 642 275 679 208 660 b 54 563 65 608 54 585 b 110 451 54 515 122 539 l 79 260 b 282 -14 54 94 110 -14 b 510 106 368 -14 442 25 b 617 -12 514 29 560 -6 b 542 -142 567 -50 542 -97 b 682 -262 542 -212 597 -262 b 810 -210 735 -262 782 -240 b 783 -168 832 -185 821 -150 z "},"ů":{"ha":901,"x_min":0,"x_max":0,"o":"m 508 701 b 688 851 596 701 675 760 b 556 997 700 940 640 997 b 376 847 467 997 388 938 b 508 701 364 760 422 701 z m 539 915 b 593 854 574 915 593 890 b 526 788 590 817 565 788 b 471 850 492 788 471 813 b 539 915 474 889 500 915 z m 818 175 b 754 136 797 175 781 136 b 732 206 733 136 725 154 l 797 636 b 760 678 801 664 785 685 l 621 646 b 579 603 599 640 583 628 l 563 497 b 350 111 514 188 415 111 b 300 317 278 111 275 172 l 351 632 b 314 679 357 667 340 679 b 158 642 275 679 208 660 b 54 563 65 608 54 585 b 110 451 54 515 122 539 l 79 260 b 282 -14 54 94 110 -14 b 510 106 368 -14 442 25 b 638 -14 514 19 571 -14 b 843 144 769 -14 842 83 b 818 175 843 168 828 175 z "},"v":{"ha":726,"x_min":0,"x_max":0,"o":"m 257 -14 b 707 572 517 -14 707 343 b 608 685 707 624 682 685 b 490 574 556 685 490 636 b 547 396 490 513 547 482 b 369 129 547 279 446 129 b 308 289 310 129 293 185 l 354 632 b 318 679 360 667 344 679 b 167 642 278 679 217 660 b 63 563 74 608 63 585 b 118 451 63 515 131 539 l 93 265 b 257 -14 68 76 139 -14 z "},"w":{"ha":1122,"x_min":0,"x_max":0,"o":"m 1000 685 b 882 574 947 685 882 636 b 939 396 882 513 939 482 b 778 129 939 251 864 129 b 717 289 718 129 703 185 l 761 632 b 722 681 764 665 750 681 b 583 646 683 681 622 665 b 542 583 558 635 547 622 l 513 357 b 369 129 483 203 439 129 b 308 289 310 129 293 181 l 354 632 b 318 679 360 667 344 679 b 167 642 278 679 217 660 b 63 563 74 608 63 585 b 118 451 63 515 131 539 l 93 265 b 281 -14 68 76 150 -14 b 513 96 394 -14 467 35 b 694 -14 540 22 603 -14 b 1099 553 965 -14 1099 344 b 1000 685 1099 624 1074 685 z "},"":{"ha":1122,"x_min":0,"x_max":0,"o":"m 1000 685 b 882 574 947 685 882 636 b 939 396 882 513 939 482 b 778 129 939 251 864 129 b 717 289 718 129 703 185 l 761 632 b 722 681 764 665 750 681 b 583 646 683 681 622 665 b 542 583 558 635 547 622 l 513 357 b 369 129 483 203 439 129 b 308 289 310 129 293 181 l 354 632 b 318 679 360 667 344 679 b 167 642 278 679 217 660 b 63 563 74 608 63 585 b 118 451 63 515 131 539 l 93 265 b 281 -14 68 76 150 -14 b 513 96 394 -14 467 35 b 694 -14 540 22 603 -14 b 1099 553 965 -14 1099 344 b 1000 685 1099 624 1074 685 z "},"ẃ":{"ha":1122,"x_min":0,"x_max":0,"o":"m 556 758 b 817 857 628 732 789 778 b 749 967 836 914 810 967 b 640 910 715 967 678 940 b 536 792 592 868 544 817 b 556 758 531 776 536 765 z m 1000 685 b 882 574 947 685 882 636 b 939 396 882 513 939 482 b 778 129 939 251 864 129 b 717 289 718 129 703 185 l 761 632 b 722 681 764 665 750 681 b 583 646 683 681 622 665 b 542 583 558 635 547 622 l 513 357 b 369 129 483 203 439 129 b 308 289 310 129 293 181 l 354 632 b 318 679 360 667 344 679 b 167 642 278 679 217 660 b 63 563 74 608 63 585 b 118 451 63 515 131 539 l 93 265 b 281 -14 68 76 150 -14 b 513 96 394 -14 467 35 b 694 -14 540 22 603 -14 b 1099 553 965 -14 1099 344 b 1000 685 1099 624 1074 685 z "},"ŵ":{"ha":1122,"x_min":0,"x_max":0,"o":"m 504 728 b 686 835 549 726 626 783 b 839 728 733 783 794 726 b 867 750 857 728 865 736 b 813 872 871 772 839 828 b 703 957 772 940 771 957 b 565 867 646 957 624 931 b 482 750 528 824 486 772 b 504 728 481 736 488 728 z m 1000 685 b 882 574 947 685 882 636 b 939 396 882 513 939 482 b 778 129 939 251 864 129 b 717 289 718 129 703 185 l 761 632 b 722 681 764 665 750 681 b 583 646 683 681 622 665 b 542 583 558 635 547 622 l 513 357 b 369 129 483 203 439 129 b 308 289 310 129 293 181 l 354 632 b 318 679 360 667 344 679 b 167 642 278 679 217 660 b 63 563 74 608 63 585 b 118 451 63 515 131 539 l 93 265 b 281 -14 68 76 150 -14 b 513 96 394 -14 467 35 b 694 -14 540 22 603 -14 b 1099 553 965 -14 1099 344 b 1000 685 1099 624 1074 685 z "},"ẅ":{"ha":1122,"x_min":0,"x_max":0,"o":"m 524 743 b 638 846 583 743 638 786 b 553 928 638 896 603 928 b 446 817 492 928 446 874 b 524 743 446 772 481 743 z m 767 743 b 878 846 825 743 878 786 b 793 928 878 896 844 928 b 686 817 733 928 686 874 b 767 743 686 772 721 743 z m 1000 685 b 882 574 947 685 882 636 b 939 396 882 513 939 482 b 778 129 939 251 864 129 b 717 289 718 129 703 185 l 761 632 b 722 681 764 665 750 681 b 583 646 683 681 622 665 b 542 583 558 635 547 622 l 513 357 b 369 129 483 203 439 129 b 308 289 310 129 293 181 l 354 632 b 318 679 360 667 344 679 b 167 642 278 679 217 660 b 63 563 74 608 63 585 b 118 451 63 515 131 539 l 93 265 b 281 -14 68 76 150 -14 b 513 96 394 -14 467 35 b 694 -14 540 22 603 -14 b 1099 553 965 -14 1099 344 b 1000 685 1099 624 1074 685 z "},"ẁ":{"ha":1122,"x_min":0,"x_max":0,"o":"m 769 758 b 789 792 789 765 794 776 b 686 910 781 817 733 868 b 557 964 640 947 594 978 b 508 857 514 949 490 908 b 769 758 536 778 697 732 z m 1000 685 b 882 574 947 685 882 636 b 939 396 882 513 939 482 b 778 129 939 251 864 129 b 717 289 718 129 703 185 l 761 632 b 722 681 764 665 750 681 b 583 646 683 681 622 665 b 542 583 558 635 547 622 l 513 357 b 369 129 483 203 439 129 b 308 289 310 129 293 181 l 354 632 b 318 679 360 667 344 679 b 167 642 278 679 217 660 b 63 563 74 608 63 585 b 118 451 63 515 131 539 l 93 265 b 281 -14 68 76 150 -14 b 513 96 394 -14 467 35 b 694 -14 540 22 603 -14 b 1099 553 965 -14 1099 344 b 1000 685 1099 624 1074 685 z "},"x":{"ha":769,"x_min":0,"x_max":0,"o":"m 678 682 b 433 446 596 682 511 576 l 346 640 b 289 683 333 668 313 683 b 90 567 242 683 90 614 b 135 535 90 542 113 539 b 208 443 161 528 188 489 l 278 289 b 139 144 222 192 175 144 b 76 178 113 144 108 178 b -3 85 42 178 -3 146 b 97 -14 -3 31 33 -14 b 322 192 178 -14 242 63 l 346 138 b 515 -14 389 44 429 -14 b 708 115 596 -14 708 54 b 683 143 708 129 703 143 b 629 131 663 143 650 131 b 515 265 585 131 547 196 l 478 347 b 629 524 539 451 597 524 b 692 492 656 524 660 492 b 769 578 726 492 763 522 b 678 682 778 639 742 682 z "},"y":{"ha":740,"x_min":0,"x_max":0,"o":"m 614 685 b 496 574 561 685 496 636 b 553 396 496 513 553 482 b 451 103 553 299 506 194 b 288 622 406 288 357 450 b 218 681 276 653 257 681 b 10 556 154 681 10 607 b 47 525 10 543 21 526 b 128 460 86 521 103 515 b 263 38 185 326 236 168 b 272 -90 275 -19 279 -53 b 179 -179 264 -142 224 -179 b 92 -93 118 -179 110 -139 b 14 -32 76 -54 46 -32 b -82 -151 -35 -32 -82 -74 b 92 -292 -82 -229 -25 -292 b 504 1 267 -292 397 -167 b 713 569 565 97 713 382 b 614 685 713 624 688 685 z "},"":{"ha":740,"x_min":0,"x_max":0,"o":"m 614 685 b 496 574 561 685 496 636 b 553 396 496 513 553 482 b 451 103 553 299 506 194 b 288 622 406 288 357 450 b 218 681 276 653 257 681 b 10 556 154 681 10 607 b 47 525 10 543 21 526 b 128 460 86 521 103 515 b 263 38 185 326 236 168 b 272 -90 275 -19 279 -53 b 179 -179 264 -142 224 -179 b 92 -93 118 -179 110 -139 b 14 -32 76 -54 46 -32 b -82 -151 -35 -32 -82 -74 b 92 -292 -82 -229 -25 -292 b 504 1 267 -292 397 -167 b 713 569 565 97 713 382 b 614 685 713 624 688 685 z "},"ý":{"ha":740,"x_min":0,"x_max":0,"o":"m 317 772 b 578 871 389 746 550 792 b 510 981 597 928 571 981 b 401 924 476 981 439 954 b 297 806 353 882 306 831 b 317 772 292 790 297 779 z m 614 685 b 496 574 561 685 496 636 b 553 396 496 513 553 482 b 451 103 553 299 506 194 b 288 622 406 288 357 450 b 218 681 276 653 257 681 b 10 556 154 681 10 607 b 47 525 10 543 21 526 b 128 460 86 521 103 515 b 263 38 185 326 236 168 b 272 -90 275 -19 279 -53 b 179 -179 264 -142 224 -179 b 92 -93 118 -179 110 -139 b 14 -32 76 -54 46 -32 b -82 -151 -35 -32 -82 -74 b 92 -292 -82 -229 -25 -292 b 504 1 267 -292 397 -167 b 713 569 565 97 713 382 b 614 685 713 624 688 685 z "},"ŷ":{"ha":740,"x_min":0,"x_max":0,"o":"m 265 742 b 447 849 310 740 388 797 b 600 742 494 797 556 740 b 628 764 618 742 626 750 b 574 886 632 786 600 842 b 464 971 533 954 532 971 b 326 881 407 971 385 944 b 243 764 289 838 247 786 b 265 742 242 750 249 742 z m 614 685 b 496 574 561 685 496 636 b 553 396 496 513 553 482 b 451 103 553 299 506 194 b 288 622 406 288 357 450 b 218 681 276 653 257 681 b 10 556 154 681 10 607 b 47 525 10 543 21 526 b 128 460 86 521 103 515 b 263 38 185 326 236 168 b 272 -90 275 -19 279 -53 b 179 -179 264 -142 224 -179 b 92 -93 118 -179 110 -139 b 14 -32 76 -54 46 -32 b -82 -151 -35 -32 -82 -74 b 92 -292 -82 -229 -25 -292 b 504 1 267 -292 397 -167 b 713 569 565 97 713 382 b 614 685 713 624 688 685 z "},"ÿ":{"ha":740,"x_min":0,"x_max":0,"o":"m 285 757 b 399 860 344 757 399 800 b 314 942 399 910 364 942 b 207 831 253 942 207 888 b 285 757 207 786 242 757 z m 528 757 b 639 860 586 757 639 800 b 554 942 639 910 606 942 b 447 831 494 942 447 888 b 528 757 447 786 482 757 z m 614 685 b 496 574 561 685 496 636 b 553 396 496 513 553 482 b 451 103 553 299 506 194 b 288 622 406 288 357 450 b 218 681 276 653 257 681 b 10 556 154 681 10 607 b 47 525 10 543 21 526 b 128 460 86 521 103 515 b 263 38 185 326 236 168 b 272 -90 275 -19 279 -53 b 179 -179 264 -142 224 -179 b 92 -93 118 -179 110 -139 b 14 -32 76 -54 46 -32 b -82 -151 -35 -32 -82 -74 b 92 -292 -82 -229 -25 -292 b 504 1 267 -292 397 -167 b 713 569 565 97 713 382 b 614 685 713 624 688 685 z "},"ỳ":{"ha":740,"x_min":0,"x_max":0,"o":"m 531 772 b 550 806 550 779 556 790 b 447 924 542 831 494 882 b 318 978 401 961 356 992 b 269 871 275 963 251 922 b 531 772 297 792 458 746 z m 614 685 b 496 574 561 685 496 636 b 553 396 496 513 553 482 b 451 103 553 299 506 194 b 288 622 406 288 357 450 b 218 681 276 653 257 681 b 10 556 154 681 10 607 b 47 525 10 543 21 526 b 128 460 86 521 103 515 b 263 38 185 326 236 168 b 272 -90 275 -19 279 -53 b 179 -179 264 -142 224 -179 b 92 -93 118 -179 110 -139 b 14 -32 76 -54 46 -32 b -82 -151 -35 -32 -82 -74 b 92 -292 -82 -229 -25 -292 b 504 1 267 -292 397 -167 b 713 569 565 97 713 382 b 614 685 713 624 688 685 z "},"z":{"ha":714,"x_min":0,"x_max":0,"o":"m 428 -11 b 656 219 613 -11 656 140 b 633 260 656 243 654 260 b 474 178 594 260 583 186 b 265 179 432 174 335 188 l 664 574 b 708 654 688 596 708 631 b 685 681 708 668 706 681 b 550 665 653 681 636 665 b 271 683 468 665 344 683 b 103 475 169 683 113 574 b 124 417 99 433 103 417 b 242 497 157 417 171 497 b 442 492 314 497 356 483 l 58 117 b 6 25 28 86 6 53 b 35 -10 6 7 10 -10 b 165 7 71 -10 100 7 b 428 -11 225 7 349 -11 z "},"ź":{"ha":714,"x_min":0,"x_max":0,"o":"m 294 756 b 556 854 367 729 528 775 b 488 964 575 911 549 964 b 379 907 454 964 417 938 b 275 789 331 865 283 814 b 294 756 269 774 275 763 z m 428 -11 b 656 219 613 -11 656 140 b 633 260 656 243 654 260 b 474 178 594 260 583 186 b 265 179 432 174 335 188 l 664 574 b 708 654 688 596 708 631 b 685 681 708 668 706 681 b 550 665 653 681 636 665 b 271 683 468 665 344 683 b 103 475 169 683 113 574 b 124 417 99 433 103 417 b 242 497 157 417 171 497 b 442 492 314 497 356 483 l 58 117 b 6 25 28 86 6 53 b 35 -10 6 7 10 -10 b 165 7 71 -10 100 7 b 428 -11 225 7 349 -11 z "},"ž":{"ha":714,"x_min":0,"x_max":0,"o":"m 417 781 b 551 865 485 781 492 797 b 639 988 590 910 636 965 b 618 1010 642 1001 636 1010 b 436 903 574 1010 496 954 b 283 1010 389 954 328 1010 b 254 988 267 1010 257 1001 b 306 871 253 965 279 914 b 417 781 344 807 360 781 z m 428 -11 b 656 219 613 -11 656 140 b 633 260 656 243 654 260 b 474 178 594 260 583 186 b 265 179 432 174 335 188 l 664 574 b 708 654 688 596 708 631 b 685 681 708 668 706 681 b 550 665 653 681 636 665 b 271 683 468 665 344 683 b 103 475 169 683 113 574 b 124 417 99 433 103 417 b 242 497 157 417 171 497 b 442 492 314 497 356 483 l 58 117 b 6 25 28 86 6 53 b 35 -10 6 7 10 -10 b 165 7 71 -10 100 7 b 428 -11 225 7 349 -11 z "},"ż":{"ha":714,"x_min":0,"x_max":0,"o":"m 367 724 b 531 868 447 724 529 790 b 431 963 531 922 486 963 b 272 815 351 964 272 888 b 367 724 271 767 306 724 z m 428 -11 b 656 219 613 -11 656 140 b 633 260 656 243 654 260 b 474 178 594 260 583 186 b 265 179 432 174 335 188 l 664 574 b 708 654 688 596 708 631 b 685 681 708 668 706 681 b 550 665 653 681 636 665 b 271 683 468 665 344 683 b 103 475 169 683 113 574 b 124 417 99 433 103 417 b 242 497 157 417 171 497 b 442 492 314 497 356 483 l 58 117 b 6 25 28 86 6 53 b 35 -10 6 7 10 -10 b 165 7 71 -10 100 7 b 428 -11 225 7 349 -11 z "},"ª":{"ha":590,"x_min":0,"x_max":0,"o":"m 593 671 b 554 646 579 671 569 646 b 538 689 540 646 535 657 l 558 953 b 529 986 560 971 551 986 b 447 968 506 986 469 968 b 351 985 426 968 403 985 b 111 711 226 985 111 865 b 257 553 111 615 172 553 b 399 624 308 553 363 576 b 486 553 406 571 442 553 b 608 651 563 553 608 614 b 593 671 608 667 599 671 z m 311 635 b 254 736 272 635 254 671 b 354 928 256 819 292 928 b 417 849 390 928 419 901 l 415 819 b 311 635 410 736 369 635 z "},"º":{"ha":560,"x_min":0,"x_max":0,"o":"m 313 553 b 571 807 458 553 571 657 b 376 986 571 908 499 986 b 114 736 236 986 114 875 b 313 553 114 624 189 553 z m 319 614 b 254 726 275 614 254 661 b 361 926 254 815 292 926 b 424 818 407 926 424 876 b 319 614 424 732 386 614 z "},"А":{"ha":1015,"x_min":0,"x_max":0,"o":"m 175 0 b 249 40 214 0 244 7 b 233 183 257 94 176 78 l 260 231 b 446 268 281 268 281 268 b 624 224 613 268 613 268 l 632 192 b 560 44 660 82 568 103 b 625 0 554 11 575 0 l 879 0 b 963 44 936 0 957 11 b 881 192 971 101 910 78 l 690 932 b 636 972 682 960 665 972 l 464 972 b 411 931 436 972 415 960 b 436 783 403 874 488 878 l 110 183 b -31 40 56 85 -22 94 b 44 0 -35 8 -6 0 z m 461 369 b 358 415 333 369 333 369 l 507 690 l 578 407 b 461 369 588 369 586 369 z "},"Б":{"ha":983,"x_min":0,"x_max":0,"o":"m 435 0 b 908 310 714 0 879 99 b 514 656 938 511 782 656 b 460 654 493 656 476 656 b 435 682 440 653 432 664 l 454 815 b 567 872 458 853 481 872 l 664 872 b 814 740 747 872 779 826 b 861 690 826 708 842 690 b 901 760 889 690 897 715 b 903 910 908 817 907 868 b 783 972 897 953 878 972 l 232 972 b 143 928 172 972 149 961 b 215 783 135 863 214 879 b 210 714 215 764 214 747 l 144 258 b 132 189 140 225 138 208 b 21 44 104 94 29 110 b 96 0 15 11 36 0 z m 436 96 b 360 143 383 96 354 107 l 413 525 b 456 563 417 554 426 564 b 674 290 588 563 697 460 b 436 96 657 171 571 96 z "},"В":{"ha":981,"x_min":0,"x_max":0,"o":"m 457 0 b 925 322 731 0 899 142 b 733 583 942 449 878 550 b 882 763 819 617 872 681 b 544 972 903 924 749 972 l 232 972 b 143 928 172 972 149 961 b 215 783 135 863 214 879 b 210 714 215 764 214 747 l 144 258 b 132 189 140 225 138 208 b 21 44 104 94 29 110 b 96 0 15 11 36 0 z m 494 621 b 431 653 469 621 425 618 l 457 833 b 508 872 460 863 483 872 b 653 731 611 872 665 806 b 494 621 643 657 588 621 z m 467 100 b 367 197 369 100 357 129 l 407 475 b 460 515 411 506 422 515 b 669 278 618 515 688 404 b 467 100 651 157 588 100 z "},"Г":{"ha":864,"x_min":0,"x_max":0,"o":"m 350 0 b 438 44 413 0 433 13 b 369 189 447 117 369 86 b 374 244 369 208 371 226 l 454 815 b 567 872 460 853 481 872 l 635 872 b 786 740 719 872 750 826 b 833 690 799 708 814 690 b 874 760 861 690 869 715 b 874 910 879 817 878 868 b 756 972 869 953 850 972 l 232 972 b 143 928 172 972 149 961 b 215 783 135 863 214 879 b 210 714 215 764 214 747 l 143 244 b 132 189 142 226 138 208 b 21 44 104 94 29 110 b 96 0 15 13 36 0 z "},"Ґ":{"ha":819,"x_min":0,"x_max":0,"o":"m 301 0 b 389 44 364 0 385 13 b 321 189 399 117 321 86 b 325 244 321 208 322 226 l 406 815 b 518 872 410 853 432 872 l 719 872 b 856 935 814 872 838 892 b 897 1085 872 976 888 1028 b 876 1154 906 1128 904 1154 b 815 1104 857 1154 838 1136 b 628 972 756 1018 711 972 l 183 972 b 94 928 124 972 100 961 b 167 783 86 863 165 879 b 161 714 167 764 165 747 l 94 244 b 83 189 92 226 89 208 b -28 44 56 94 -19 110 b 47 0 -33 13 -12 0 z "},"Д":{"ha":1093,"x_min":0,"x_max":0,"o":"m -51 -208 b 21 -158 -18 -208 0 -190 b 207 0 83 -60 128 0 l 743 0 b 885 -158 824 0 849 -60 b 943 -207 897 -190 910 -207 b 990 -139 974 -207 986 -182 b 993 38 999 -60 999 -3 b 901 101 988 83 967 101 b 861 163 858 101 854 107 l 939 714 b 953 783 943 747 947 764 b 1064 928 981 879 1054 863 b 989 972 1069 961 1049 972 l 378 972 b 290 926 315 972 296 960 b 368 790 282 861 382 878 b 158 147 346 625 281 365 b 82 100 140 114 115 100 b -32 38 13 100 -14 83 b -79 -139 -49 -3 -65 -60 b -51 -208 -86 -182 -82 -208 z m 264 100 b 488 814 383 354 424 511 b 621 872 497 865 554 872 b 724 815 710 872 728 853 l 624 101 z "},"Е":{"ha":904,"x_min":0,"x_max":0,"o":"m 668 0 b 796 63 750 0 776 18 b 843 242 813 103 828 160 b 819 314 850 285 851 306 b 744 261 796 319 774 308 b 556 101 681 160 640 101 l 471 100 b 363 164 372 100 356 119 l 401 443 b 501 511 408 499 439 511 b 686 372 622 510 610 357 b 722 440 715 379 728 392 l 713 618 b 674 658 710 640 704 658 b 515 610 622 658 617 610 b 435 678 454 610 426 624 l 453 808 b 568 872 460 853 482 872 l 626 872 b 813 740 717 872 768 828 b 878 703 833 704 851 693 b 913 779 907 711 914 738 b 894 921 910 836 903 883 b 781 972 886 964 863 972 l 232 972 b 144 928 174 972 149 961 b 210 714 133 844 236 906 l 144 258 b 19 44 118 67 31 128 b 94 0 15 11 35 0 z "},"Ё":{"ha":904,"x_min":0,"x_max":0,"o":"m 447 1057 b 561 1160 508 1057 561 1099 b 478 1242 561 1210 528 1242 b 371 1131 415 1242 371 1188 b 447 1057 371 1086 406 1057 z m 690 1057 b 803 1160 750 1057 803 1099 b 718 1242 803 1210 768 1242 b 611 1131 658 1242 611 1188 b 690 1057 611 1086 646 1057 z m 668 0 b 796 63 750 0 776 18 b 843 242 813 103 828 160 b 819 314 850 285 851 306 b 744 261 796 319 774 308 b 556 101 681 160 640 101 l 471 100 b 363 164 372 100 356 119 l 401 443 b 501 511 408 499 439 511 b 686 372 622 510 610 357 b 722 440 715 379 728 392 l 713 618 b 674 658 710 640 704 658 b 515 610 622 658 617 610 b 435 678 454 610 426 624 l 453 808 b 568 872 460 853 482 872 l 626 872 b 813 740 717 872 768 828 b 878 703 833 704 851 693 b 913 779 907 711 914 738 b 894 921 910 836 903 883 b 781 972 886 964 863 972 l 232 972 b 144 928 174 972 149 961 b 210 714 133 844 236 906 l 144 258 b 19 44 118 67 31 128 b 94 0 15 11 35 0 z "},"Ж":{"ha":1564,"x_min":0,"x_max":0,"o":"m 314 0 b 383 35 356 0 381 10 b 376 175 390 81 322 85 l 560 481 l 664 340 l 639 167 b 553 36 628 86 558 82 b 615 1 549 11 571 1 l 850 1 b 919 35 892 1 917 8 b 869 167 926 83 858 86 l 893 335 l 1042 482 l 1140 175 b 1093 35 1171 85 1100 81 b 1154 0 1090 10 1113 0 l 1422 0 b 1503 38 1460 0 1499 7 b 1394 190 1508 82 1435 75 l 1225 663 l 1389 824 b 1558 938 1453 886 1551 892 b 1488 972 1561 963 1539 972 l 1290 972 b 1224 939 1251 972 1226 965 b 1236 824 1215 890 1299 886 l 917 499 l 958 804 b 1046 935 971 885 1039 889 b 983 969 1050 961 1028 969 l 747 969 b 678 936 707 969 682 963 b 728 804 671 888 740 885 l 686 504 l 461 824 b 507 939 418 886 500 890 b 449 972 510 965 488 972 l 253 972 b 172 938 200 972 175 963 b 308 824 167 892 264 886 l 428 661 l 128 190 b -24 38 56 75 -17 82 b 47 0 -26 7 8 0 z "},"З":{"ha":804,"x_min":0,"x_max":0,"o":"m 276 -14 b 746 275 528 -19 719 82 b 532 536 765 403 676 501 b 764 765 654 574 751 663 b 490 986 781 900 679 986 b 317 964 410 986 346 964 b 246 986 281 964 276 986 b 178 914 221 986 199 974 b 132 742 160 860 142 799 b 153 674 125 699 125 674 b 232 738 181 674 197 692 b 442 886 285 806 351 886 b 528 781 503 886 536 839 b 306 582 515 688 447 596 b 292 483 239 576 233 485 b 507 258 465 479 525 389 b 331 86 492 158 426 86 b 125 250 242 86 163 143 b 75 310 111 290 96 307 b 33 261 49 313 36 290 b 36 118 26 176 32 147 b 144 3 46 44 81 21 b 276 -14 190 -8 222 -12 z "},"И":{"ha":1174,"x_min":0,"x_max":0,"o":"m 349 0 b 438 44 411 0 432 11 b 371 238 447 125 349 76 l 829 633 l 775 244 b 651 44 754 94 663 124 b 726 0 647 13 668 0 l 982 0 b 1069 44 1043 0 1064 13 b 1006 244 1081 131 985 69 l 1072 728 b 1196 928 1093 879 1185 850 b 1121 972 1200 961 1179 972 l 865 972 b 778 928 804 972 781 961 b 846 763 774 864 861 886 l 390 369 l 440 728 b 563 928 460 875 553 851 b 488 972 568 961 547 972 l 233 972 b 146 928 171 972 150 961 b 210 728 133 854 232 892 l 143 244 b 19 44 121 93 29 124 b 94 0 14 11 35 0 z "},"Й":{"ha":1174,"x_min":0,"x_max":0,"o":"m 681 1042 b 950 1197 801 1042 936 1094 b 894 1260 956 1233 929 1260 b 690 1117 810 1260 779 1117 b 525 1260 600 1117 608 1260 b 451 1197 492 1260 457 1236 b 681 1042 436 1097 540 1042 z m 349 0 b 438 44 411 0 432 11 b 371 238 447 125 349 76 l 829 633 l 775 244 b 651 44 754 94 663 124 b 726 0 647 13 668 0 l 982 0 b 1069 44 1043 0 1064 13 b 1006 244 1081 131 985 69 l 1072 728 b 1196 928 1093 879 1185 850 b 1121 972 1200 961 1179 972 l 865 972 b 778 928 804 972 781 961 b 846 763 774 864 861 886 l 390 369 l 440 728 b 563 928 460 875 553 851 b 488 972 568 961 547 972 l 233 972 b 146 928 171 972 150 961 b 210 728 133 854 232 892 l 143 244 b 19 44 121 93 29 124 b 94 0 14 11 35 0 z "},"К":{"ha":1076,"x_min":0,"x_max":0,"o":"m 803 972 b 733 928 760 972 739 961 b 740 794 726 875 832 871 l 411 525 l 440 728 b 564 928 461 878 553 850 b 488 972 568 961 547 972 l 233 972 b 146 928 171 972 150 961 b 211 728 133 843 233 897 l 142 244 b 19 44 121 94 29 122 b 94 0 14 13 35 0 l 349 0 b 438 44 411 0 432 13 b 372 244 449 129 349 75 l 392 385 l 600 556 l 711 197 b 650 44 739 108 657 99 b 725 0 644 11 665 0 l 968 0 b 1053 44 1028 0 1049 11 b 951 213 1063 114 993 88 l 792 713 l 892 794 b 1074 928 1013 892 1065 863 b 997 972 1079 961 1053 972 z "},"Л":{"ha":1075,"x_min":0,"x_max":0,"o":"m 92 -14 b 278 67 171 -14 229 11 b 517 814 399 210 467 569 b 651 872 528 865 583 872 b 760 815 744 872 764 853 l 679 244 b 667 189 676 226 672 208 b 556 44 640 94 565 110 b 631 0 551 13 572 0 l 886 0 b 974 44 947 0 968 13 b 906 189 983 117 904 86 b 910 244 906 208 907 226 l 988 807 b 1078 938 999 888 1071 892 b 1011 972 1081 963 1058 972 l 408 972 b 335 938 361 972 338 963 b 400 790 326 889 414 886 b 169 131 371 575 253 131 b 61 214 118 131 139 214 b -39 114 18 214 -29 174 b 92 -14 -51 15 36 -14 z "},"М":{"ha":1315,"x_min":0,"x_max":0,"o":"m 217 0 b 288 39 261 0 283 7 b 236 176 294 89 221 89 l 324 685 l 493 82 b 549 56 500 61 515 49 b 611 100 581 63 596 74 l 972 694 l 914 221 b 808 44 899 94 819 122 b 883 0 803 11 824 0 l 1128 0 b 1214 44 1189 0 1208 11 b 1138 221 1226 129 1125 88 l 1197 779 b 1300 928 1208 881 1292 863 b 1233 972 1306 961 1286 972 l 1057 972 b 992 932 1028 972 1008 960 l 653 378 l 492 933 b 436 972 483 960 465 972 l 250 972 b 171 928 197 972 175 961 b 233 779 161 863 253 879 l 121 176 b 17 40 104 89 24 88 b 79 0 13 10 29 0 z "},"Н":{"ha":1183,"x_min":0,"x_max":0,"o":"m 349 0 b 438 44 411 0 432 11 b 368 189 446 117 368 85 b 372 244 368 208 369 225 l 394 397 b 608 465 403 465 403 465 b 806 397 815 465 815 465 l 785 244 b 772 189 782 225 778 208 b 661 44 746 94 671 110 b 736 0 657 11 678 0 l 992 0 b 1079 44 1053 0 1074 11 b 1011 189 1089 117 1010 85 b 1015 244 1011 208 1013 225 l 1082 728 b 1094 783 1085 747 1089 764 b 1206 928 1121 879 1196 863 b 1131 972 1210 961 1189 972 l 875 972 b 788 928 814 972 793 961 b 856 783 778 856 857 888 b 851 728 856 764 854 747 l 839 635 b 624 567 829 567 829 567 b 426 635 417 567 417 567 l 440 728 b 451 783 442 747 446 764 b 563 928 479 879 554 863 b 488 972 568 961 547 972 l 233 972 b 146 928 171 972 150 961 b 214 783 136 856 214 888 b 210 728 214 764 213 747 l 143 244 b 131 189 140 225 136 208 b 19 44 103 94 28 110 b 94 0 14 11 35 0 z "},"О":{"ha":1076,"x_min":0,"x_max":0,"o":"m 504 -10 b 1061 556 819 -11 1061 242 b 633 983 1061 797 903 983 b 67 415 315 983 67 721 b 504 -10 67 164 256 -8 z m 547 114 b 310 428 400 114 310 244 b 594 871 310 638 415 871 b 813 547 743 871 813 731 b 547 114 813 343 728 114 z "},"П":{"ha":1131,"x_min":0,"x_max":0,"o":"m 350 1 b 438 46 413 1 433 13 b 369 190 447 118 369 86 b 374 246 369 210 371 226 l 453 808 b 643 871 460 853 482 871 b 811 808 792 871 818 853 l 732 246 b 719 190 729 226 725 210 b 608 46 693 96 618 111 b 683 1 604 13 625 1 l 939 1 b 1026 46 1001 1 1022 13 b 958 190 1036 118 958 86 b 963 246 958 210 960 226 l 1028 714 b 1042 783 1032 747 1036 764 b 1153 928 1068 879 1143 863 b 1078 972 1158 961 1138 972 l 232 972 b 143 928 172 972 149 961 b 215 783 135 863 214 879 b 210 714 215 764 214 747 l 143 246 b 132 190 140 226 138 210 b 21 46 104 96 29 111 b 96 1 15 13 36 1 z "},"Р":{"ha":958,"x_min":0,"x_max":0,"o":"m 350 0 b 438 44 413 0 433 13 b 371 194 447 117 367 86 b 376 261 371 217 372 239 b 408 289 379 286 389 289 l 476 289 b 949 600 754 289 918 389 b 532 972 981 826 825 972 l 232 972 b 143 928 172 972 149 961 b 210 714 132 853 235 903 l 143 246 b 21 44 121 85 31 122 b 96 0 15 13 36 0 z m 476 385 b 400 432 424 385 394 397 l 457 842 b 515 879 461 871 471 879 b 714 581 636 879 742 776 b 476 385 697 460 611 385 z "},"С":{"ha":983,"x_min":0,"x_max":0,"o":"m 499 -14 b 914 207 672 -14 839 79 b 867 256 943 253 908 294 b 594 126 776 174 692 126 b 322 569 382 126 290 338 b 631 885 347 753 467 885 b 856 710 753 885 804 801 b 926 643 882 663 894 643 b 972 713 963 643 971 669 b 965 913 972 797 969 858 b 915 985 961 972 940 985 b 839 961 885 985 875 961 b 664 986 808 961 753 986 b 74 497 371 986 114 781 b 499 -14 32 197 218 -14 z "},"Т":{"ha":929,"x_min":0,"x_max":0,"o":"m 544 0 b 633 44 607 0 628 13 b 564 189 642 117 564 86 b 568 244 564 208 565 226 l 647 807 b 711 865 653 844 674 865 b 853 713 794 865 817 813 b 899 663 865 681 876 663 b 946 731 929 663 940 689 b 949 910 954 813 954 869 b 839 972 943 954 922 972 l 269 972 b 143 910 188 972 161 954 b 96 731 126 869 110 813 b 124 663 89 688 93 663 b 183 713 146 663 164 681 b 369 864 249 813 286 864 b 417 807 407 864 422 844 l 339 244 b 326 189 336 226 332 208 b 215 44 299 94 224 110 b 290 0 210 13 231 0 z "},"У":{"ha":971,"x_min":0,"x_max":0,"o":"m 225 -14 b 564 294 340 -14 428 63 l 857 789 b 1001 931 915 886 993 876 b 926 971 1004 963 975 971 l 796 971 b 722 931 757 971 725 964 b 733 789 714 876 794 893 l 561 489 l 426 814 b 479 936 399 885 474 890 b 417 971 483 961 461 971 l 149 971 b 82 938 108 971 83 964 b 165 814 74 889 138 885 l 394 268 b 392 231 400 254 400 244 b 289 135 351 167 317 135 b 182 210 238 135 260 210 b 85 118 139 210 93 168 b 225 -14 71 22 158 -14 z "},"Ф":{"ha":1219,"x_min":0,"x_max":0,"o":"m 686 0 b 774 44 749 0 769 11 b 697 163 782 101 689 88 b 714 178 699 174 703 179 b 789 176 751 175 772 176 b 1188 490 988 176 1161 304 b 893 789 1213 668 1089 789 b 796 785 867 789 842 788 b 786 800 785 783 783 789 b 901 928 810 885 892 865 b 825 972 906 961 885 972 l 569 972 b 483 928 508 972 488 961 b 560 797 474 865 561 885 b 544 782 558 786 556 781 b 450 789 504 788 474 789 b 72 490 260 789 97 671 b 382 176 46 307 181 176 b 457 179 397 176 421 176 b 467 163 467 181 469 175 b 357 44 456 89 365 103 b 431 0 351 11 372 0 z m 436 264 b 286 478 331 264 268 349 b 499 703 304 604 379 703 b 543 697 514 703 531 701 l 483 269 b 436 264 469 265 447 264 z m 758 264 b 713 267 746 264 731 264 l 774 699 b 821 703 786 701 806 703 b 967 478 940 703 983 603 b 758 264 950 351 863 264 z "},"Х":{"ha":1064,"x_min":0,"x_max":0,"o":"m 185 1 b 260 42 224 1 256 8 b 269 176 268 96 183 75 l 450 388 l 578 176 b 547 43 635 81 556 97 b 610 1 543 11 567 1 l 900 1 b 975 42 942 1 971 8 b 861 176 982 97 919 78 l 649 526 l 885 796 b 1058 931 965 889 1050 876 b 985 971 1063 963 1033 971 l 836 971 b 761 931 797 971 765 964 b 750 796 754 876 838 897 l 594 617 l 486 796 b 518 929 431 892 510 875 b 456 971 521 961 499 971 l 164 971 b 90 931 124 971 94 964 b 204 796 82 875 146 894 l 396 478 l 136 176 b -37 42 57 83 -29 96 b 38 1 -42 10 -12 1 z "},"Ч":{"ha":1069,"x_min":0,"x_max":0,"o":"m 878 0 b 965 44 939 0 960 13 b 897 189 975 117 896 86 b 901 244 897 208 899 226 l 968 728 b 981 783 971 747 975 764 b 1092 928 1007 878 1082 863 b 1017 972 1096 961 1075 972 l 761 972 b 674 928 700 972 679 961 b 742 783 664 856 743 888 b 738 728 742 764 740 747 l 701 465 b 493 442 631 454 544 442 b 367 701 344 442 343 556 l 369 725 b 383 781 372 744 378 761 b 493 925 410 876 485 860 b 419 969 499 958 478 969 l 164 969 b 76 925 101 969 81 958 b 144 781 65 853 144 885 b 140 725 144 761 143 744 l 132 672 b 422 339 108 508 135 339 b 688 367 472 339 576 349 l 671 244 b 658 189 668 226 664 208 b 547 44 632 94 557 110 b 622 0 543 13 564 0 z "},"Ц":{"ha":1190,"x_min":0,"x_max":0,"o":"m 1040 -207 b 1088 -139 1071 -207 1083 -182 b 1090 38 1096 -60 1096 -3 b 997 101 1085 83 1065 101 b 949 163 960 101 944 122 l 1028 728 b 1040 783 1031 747 1035 764 b 1151 928 1068 878 1142 863 b 1076 972 1157 961 1136 972 l 821 972 b 733 928 760 972 739 961 b 801 783 725 856 803 888 b 799 728 801 764 801 747 l 719 164 b 531 101 713 119 690 101 b 361 164 381 101 354 119 l 440 728 b 451 783 443 747 446 764 b 563 928 479 878 554 863 b 488 972 568 961 547 972 l 233 972 b 146 928 171 972 150 961 b 214 783 136 856 214 888 b 210 728 214 764 213 747 l 144 258 b 131 189 140 225 136 208 b 19 44 103 94 28 110 b 94 0 14 11 35 0 l 842 0 b 982 -158 921 0 946 -60 b 1040 -207 994 -190 1007 -207 z "},"Ш":{"ha":1553,"x_min":0,"x_max":0,"o":"m 1363 0 b 1450 44 1421 0 1444 11 b 1379 189 1460 110 1379 94 b 1385 258 1379 208 1381 225 l 1450 728 b 1463 783 1453 747 1457 764 b 1574 928 1489 878 1564 863 b 1499 972 1578 961 1557 972 l 1243 972 b 1156 928 1182 972 1161 961 b 1224 783 1146 856 1225 888 b 1219 728 1224 764 1222 747 l 1142 164 b 993 101 1135 119 1113 101 b 867 164 886 101 860 119 l 944 728 b 957 783 947 747 951 764 b 1068 928 985 878 1058 863 b 993 972 1074 961 1053 972 l 738 972 b 650 928 676 972 656 961 b 718 783 642 856 719 888 b 715 728 718 764 718 747 l 636 164 b 489 101 629 119 607 101 b 361 164 381 101 354 119 l 440 728 b 451 783 443 747 446 764 b 563 928 479 878 554 863 b 488 972 568 961 547 972 l 233 972 b 146 928 171 972 150 961 b 214 783 136 856 214 888 b 210 728 214 764 213 747 l 144 258 b 131 189 140 225 136 208 b 19 44 103 94 28 110 b 94 0 14 11 35 0 z "},"Щ":{"ha":1613,"x_min":0,"x_max":0,"o":"m 1463 -207 b 1508 -139 1493 -207 1506 -182 b 1513 38 1518 -60 1518 -3 b 1419 101 1507 83 1486 101 b 1371 163 1382 101 1365 122 l 1450 728 b 1463 783 1453 747 1457 764 b 1574 928 1489 878 1564 863 b 1499 972 1578 961 1557 972 l 1243 972 b 1156 928 1182 972 1161 961 b 1224 783 1146 856 1225 888 b 1219 728 1224 764 1222 747 l 1142 164 b 993 101 1135 119 1113 101 b 867 164 886 101 860 119 l 944 728 b 957 783 947 747 951 764 b 1068 928 985 878 1058 863 b 993 972 1074 961 1053 972 l 738 972 b 650 928 676 972 656 961 b 718 783 642 856 719 888 b 715 728 718 764 718 747 l 636 164 b 489 101 629 119 607 101 b 361 164 381 101 354 119 l 440 728 b 451 783 443 747 446 764 b 563 928 479 878 554 863 b 488 972 568 961 547 972 l 233 972 b 146 928 171 972 150 961 b 214 783 136 856 214 888 b 210 728 214 764 213 747 l 144 258 b 131 189 140 225 136 208 b 19 44 103 94 28 110 b 94 0 14 11 35 0 l 1261 0 b 1403 -158 1342 0 1367 -60 b 1463 -207 1415 -190 1428 -207 z "},"Ь":{"ha":932,"x_min":0,"x_max":0,"o":"m 435 0 b 907 310 713 0 878 99 b 513 656 936 511 781 656 b 458 654 493 656 475 656 b 433 682 439 653 431 664 l 440 728 b 451 783 443 747 446 764 b 563 928 479 878 554 863 b 488 972 568 961 547 972 l 233 972 b 146 928 171 972 150 961 b 214 783 136 856 214 888 b 210 728 214 764 213 747 l 144 258 b 131 189 140 225 136 208 b 19 44 103 94 28 110 b 94 0 14 11 35 0 z m 435 96 b 358 143 382 96 353 107 l 411 525 b 454 563 415 554 425 564 b 672 290 588 563 696 460 b 435 96 656 171 569 96 z "},"Ы":{"ha":1396,"x_min":0,"x_max":0,"o":"m 435 0 b 907 310 713 0 878 99 b 513 656 936 511 781 656 b 458 654 493 656 475 656 b 433 682 439 653 431 664 l 440 728 b 451 783 443 747 446 764 b 563 928 479 878 554 863 b 488 972 568 961 547 972 l 233 972 b 146 928 171 972 150 961 b 214 783 136 856 214 888 b 210 728 214 764 213 747 l 144 258 b 131 189 140 225 136 208 b 19 44 103 94 28 110 b 94 0 14 11 35 0 z m 1204 0 b 1292 44 1267 0 1288 13 b 1224 189 1301 117 1224 86 b 1228 244 1224 208 1225 226 l 1294 728 b 1307 783 1297 747 1301 764 b 1418 928 1333 878 1408 863 b 1343 972 1424 961 1403 972 l 1088 972 b 1000 928 1026 972 1006 961 b 1068 783 992 856 1069 888 b 1064 728 1068 764 1067 747 l 997 244 b 985 189 994 226 990 208 b 874 44 958 94 883 110 b 949 0 869 13 890 0 z m 435 96 b 358 143 382 96 353 107 l 411 525 b 454 563 415 554 425 564 b 672 290 588 563 696 460 b 435 96 656 171 569 96 z "},"Ъ":{"ha":1042,"x_min":0,"x_max":0,"o":"m 544 0 b 1017 310 822 0 988 99 b 622 656 1046 511 890 656 b 568 654 603 656 585 656 b 544 682 550 653 542 664 l 549 714 b 563 783 553 747 557 764 b 674 928 589 879 664 863 b 599 972 678 961 657 972 l 221 972 b 83 910 124 972 99 949 b 35 726 67 869 49 808 b 63 658 26 683 32 658 b 121 707 83 658 101 675 b 283 872 185 808 225 872 b 329 801 317 872 338 856 l 254 258 b 240 190 250 226 246 208 b 129 44 214 94 139 111 b 204 0 124 13 144 0 z m 544 96 b 468 143 492 96 463 107 l 521 525 b 564 563 525 554 536 564 b 782 290 697 563 806 460 b 544 96 765 171 679 96 z "},"Є":{"ha":975,"x_min":0,"x_max":0,"o":"m 479 -14 b 900 194 679 -14 828 72 b 863 254 932 247 908 286 b 592 157 775 194 699 157 b 318 457 426 157 326 281 b 469 406 368 425 419 406 b 660 483 550 406 590 483 b 794 432 721 483 756 432 b 839 469 825 432 838 454 b 644 618 849 529 729 618 b 425 535 561 618 510 535 b 322 568 400 535 371 540 b 629 885 349 754 465 885 b 856 711 751 885 814 801 b 918 644 879 663 890 644 b 961 713 949 644 957 669 b 963 913 969 797 967 858 b 913 985 958 972 938 985 b 836 961 882 985 872 961 b 661 986 806 961 750 986 b 74 496 344 986 114 779 b 479 -14 32 196 213 -14 z "},"Э":{"ha":969,"x_min":0,"x_max":0,"o":"m 346 -12 b 953 504 657 -14 907 186 b 499 986 989 768 832 986 b 310 961 404 986 339 961 b 238 985 272 961 268 985 b 168 913 213 985 189 972 b 115 713 150 858 128 797 b 139 644 108 669 108 644 b 217 711 167 644 181 663 b 493 888 285 801 372 888 b 706 565 618 888 711 782 b 599 535 653 540 622 535 b 404 618 514 535 488 618 b 165 469 319 618 175 529 b 203 432 164 454 171 432 b 351 483 240 432 290 483 b 519 406 421 483 439 406 b 697 464 574 406 633 428 b 394 88 676 321 593 88 b 154 247 271 88 200 163 b 92 319 128 297 113 317 b 47 271 65 322 50 300 b 50 128 40 186 46 157 b 158 13 60 54 94 31 b 346 -12 204 1 275 -12 z "},"І":{"ha":535,"x_min":0,"x_max":0,"o":"m 349 0 b 438 44 411 0 432 13 b 368 189 446 117 368 86 b 372 244 368 208 369 226 l 440 728 b 451 783 443 747 446 764 b 563 928 479 878 554 863 b 488 972 568 961 547 972 l 233 972 b 146 928 171 972 150 961 b 214 783 136 856 214 888 b 210 728 214 764 213 747 l 143 244 b 131 189 140 226 136 208 b 19 44 103 94 28 110 b 94 0 14 13 35 0 z "},"Ї":{"ha":488,"x_min":0,"x_max":0,"o":"m 235 1057 b 363 1160 294 1057 354 1099 b 290 1242 371 1210 340 1242 b 167 1131 229 1242 175 1188 b 235 1057 161 1086 192 1057 z m 478 1057 b 603 1160 536 1057 594 1099 b 531 1242 611 1210 582 1242 b 408 1131 471 1242 415 1188 b 478 1057 401 1086 432 1057 z m 301 0 b 389 44 364 0 385 13 b 321 189 399 117 321 86 b 325 244 321 208 322 226 l 392 728 b 404 783 394 747 399 764 b 515 928 432 878 507 863 b 440 972 521 961 500 972 l 186 972 b 97 928 124 972 103 961 b 167 783 89 856 167 888 b 163 728 167 764 165 747 l 94 244 b 83 189 92 226 89 208 b -28 44 56 94 -19 110 b 47 0 -33 13 -12 0 z "},"Ю":{"ha":1543,"x_min":0,"x_max":0,"o":"m 1100 983 b 547 542 826 983 604 790 l 414 542 l 440 728 b 564 928 461 878 553 850 b 488 972 568 961 547 972 l 233 972 b 146 928 171 972 150 961 b 211 728 133 843 233 897 l 142 244 b 19 44 121 94 29 122 b 94 0 14 13 35 0 l 349 0 b 438 44 411 0 432 13 b 372 244 449 129 349 75 l 400 440 l 533 440 l 533 415 b 971 -10 533 164 722 -8 b 1528 556 1286 -11 1528 242 b 1100 983 1528 797 1369 983 z m 1013 114 b 776 428 867 114 776 244 b 1061 871 776 638 882 871 b 1279 547 1210 871 1279 731 b 1013 114 1279 343 1194 114 z "},"Я":{"ha":990,"x_min":0,"x_max":0,"o":"m 292 0 b 364 44 336 0 360 11 b 358 197 371 99 303 113 l 435 311 b 504 308 457 310 479 308 l 572 308 b 596 281 592 308 599 304 l 590 244 b 579 189 588 226 585 208 b 471 44 550 86 479 117 b 546 0 465 13 483 0 l 800 0 b 888 44 860 0 883 13 b 817 189 897 110 817 94 b 821 244 817 208 818 226 l 886 714 b 900 783 890 747 894 764 b 1011 928 928 879 1003 863 b 936 972 1017 961 996 972 l 639 972 b 132 621 344 972 163 828 b 246 367 118 511 153 421 l 125 190 b -14 44 57 90 -4 113 b 58 0 -19 11 -1 0 z m 529 404 b 369 657 410 404 350 519 b 597 875 389 799 472 875 b 649 869 614 875 632 874 b 672 832 669 867 676 861 l 619 451 b 529 404 614 415 582 404 z "},"а":{"ha":896,"x_min":0,"x_max":0,"o":"m 818 175 b 754 136 796 175 781 136 b 728 204 733 136 724 153 l 763 626 b 715 681 765 656 751 681 b 585 651 679 681 619 651 b 431 678 551 651 513 678 b 46 239 232 678 46 486 b 279 -14 46 88 144 -14 b 507 101 361 -14 447 25 b 647 -14 518 17 575 -14 b 842 144 769 -14 842 83 b 818 175 842 168 826 175 z m 365 119 b 276 281 304 119 275 176 b 436 588 278 413 336 588 b 536 460 493 588 540 544 l 533 414 b 365 119 524 279 458 119 z "},"б":{"ha":833,"x_min":0,"x_max":0,"o":"m 826 1040 b 761 1008 804 1039 797 1029 b 593 972 718 982 671 978 b 360 919 519 967 440 961 b 68 433 199 840 100 663 b 378 -14 24 111 182 -14 b 785 365 569 -14 758 150 b 540 683 810 558 714 683 b 254 515 415 683 314 611 b 429 772 243 693 317 760 b 707 814 547 786 617 772 b 861 993 790 853 853 919 b 826 1040 868 1032 844 1043 z m 286 283 b 471 574 306 465 389 574 b 567 433 546 574 567 488 b 383 83 567 242 481 82 b 286 283 314 83 274 153 z "},"в":{"ha":781,"x_min":0,"x_max":0,"o":"m 372 -14 b 711 222 568 -12 711 89 b 576 363 711 285 674 343 b 729 536 663 386 729 451 b 481 681 729 640 621 681 b 50 276 251 681 50 486 b 372 -14 50 88 193 -15 z m 378 76 b 267 254 294 76 267 160 b 451 592 267 400 333 592 b 521 521 500 592 521 558 b 388 389 521 450 472 400 b 338 342 356 385 339 363 b 375 308 338 325 349 310 b 479 208 440 303 479 264 b 378 76 479 135 438 76 z "},"г":{"ha":633,"x_min":0,"x_max":0,"o":"m 239 -14 b 561 158 410 -14 525 82 b 522 201 583 201 558 229 b 325 132 472 167 406 132 b 254 190 288 132 254 146 b 376 315 254 242 311 276 b 574 542 467 369 574 429 b 367 679 574 624 499 679 b 76 532 231 679 117 614 b 129 490 54 488 85 464 b 299 550 188 525 243 550 b 364 501 331 550 364 543 b 265 388 364 457 322 422 b 31 139 167 325 31 263 b 239 -14 31 72 68 -14 z "},"ґ":{"ha":633,"x_min":0,"x_max":0,"o":"m 279 775 b 540 874 351 749 513 794 b 472 983 560 931 533 983 b 364 926 439 983 401 957 b 260 808 315 885 268 833 b 279 775 254 793 260 782 z m 239 -14 b 561 158 410 -14 525 82 b 522 201 583 201 558 229 b 325 132 472 167 406 132 b 254 190 288 132 254 146 b 376 315 254 242 311 276 b 574 542 467 369 574 429 b 367 679 574 624 499 679 b 76 532 231 679 117 614 b 129 490 54 488 85 464 b 299 550 188 525 243 550 b 364 501 331 550 364 543 b 265 388 364 457 322 422 b 31 139 167 325 31 263 b 239 -14 31 72 68 -14 z "},"д":{"ha":808,"x_min":0,"x_max":0,"o":"m 774 526 b 363 983 769 843 549 976 b 258 942 272 985 258 961 b 293 913 258 928 274 918 b 550 628 418 874 519 793 b 417 675 518 660 472 674 b 53 289 211 681 53 508 b 351 -14 53 90 181 -14 b 774 526 603 -14 776 211 z m 369 85 b 274 253 304 85 274 157 b 444 575 274 400 333 575 b 539 422 511 575 539 510 b 369 85 539 282 482 85 z "},"е":{"ha":757,"x_min":0,"x_max":0,"o":"m 633 206 b 438 135 581 167 519 135 b 282 233 368 135 310 172 b 704 521 451 254 704 329 b 489 681 704 626 604 681 b 49 268 226 681 49 478 b 346 -14 49 89 161 -14 b 674 165 518 -14 636 85 b 633 206 694 210 668 233 z m 435 589 b 529 496 494 589 529 546 b 290 328 529 375 356 338 b 256 360 267 325 256 335 b 435 589 256 471 321 589 z "},"ё":{"ha":757,"x_min":0,"x_max":0,"o":"m 338 747 b 451 850 397 747 451 790 b 367 932 451 900 417 932 b 260 821 306 932 260 878 b 338 747 260 776 294 747 z m 581 747 b 692 850 639 747 692 790 b 607 932 692 900 658 932 b 500 821 547 932 500 878 b 581 747 500 776 535 747 z m 633 206 b 438 135 581 167 519 135 b 282 233 368 135 310 172 b 704 521 451 254 704 329 b 489 681 704 626 604 681 b 49 268 226 681 49 478 b 346 -14 49 89 161 -14 b 674 165 518 -14 636 85 b 633 206 694 210 668 233 z m 435 589 b 529 496 494 589 529 546 b 290 328 529 375 356 338 b 256 360 267 325 256 335 b 435 589 256 471 321 589 z "},"ж":{"ha":1174,"x_min":0,"x_max":0,"o":"m 103 -11 b 333 175 228 -11 272 51 b 449 301 365 240 389 301 b 467 265 467 301 471 299 l 457 196 b 447 149 454 179 451 164 b 365 40 425 79 374 89 b 428 0 361 10 385 0 l 653 0 b 721 39 692 0 717 7 b 674 149 729 92 676 79 b 675 196 672 164 674 179 l 683 264 b 713 301 689 299 694 301 b 792 175 772 301 779 240 b 971 -11 818 51 846 -11 b 1113 51 1054 -11 1107 17 b 1086 82 1114 68 1104 82 b 1000 186 1050 83 1028 89 b 824 344 974 276 940 332 b 917 443 864 367 893 407 b 985 519 942 483 961 519 b 1068 463 1021 519 1011 463 b 1163 558 1110 463 1154 494 b 1057 681 1174 639 1124 681 b 846 489 943 681 893 571 b 744 394 817 436 788 394 l 731 394 b 707 422 706 394 704 397 l 713 471 b 724 519 715 488 719 503 b 806 628 746 588 797 578 b 743 667 808 657 786 667 l 518 667 b 449 628 479 667 453 660 b 497 519 442 575 493 588 b 494 471 499 503 497 488 l 489 422 b 457 394 486 397 482 394 l 443 394 b 369 485 400 394 385 436 b 211 681 343 568 326 681 b 72 558 144 681 83 639 b 139 463 64 494 97 463 b 238 519 196 463 201 519 b 286 443 263 519 271 483 b 350 344 299 407 314 365 b 129 186 231 332 181 276 b 14 82 72 89 50 83 b -21 51 -4 82 -19 68 b 103 -11 -26 17 19 -11 z "},"з":{"ha":664,"x_min":0,"x_max":0,"o":"m 282 -11 b 592 200 442 -11 574 71 b 450 363 601 268 563 340 b 611 529 528 385 601 450 b 418 681 625 636 526 681 b 257 663 332 681 296 663 b 193 681 224 663 219 681 b 135 619 172 681 154 669 b 106 511 119 574 113 546 b 125 451 100 474 101 451 b 194 506 149 451 163 468 b 326 585 233 551 274 585 b 403 496 376 585 410 550 b 239 388 394 444 339 400 b 226 310 183 381 172 314 b 369 199 324 303 379 265 b 236 99 357 108 276 99 b 78 163 175 99 118 124 b 25 121 49 189 10 164 b 282 -11 56 40 164 -11 z "},"и":{"ha":901,"x_min":0,"x_max":0,"o":"m 818 175 b 754 136 797 175 781 136 b 732 206 733 136 725 154 l 797 636 b 760 678 801 664 785 685 l 621 646 b 579 603 599 640 583 628 l 563 497 b 350 111 514 188 415 111 b 300 317 278 111 275 172 l 351 632 b 314 679 357 667 340 679 b 158 642 275 679 208 660 b 54 563 65 608 54 585 b 110 451 54 515 122 539 l 79 260 b 282 -14 54 94 110 -14 b 510 106 368 -14 442 25 b 638 -14 514 19 571 -14 b 843 144 769 -14 842 83 b 818 175 843 168 828 175 z "},"й":{"ha":901,"x_min":0,"x_max":0,"o":"m 492 736 b 761 892 613 736 747 789 b 706 954 767 928 740 954 b 501 811 621 954 590 811 b 336 954 411 811 419 954 b 263 892 303 954 268 931 b 492 736 247 792 351 736 z m 818 175 b 754 136 797 175 781 136 b 732 206 733 136 725 154 l 797 636 b 760 678 801 664 785 685 l 621 646 b 579 603 599 640 583 628 l 563 497 b 350 111 514 188 415 111 b 300 317 278 111 275 172 l 351 632 b 314 679 357 667 340 679 b 158 642 275 679 208 660 b 54 563 65 608 54 585 b 110 451 54 515 122 539 l 79 260 b 282 -14 54 94 110 -14 b 510 106 368 -14 442 25 b 638 -14 514 19 571 -14 b 843 144 769 -14 842 83 b 818 175 843 168 828 175 z "},"к":{"ha":808,"x_min":0,"x_max":0,"o":"m 607 -11 b 749 51 690 -11 743 17 b 722 82 750 68 740 82 b 635 186 686 83 664 89 b 458 346 608 276 575 333 b 619 519 546 393 574 519 b 703 463 656 519 646 463 b 797 558 744 463 789 494 b 692 681 808 639 758 681 b 358 394 507 681 492 394 l 346 394 b 322 422 321 394 319 397 l 328 471 b 339 519 331 488 335 503 b 419 628 361 588 413 578 b 358 667 424 657 401 667 l 133 667 b 64 628 94 667 68 660 b 113 519 56 575 108 588 b 110 471 114 503 113 488 l 72 196 b 61 149 69 179 65 164 b -19 40 39 79 -11 89 b 43 0 -24 10 0 0 l 267 0 b 336 39 307 0 332 7 b 288 149 344 92 292 79 b 290 196 286 164 288 179 l 299 265 b 328 301 304 297 310 301 b 426 175 407 301 413 240 b 607 -11 454 51 482 -11 z "},"л":{"ha":897,"x_min":0,"x_max":0,"o":"m 99 -14 b 289 118 169 -14 246 17 b 399 518 328 196 360 326 b 481 574 408 568 438 569 b 547 522 532 579 553 560 l 496 160 b 625 -14 481 42 542 -14 b 832 144 758 -14 831 83 b 807 175 832 168 817 175 b 743 136 785 175 769 136 b 719 204 722 136 711 153 l 763 506 b 836 632 776 600 831 586 b 783 672 840 657 818 672 b 443 668 656 679 536 675 b 236 597 278 656 236 636 b 268 558 236 581 249 569 b 293 483 289 550 300 535 b 165 115 275 371 221 115 b 71 186 122 115 140 186 b -17 97 32 186 -10 150 b 99 -14 -29 10 50 -14 z "},"м":{"ha":1154,"x_min":0,"x_max":0,"o":"m 99 -14 b 292 118 169 -14 247 17 b 382 453 329 196 363 332 b 453 79 399 311 422 189 b 538 51 463 43 501 40 b 613 100 567 57 600 76 l 800 464 l 772 171 b 900 -14 760 42 806 -14 b 1107 144 1033 -14 1106 83 b 1082 175 1107 168 1094 175 b 1018 136 1060 175 1044 136 b 996 206 997 136 992 154 l 1032 635 b 996 678 1035 664 1021 679 b 829 643 946 676 892 669 b 772 592 796 629 779 604 l 622 313 b 553 633 594 425 571 519 b 513 679 550 656 540 679 b 353 647 472 679 406 667 b 232 564 250 611 232 585 b 264 524 231 544 244 535 b 286 456 282 517 294 504 b 165 115 274 372 221 115 b 71 186 122 115 140 186 b -17 97 32 186 -10 150 b 99 -14 -29 10 50 -14 z "},"н":{"ha":892,"x_min":0,"x_max":0,"o":"m 819 175 b 756 136 797 175 782 136 b 729 204 735 136 721 153 l 790 638 b 753 679 794 665 779 685 l 617 647 b 575 603 594 642 579 629 l 544 392 l 313 392 l 346 632 b 308 679 350 667 335 679 b 158 642 269 679 210 660 b 54 563 65 608 54 585 b 110 451 54 515 122 538 l 51 28 b 89 -14 47 0 64 -19 l 228 18 b 268 61 250 24 265 36 l 300 299 l 532 299 l 513 167 b 638 -14 494 42 554 -14 b 844 144 771 -14 843 83 b 819 175 844 168 829 175 z "},"о":{"ha":831,"x_min":0,"x_max":0,"o":"m 368 -14 b 783 393 601 -14 783 153 b 471 681 783 557 667 681 b 50 281 246 681 50 503 b 368 -14 50 100 171 -14 z m 379 83 b 275 264 308 83 276 160 b 447 585 276 407 336 585 b 546 411 519 585 546 506 b 379 83 546 272 486 83 z "},"п":{"ha":903,"x_min":0,"x_max":0,"o":"m 831 175 b 767 136 808 175 793 136 b 744 204 746 136 740 153 l 760 406 b 569 681 774 567 726 681 b 313 518 464 681 376 622 l 331 632 b 293 679 336 667 319 679 b 158 642 254 679 208 660 b 54 563 65 608 54 585 b 110 451 54 515 122 538 l 49 29 b 86 -14 44 1 60 -19 l 225 19 b 265 63 247 25 261 38 l 281 153 b 496 551 335 461 440 551 b 549 396 557 551 558 494 l 529 171 b 656 -14 517 42 572 -14 b 856 144 782 -14 854 83 b 831 175 856 168 840 175 z "},"р":{"ha":835,"x_min":0,"x_max":0,"o":"m 583 678 b 335 563 483 678 399 635 l 344 633 b 306 681 350 667 333 681 b 160 643 268 681 215 667 b 54 564 72 608 54 588 b 122 444 54 515 135 531 l 44 -112 b -43 -243 33 -193 -37 -197 b 21 -278 -47 -268 -25 -278 l 243 -278 b 313 -244 283 -278 308 -271 b 263 -112 319 -196 253 -193 l 279 17 b 406 -6 319 4 363 -6 b 789 379 582 -6 761 156 b 583 678 811 564 719 678 z m 397 85 b 306 250 331 85 294 149 b 485 546 326 425 408 546 b 571 417 556 546 571 469 b 397 85 571 225 493 83 z "},"с":{"ha":751,"x_min":0,"x_max":0,"o":"m 353 -14 b 682 164 526 -14 644 83 b 640 206 701 208 675 232 b 469 142 589 165 539 142 b 272 346 340 142 272 221 b 418 579 272 467 333 579 b 508 431 486 579 510 525 b 586 336 508 386 524 343 b 710 471 657 328 708 390 b 450 681 711 585 604 681 b 50 276 238 681 50 500 b 353 -14 50 114 156 -14 z "},"т":{"ha":1303,"x_min":0,"x_max":0,"o":"m 1231 175 b 1167 136 1210 175 1193 136 b 1144 204 1146 136 1142 153 l 1160 406 b 967 681 1174 567 1122 681 b 742 547 894 681 807 639 b 567 681 719 631 658 681 b 317 535 493 681 399 653 l 332 632 b 294 679 338 667 321 679 b 158 642 256 679 210 660 b 56 563 67 608 56 585 b 111 451 56 515 122 538 l 42 28 b 79 -14 38 0 54 -19 l 218 18 b 260 63 240 24 256 38 l 276 153 b 485 551 336 461 426 551 b 519 344 535 551 542 497 l 474 29 b 510 -14 469 0 485 -19 l 649 19 b 690 63 671 24 685 38 l 707 153 b 901 551 767 461 843 551 b 947 396 953 551 956 494 l 929 171 b 1049 -14 919 42 965 -14 b 1256 144 1182 -14 1254 83 b 1231 175 1256 168 1240 175 z "},"у":{"ha":740,"x_min":0,"x_max":0,"o":"m 614 685 b 496 574 561 685 496 636 b 553 396 496 513 553 482 b 451 103 553 299 506 194 b 288 622 406 288 357 450 b 218 681 276 653 257 681 b 10 556 154 681 10 607 b 47 525 10 543 21 526 b 128 460 86 521 103 515 b 263 38 185 326 236 168 b 272 -90 275 -19 279 -53 b 179 -179 264 -142 224 -179 b 92 -93 118 -179 110 -139 b 14 -32 76 -54 46 -32 b -82 -151 -35 -32 -82 -74 b 92 -292 -82 -229 -25 -292 b 504 1 267 -292 397 -167 b 713 569 565 97 713 382 b 614 685 713 624 688 685 z "},"ф":{"ha":1206,"x_min":0,"x_max":0,"o":"m 632 -276 b 701 -243 674 -276 699 -269 b 651 -111 708 -194 640 -192 l 675 53 b 825 -14 706 14 753 -14 b 1157 361 967 -14 1119 99 b 944 681 1186 571 1088 681 b 750 610 882 681 807 653 l 803 957 b 775 1004 808 988 800 1004 b 560 936 751 1004 619 963 b 507 889 525 921 511 910 b 528 849 506 871 517 860 b 556 767 547 831 561 810 l 536 619 b 385 681 497 657 440 681 b 53 325 218 681 82 528 b 282 -14 17 58 167 -14 b 457 56 357 -14 413 14 l 433 -111 b 346 -242 422 -192 353 -196 b 410 -276 343 -268 365 -276 z m 375 111 b 279 318 292 111 264 200 b 419 561 297 461 338 561 b 507 421 468 561 519 517 l 482 235 b 375 111 474 165 432 111 z m 792 103 b 697 226 731 103 689 169 l 726 419 b 842 557 739 515 794 557 b 931 322 926 557 946 457 b 792 103 914 192 875 103 z "},"х":{"ha":769,"x_min":0,"x_max":0,"o":"m 678 682 b 433 446 596 682 511 576 l 346 640 b 289 683 333 668 313 683 b 90 567 242 683 90 614 b 135 535 90 542 113 539 b 208 443 161 528 188 489 l 278 289 b 139 144 222 192 175 144 b 76 178 113 144 108 178 b -3 85 42 178 -3 146 b 97 -14 -3 31 33 -14 b 322 192 178 -14 242 63 l 346 138 b 515 -14 389 44 429 -14 b 708 115 596 -14 708 54 b 683 143 708 129 703 143 b 629 131 663 143 650 131 b 515 265 585 131 547 196 l 478 347 b 629 524 539 451 597 524 b 692 492 656 524 660 492 b 769 578 726 492 763 522 b 678 682 778 639 742 682 z "},"ч":{"ha":868,"x_min":0,"x_max":0,"o":"m 614 -14 b 819 144 747 -14 819 83 b 796 175 819 168 804 175 b 732 136 774 175 758 136 b 707 204 711 136 701 153 l 768 638 b 731 679 772 665 756 685 l 586 647 b 544 604 563 642 547 629 l 532 508 b 403 353 519 403 463 353 b 331 504 319 353 321 438 l 346 632 b 308 681 350 667 336 681 b 168 650 269 681 222 668 b 51 564 61 611 51 585 b 82 525 51 547 63 536 b 107 454 103 517 114 497 b 101 382 103 432 101 414 b 306 214 101 276 176 214 b 507 296 378 214 453 240 l 486 172 b 614 -14 463 43 531 -14 z "},"ц":{"ha":893,"x_min":0,"x_max":0,"o":"m 842 175 b 763 136 807 175 789 136 b 740 206 740 136 732 154 l 801 636 b 764 678 806 664 789 685 l 625 646 b 583 603 603 640 588 628 l 568 497 b 358 111 519 188 425 111 b 300 317 289 111 275 172 l 351 632 b 313 681 357 667 340 681 b 172 650 275 681 229 669 b 56 564 65 611 56 585 b 86 525 56 547 67 536 b 111 454 107 517 118 504 l 79 260 b 289 -14 53 94 129 -14 b 517 104 376 -14 450 24 b 644 -14 522 21 581 -14 b 767 32 692 -14 732 3 b 700 -62 760 6 744 -18 b 593 -200 663 -100 593 -135 b 653 -282 593 -237 624 -267 b 710 -268 685 -299 710 -287 b 728 -207 710 -250 706 -225 b 857 -82 779 -162 817 -135 b 904 76 882 -46 904 15 b 842 175 904 139 876 175 z "},"ш":{"ha":1268,"x_min":0,"x_max":0,"o":"m 1196 175 b 1132 136 1174 175 1158 136 b 1110 206 1111 136 1101 154 l 1171 636 b 1133 678 1175 664 1160 685 l 994 646 b 954 603 972 640 957 628 l 938 493 b 751 113 889 188 797 111 b 707 271 694 113 692 169 l 758 636 b 719 678 763 664 746 685 l 582 646 b 540 603 560 640 544 628 l 524 493 b 333 121 488 256 411 121 b 290 268 285 121 275 176 l 351 632 b 313 681 357 667 340 681 b 172 650 275 681 229 669 b 56 564 65 611 56 585 b 86 525 56 547 67 536 b 111 454 107 517 118 504 l 79 260 b 274 -14 53 94 117 -14 b 497 122 369 -14 444 35 b 676 -14 521 36 585 -14 b 886 97 758 -14 825 22 b 1014 -14 894 18 951 -14 b 1219 144 1147 -14 1219 83 b 1196 175 1221 168 1206 175 z "},"щ":{"ha":1264,"x_min":0,"x_max":0,"o":"m 1211 175 b 1132 136 1176 175 1158 136 b 1110 206 1111 136 1101 154 l 1171 636 b 1133 678 1175 664 1160 685 l 994 646 b 954 603 972 640 957 628 l 938 493 b 751 113 889 188 799 111 b 707 271 694 113 692 169 l 758 636 b 719 678 763 664 746 685 l 582 646 b 540 603 560 640 544 628 l 524 493 b 339 121 483 231 411 121 b 290 268 285 121 275 176 l 351 632 b 313 681 357 667 340 681 b 172 650 275 681 229 669 b 56 564 65 611 56 585 b 86 525 56 547 67 536 b 111 454 107 517 118 504 l 79 260 b 274 -14 53 94 117 -14 b 497 122 371 -14 446 35 b 676 -14 521 36 586 -14 b 886 97 758 -14 825 22 b 1014 -14 894 18 951 -14 b 1136 32 1061 -14 1101 3 b 1071 -62 1129 6 1115 -18 b 963 -200 1032 -100 963 -135 b 1022 -282 963 -237 993 -267 b 1079 -268 1056 -299 1081 -287 b 1097 -207 1079 -250 1075 -225 b 1226 -82 1150 -162 1186 -135 b 1274 76 1253 -46 1274 15 b 1211 175 1274 139 1246 175 z "},"ь":{"ha":728,"x_min":0,"x_max":0,"o":"m 506 503 b 318 426 440 503 371 474 l 351 632 b 313 681 356 667 340 681 b 172 650 274 681 229 669 b 56 564 65 611 56 585 b 111 454 56 514 124 528 l 79 251 b 319 -14 50 72 146 -14 b 690 326 500 -14 690 125 b 506 503 690 431 614 503 z m 356 85 b 290 175 314 83 290 122 b 415 378 292 260 346 378 b 476 293 465 378 476 336 b 356 85 478 197 426 85 z "},"ы":{"ha":1110,"x_min":0,"x_max":0,"o":"m 506 503 b 318 426 440 503 371 474 l 350 632 b 313 681 356 667 340 681 b 172 650 274 681 228 669 b 56 564 65 611 56 585 b 111 454 56 514 122 528 l 78 251 b 319 -14 50 72 146 -14 b 690 326 500 -14 690 125 b 506 503 690 431 614 503 z m 1036 175 b 974 136 1015 175 1000 136 b 946 204 951 136 939 153 l 1008 638 b 971 679 1013 665 996 685 l 835 647 b 792 603 811 642 796 629 l 729 167 b 856 -14 711 42 772 -14 b 1061 144 988 -14 1060 83 b 1036 175 1061 168 1046 175 z m 356 85 b 290 175 314 83 289 122 b 415 378 292 260 346 378 b 476 293 465 378 476 336 b 356 85 478 197 425 85 z "},"ъ":{"ha":815,"x_min":0,"x_max":0,"o":"m 571 506 b 392 432 500 506 435 475 l 447 632 b 410 679 457 665 438 679 b 138 667 319 679 229 675 b 11 597 56 660 31 647 b -18 494 -3 563 -11 532 b 3 438 -25 463 -25 438 b 64 481 29 438 43 450 b 172 569 118 557 132 569 b 211 522 207 569 214 550 b 142 221 207 450 143 335 b 392 -14 139 47 265 -15 b 760 326 571 -12 760 125 b 571 506 760 431 689 506 z m 422 83 b 358 193 372 83 351 132 b 483 378 372 296 426 378 b 547 296 536 378 547 338 b 422 83 547 197 493 83 z "},"є":{"ha":744,"x_min":0,"x_max":0,"o":"m 346 -14 b 676 164 519 -14 638 83 b 635 206 694 207 671 232 b 464 142 582 165 532 142 b 274 319 353 142 286 211 b 325 332 292 326 313 332 b 464 276 388 332 404 276 b 618 376 514 276 610 321 b 593 406 621 392 611 406 b 511 383 572 406 547 383 b 390 433 467 383 453 433 b 274 393 363 433 329 421 l 276 408 b 440 593 292 522 356 593 b 640 492 536 593 560 492 b 713 554 676 492 708 519 b 482 681 725 639 596 681 b 50 307 263 681 81 519 b 346 -14 26 139 121 -14 z "},"э":{"ha":743,"x_min":0,"x_max":0,"o":"m 297 -14 b 690 329 542 -14 665 147 b 393 681 718 528 618 681 b 232 661 300 681 257 661 b 169 681 200 661 196 681 b 113 619 149 681 131 669 b 83 511 96 574 90 546 b 101 451 76 474 78 451 b 171 506 125 451 139 468 b 324 582 210 551 261 582 b 474 374 436 582 472 474 b 428 364 457 368 440 364 b 290 419 365 364 349 419 b 135 319 239 419 142 375 b 160 290 133 304 142 290 b 240 313 181 290 206 313 b 363 263 285 313 300 263 b 469 299 389 263 419 274 b 265 92 443 143 361 92 b 81 169 204 92 128 124 b 29 128 53 196 17 171 b 297 -14 53 47 174 -14 z "},"і":{"ha":461,"x_min":0,"x_max":0,"o":"m 218 743 b 382 888 299 743 381 810 b 282 982 382 942 338 982 b 124 835 203 983 124 907 b 218 743 122 786 157 743 z m 190 -14 b 397 144 324 -14 396 83 b 372 175 397 168 382 175 b 308 136 351 175 335 136 b 283 204 288 136 275 153 l 344 632 b 306 681 350 667 333 681 b 158 643 268 681 210 661 b 54 564 65 610 54 585 b 110 453 54 515 124 539 l 65 167 b 190 -14 46 42 107 -14 z "},"ї":{"ha":461,"x_min":0,"x_max":0,"o":"m 114 760 b 228 863 174 760 228 803 b 143 944 228 913 193 944 b 36 833 82 944 36 890 b 114 760 36 789 71 760 z m 357 760 b 468 863 415 760 468 803 b 383 944 468 913 435 944 b 276 833 324 944 276 890 b 357 760 276 789 311 760 z m 190 -14 b 397 144 324 -14 396 83 b 372 175 397 168 382 175 b 308 136 351 175 335 136 b 283 204 288 136 275 153 l 344 632 b 306 681 350 667 333 681 b 158 643 268 681 210 661 b 54 564 65 610 54 585 b 110 453 54 515 124 539 l 65 167 b 190 -14 46 42 107 -14 z "},"ю":{"ha":1175,"x_min":0,"x_max":0,"o":"m 814 681 b 411 392 628 681 463 560 l 314 392 l 346 632 b 310 679 351 667 336 679 b 160 642 269 679 211 660 b 56 563 67 608 56 585 b 111 451 56 515 122 538 l 53 28 b 90 -14 49 0 64 -19 l 229 18 b 269 61 251 24 265 36 l 301 297 l 394 297 l 394 281 b 713 -14 394 100 514 -14 b 1126 393 944 -14 1126 153 b 814 681 1126 557 1011 681 z m 724 83 b 618 264 651 83 619 160 b 790 585 619 407 679 585 b 889 411 864 585 889 506 b 724 83 889 272 831 83 z "},"я":{"ha":854,"x_min":0,"x_max":0,"o":"m 600 -14 b 806 144 733 -14 806 83 b 781 175 806 168 790 175 b 718 136 760 175 744 136 b 700 204 696 136 692 153 l 740 501 b 828 632 753 582 821 586 b 764 667 831 657 808 667 l 485 667 b 126 444 279 667 146 579 b 236 271 115 367 153 303 b 131 158 190 246 160 207 b 31 74 89 89 67 83 b -6 40 11 69 -3 57 b 121 -11 -11 6 38 -11 b 321 111 246 -11 290 53 b 431 254 360 190 375 246 b 467 257 440 256 454 257 b 486 235 478 257 489 253 l 475 171 b 600 -14 454 40 517 -14 z m 439 344 b 346 458 376 344 336 390 b 476 578 357 539 407 578 b 521 529 528 578 525 560 l 500 381 b 439 344 496 354 485 344 z "},"⁄":{"ha":513,"x_min":0,"x_max":0,"o":"m 46 -139 b 111 -96 82 -139 96 -129 l 593 969 b 567 1028 615 1015 610 1028 l 556 1028 b 490 985 519 1028 506 1018 l 8 -81 b 43 -139 -14 -126 -7 -139 z "},"¹":{"ha":385,"x_min":0,"x_max":0,"o":"m 319 954 b 303 983 322 972 318 983 b 133 926 288 983 194 951 b 99 897 108 915 100 911 b 119 871 97 886 101 878 b 156 803 158 856 161 844 l 108 471 b 49 389 101 421 49 425 b 92 368 49 374 63 368 l 254 368 b 294 389 281 368 294 372 b 251 471 294 419 244 421 z "},"²":{"ha":561,"x_min":0,"x_max":0,"o":"m 499 831 b 336 986 513 928 436 986 b 110 849 221 986 135 901 b 135 824 97 821 114 804 b 271 886 179 865 224 886 b 344 806 322 886 351 854 b 42 433 332 714 249 617 b 19 390 29 422 19 404 b 47 364 19 375 29 364 b 150 415 82 364 99 415 b 351 365 219 415 264 365 b 492 525 432 365 489 432 b 478 554 493 542 489 554 b 379 499 456 554 450 499 b 236 531 329 499 290 522 b 499 831 403 638 488 751 z "},"³":{"ha":511,"x_min":0,"x_max":0,"o":"m 517 929 b 503 969 529 943 529 969 b 436 939 479 969 458 939 b 219 981 365 939 292 981 b 103 851 149 981 121 931 b 113 793 93 814 97 793 b 154 824 125 793 135 806 b 219 846 174 840 196 846 b 338 825 271 846 306 831 b 203 713 299 788 254 753 b 206 665 188 701 179 669 b 335 550 308 649 343 610 b 211 450 325 485 269 450 b 72 508 151 450 107 475 b 33 483 54 526 29 511 b 243 353 44 429 114 353 b 489 543 388 353 475 444 b 318 733 507 665 418 719 b 517 929 382 789 456 858 z "}," ":{"ha":278,"x_min":0,"x_max":0,"o":""}," ":{"ha":278,"x_min":0,"x_max":0,"o":""},".":{"ha":379,"x_min":0,"x_max":0,"o":"m 149 -17 b 283 115 217 -17 283 33 b 178 222 283 185 233 222 b 43 89 114 222 43 172 b 149 -17 43 18 92 -17 z "},",":{"ha":400,"x_min":0,"x_max":0,"o":"m 69 -212 b 299 85 153 -212 299 -71 b 178 222 299 174 246 222 b 43 90 113 222 43 175 b 111 -69 43 4 111 -11 b 40 -189 111 -131 40 -156 b 69 -212 40 -203 53 -212 z "},":":{"ha":379,"x_min":0,"x_max":0,"o":"m 210 414 b 344 546 278 414 344 464 b 239 653 344 615 294 653 b 104 519 175 653 104 603 b 210 414 104 449 153 414 z m 149 -17 b 283 115 217 -17 283 33 b 178 222 283 185 233 222 b 43 89 114 222 43 172 b 149 -17 43 18 92 -17 z "},";":{"ha":400,"x_min":0,"x_max":0,"o":"m 208 414 b 343 546 276 414 343 464 b 239 653 343 615 294 653 b 103 519 174 653 103 603 b 208 414 103 449 151 414 z m 71 -212 b 300 85 154 -212 300 -71 b 179 222 300 174 247 222 b 44 90 115 222 44 175 b 113 -69 44 4 113 -11 b 43 -189 113 -131 43 -156 b 71 -212 43 -203 54 -212 z "},"…":{"ha":1010,"x_min":0,"x_max":0,"o":"m 147 -19 b 282 113 215 -19 282 31 b 178 219 282 182 233 219 b 42 86 113 219 42 169 b 147 -19 42 15 90 -19 z m 458 -19 b 593 113 526 -19 593 31 b 489 219 593 182 544 219 b 353 86 424 219 353 169 b 458 -19 353 15 401 -19 z m 779 -19 b 914 113 847 -19 914 31 b 810 219 914 182 865 219 b 674 86 744 219 674 169 b 779 -19 674 15 722 -19 z "},"!":{"ha":379,"x_min":0,"x_max":0,"o":"m 189 333 b 228 378 213 333 221 343 b 385 851 268 569 371 753 b 281 986 396 935 349 986 b 140 851 211 986 151 935 b 163 378 126 753 175 569 b 189 333 158 343 164 333 z m 149 -19 b 283 113 217 -19 283 31 b 178 219 283 182 233 219 b 43 86 114 219 43 169 b 149 -19 43 15 92 -19 z "},"¡":{"ha":397,"x_min":0,"x_max":0,"o":"m 214 446 b 349 578 283 446 349 496 b 244 685 349 647 300 685 b 110 550 179 685 110 633 b 214 446 110 481 157 446 z m 106 -319 b 247 -185 174 -319 236 -268 b 222 289 261 -86 210 97 b 196 333 226 325 221 333 b 158 289 172 333 164 325 b 3 -185 117 97 17 -86 b 106 -319 -8 -268 36 -319 z "},"?":{"ha":665,"x_min":0,"x_max":0,"o":"m 357 374 b 417 482 363 401 404 467 b 690 788 492 565 671 646 b 421 986 707 901 611 986 b 90 781 217 986 106 886 b 178 682 85 738 100 682 b 285 760 238 682 261 725 b 406 886 322 821 346 886 b 461 804 457 886 467 840 b 264 394 442 661 290 581 b 357 374 253 311 343 301 z m 279 -19 b 414 113 347 -19 414 31 b 310 219 414 182 365 219 b 174 86 244 219 174 169 b 279 -19 174 15 222 -19 z "},"¿":{"ha":631,"x_min":0,"x_max":0,"o":"m 346 443 b 481 575 415 443 481 493 b 376 682 481 644 432 682 b 242 549 311 682 242 632 b 346 443 242 478 289 443 z m 229 -319 b 560 -114 433 -319 544 -219 b 474 -15 567 -71 551 -15 b 365 -93 413 -15 389 -58 b 246 -219 328 -154 304 -219 b 189 -137 194 -219 185 -174 b 386 272 210 7 360 86 b 293 293 399 356 307 365 b 233 185 289 265 246 200 b -40 -121 158 103 -19 21 b 229 -319 -56 -235 39 -319 z "},"·":{"ha":399,"x_min":0,"x_max":0,"o":"m 190 240 b 325 372 258 240 325 290 b 219 479 325 442 275 479 b 85 346 156 479 85 429 b 190 240 85 275 133 240 z "},"•":{"ha":525,"x_min":0,"x_max":0,"o":"m 242 207 b 418 376 332 207 418 271 b 282 517 418 468 354 517 b 106 343 197 517 106 451 b 242 207 106 251 168 207 z "},"*":{"ha":685,"x_min":0,"x_max":0,"o":"m 156 425 b 274 439 188 394 239 404 b 356 592 314 481 318 532 b 401 593 371 615 393 615 b 443 439 421 532 413 481 b 556 425 467 404 515 394 b 581 543 597 457 604 507 b 461 624 554 583 507 590 b 479 668 440 640 450 667 b 635 671 540 672 585 653 b 701 775 681 688 711 732 b 601 822 693 819 647 838 b 467 728 550 807 521 764 b 433 754 442 710 422 726 b 503 899 460 811 496 847 b 435 983 510 944 482 983 b 342 899 388 983 349 944 b 371 754 335 847 363 813 b 329 728 374 726 350 710 b 222 822 286 764 267 807 b 108 775 182 838 131 819 b 146 671 85 732 106 688 b 301 668 190 653 240 672 b 307 624 329 667 332 640 b 164 543 251 590 203 583 b 156 425 131 507 124 457 z "},"#":{"ha":999,"x_min":0,"x_max":0,"o":"m 196 0 b 229 24 213 0 224 8 l 333 296 l 524 296 l 422 31 b 443 0 415 13 424 0 l 488 0 b 521 24 504 0 515 8 l 625 296 l 849 296 b 883 324 867 296 879 306 l 897 369 b 876 397 901 388 894 397 l 665 397 l 735 574 l 956 574 b 990 601 974 574 986 583 l 1004 647 b 982 675 1007 665 1000 675 l 774 675 l 876 942 b 856 972 883 960 875 972 l 811 972 b 778 949 794 972 783 964 l 671 675 l 482 675 l 585 942 b 564 972 592 960 583 972 l 519 972 b 486 949 503 972 492 964 l 379 675 l 161 675 b 128 647 143 675 131 665 l 113 601 b 135 574 110 583 117 574 l 340 574 l 272 397 l 56 397 b 21 369 38 397 25 388 l 7 324 b 28 296 3 306 10 296 l 232 296 l 131 31 b 151 0 124 13 132 0 z m 632 574 l 564 397 l 374 397 l 443 574 z "},"/":{"ha":571,"x_min":0,"x_max":0,"o":"m 46 -139 b 111 -96 82 -139 96 -129 l 593 969 b 567 1028 615 1015 610 1028 l 556 1028 b 490 985 519 1028 506 1018 l 8 -81 b 43 -139 -14 -126 -7 -139 z "},"\\":{"ha":546,"x_min":0,"x_max":0,"o":"m 389 -139 b 433 -81 432 -139 442 -126 l 250 985 b 199 1028 246 1018 235 1028 l 189 1028 b 143 969 146 1028 135 1015 l 326 -96 b 378 -139 331 -129 342 -139 z "},"-":{"ha":499,"x_min":0,"x_max":0,"o":"m 368 351 b 425 390 399 351 413 360 l 436 417 b 403 457 449 449 433 457 l 150 457 b 93 418 119 457 106 449 l 82 390 b 115 351 69 360 85 351 z "},"­":{"ha":499,"x_min":0,"x_max":0,"o":"m 368 351 b 425 390 399 351 413 360 l 436 417 b 403 457 449 449 433 457 l 150 457 b 93 418 119 457 106 449 l 82 390 b 115 351 69 360 85 351 z "},"–":{"ha":708,"x_min":0,"x_max":0,"o":"m 576 351 b 633 390 607 351 621 360 l 644 417 b 611 457 657 449 642 457 l 150 457 b 93 418 119 457 106 449 l 82 390 b 115 351 69 360 85 351 z "},"—":{"ha":985,"x_min":0,"x_max":0,"o":"m 853 351 b 910 390 883 351 897 360 l 921 417 b 888 457 933 449 918 457 l 150 457 b 93 418 119 457 106 449 l 82 390 b 115 351 69 360 85 351 z "},"_":{"ha":588,"x_min":0,"x_max":0,"o":"m 465 -122 b 511 -81 497 -122 507 -112 b 476 -40 517 -49 508 -40 l 6 -40 b -40 -82 -26 -40 -35 -49 b -6 -122 -44 -112 -37 -122 z "},"(":{"ha":544,"x_min":0,"x_max":0,"o":"m 374 -167 b 440 -156 394 -176 419 -181 b 417 -83 457 -132 443 -108 b 301 460 303 29 265 207 b 567 989 336 700 422 878 b 613 1061 600 1015 624 1038 b 529 1065 600 1089 567 1082 b 78 464 338 972 121 765 b 374 -167 32 132 201 -81 z "},")":{"ha":547,"x_min":0,"x_max":0,"o":"m 33 -167 b 504 464 228 -81 458 132 b 222 1065 546 765 388 972 b 139 1061 190 1082 160 1089 b 164 989 119 1038 138 1015 b 281 460 276 878 314 700 b 13 -83 244 207 156 29 b -32 -156 -21 -108 -43 -132 b 33 -167 -18 -181 10 -176 z "}}}
